<ttFont>
<head>
    <!-- Most of this table will be recalculated by the compiler -->
    <tableVersion value="1.0"/>
    <fontRevision value="1.00299072266"/>
    <checkSumAdjustment value="0xd8f1bcbd"/>
    <magicNumber value="0x5f0f3cf5"/>
    <flags value="00100000 00001011"/>
    <unitsPerEm value="2048"/>
    <created value="Fri Jul 29 19:53:27 2011"/>
    <modified value="Fri Jul 29 19:53:27 2011"/>
    <xMin value="-219"/>
    <yMin value="-640"/>
    <xMax value="2880"/>
    <yMax value="1920"/>
    <macStyle value="00000000 00000001"/>
    <lowestRecPPEM value="8"/>
    <fontDirectionHint value="2"/>
    <indexToLocFormat value="0"/>
    <glyphDataFormat value="0"/>
  </head>
    <TTGlyph name=".notdef" xMin="177" yMin="-2" xMax="1593" yMax="1416">
      <contour>
        <pt x="177" y="1416" on="1"/>
        <pt x="1593" y="1416" on="1"/>
        <pt x="1593" y="-2" on="1"/>
        <pt x="177" y="-2" on="1"/>
      </contour>
      <contour>
        <pt x="568" y="171" on="1"/>
        <pt x="877" y="533" on="1"/>
        <pt x="1227" y="174" on="1"/>
        <pt x="1418" y="365" on="1"/>
        <pt x="1053" y="711" on="1"/>
        <pt x="1423" y="1064" on="1"/>
        <pt x="1221" y="1264" on="1"/>
        <pt x="884" y="889" on="1"/>
        <pt x="536" y="1254" on="1"/>
        <pt x="342" y="1055" on="1"/>
        <pt x="704" y="708" on="1"/>
        <pt x="356" y="396" on="1"/>
      </contour>
    </TTGlyph>
    <TTGlyph name="A" xMin="5" yMin="0" xMax="1595" yMax="1553">
      <contour>
        <pt x="5" y="140" on="1"/>
        <pt x="138" y="180" on="1"/>
        <pt x="631" y="1553" on="1"/>
        <pt x="964" y="1553" on="1"/>
        <pt x="1443" y="178" on="1"/>
        <pt x="1595" y="138" on="1"/>
        <pt x="1595" y="0" on="1"/>
        <pt x="911" y="0" on="1"/>
        <pt x="911" y="138" on="1"/>
        <pt x="1045" y="183" on="1"/>
        <pt x="1002" y="335" on="1"/>
        <pt x="461" y="335" on="1"/>
        <pt x="416" y="187" on="1"/>
        <pt x="565" y="140" on="1"/>
        <pt x="565" y="0" on="1"/>
        <pt x="5" y="0" on="1"/>
      </contour>
      <contour>
        <pt x="948" y="521" on="1"/>
        <pt x="815" y="979" on="1"/>
        <pt x="742" y="1253" on="1"/>
        <pt x="518" y="521" on="1"/>
      </contour>
    </TTGlyph>
    <TTGlyph name="AE" xMin="5" yMin="0" xMax="1927" yMax="1553">
      <contour>
        <pt x="5" y="141" on="1"/>
        <pt x="126" y="174" on="1"/>
        <pt x="680" y="1553" on="1"/>
        <pt x="1743" y="1553" on="1"/>
        <pt x="1779" y="1211" on="1"/>
        <pt x="1586" y="1211" on="1"/>
        <pt x="1521" y="1360" on="1"/>
        <pt x="1092" y="1382" on="1"/>
        <pt x="1242" y="899" on="1"/>
        <pt x="1494" y="905" on="1"/>
        <pt x="1531" y="1055" on="1"/>
        <pt x="1690" y="1055" on="1"/>
        <pt x="1690" y="560" on="1"/>
        <pt x="1530" y="560" on="1"/>
        <pt x="1491" y="704" on="1"/>
        <pt x="1298" y="719" on="1"/>
        <pt x="1474" y="149" on="1"/>
        <pt x="1642" y="178" on="1"/>
        <pt x="1753" y="366" on="1"/>
        <pt x="1927" y="332" on="1"/>
        <pt x="1876" y="0" on="1"/>
        <pt x="937" y="0" on="1"/>
        <pt x="937" y="140" on="1"/>
        <pt x="1095" y="181" on="1"/>
        <pt x="1049" y="336" on="1"/>
        <pt x="437" y="336" on="1"/>
        <pt x="378" y="182" on="1"/>
        <pt x="555" y="141" on="1"/>
        <pt x="555" y="0" on="1"/>
        <pt x="5" y="0" on="1"/>
      </contour>
      <contour>
        <pt x="992" y="531" on="1"/>
        <pt x="821" y="1112" on="1"/>
        <pt x="788" y="1262" on="1"/>
        <pt x="511" y="531" on="1"/>
      </contour>
    </TTGlyph>
    <TTGlyph name="Aacute" xMin="5" yMin="0" xMax="1595" yMax="1920">
      <contour>
        <pt x="647" y="1700" on="1"/>
        <pt x="1040" y="1920" on="1"/>
        <pt x="1233" y="1728" on="1"/>
        <pt x="1205" y="1707" on="0"/>
        <pt x="1117" y="1670" on="0"/>
        <pt x="1017" y="1639" on="0"/>
        <pt x="913" y="1616" on="0"/>
        <pt x="824" y="1600" on="0"/>
        <pt x="759" y="1592" on="0"/>
        <pt x="748" y="1593" on="1"/>
      </contour>
      <contour>
        <pt x="5" y="140" on="1"/>
        <pt x="138" y="180" on="1"/>
        <pt x="631" y="1553" on="1"/>
        <pt x="964" y="1553" on="1"/>
        <pt x="1443" y="178" on="1"/>
        <pt x="1595" y="138" on="1"/>
        <pt x="1595" y="0" on="1"/>
        <pt x="911" y="0" on="1"/>
        <pt x="911" y="138" on="1"/>
        <pt x="1045" y="183" on="1"/>
        <pt x="1002" y="335" on="1"/>
        <pt x="461" y="335" on="1"/>
        <pt x="416" y="187" on="1"/>
        <pt x="565" y="140" on="1"/>
        <pt x="565" y="0" on="1"/>
        <pt x="5" y="0" on="1"/>
      </contour>
      <contour>
        <pt x="948" y="521" on="1"/>
        <pt x="815" y="979" on="1"/>
        <pt x="742" y="1253" on="1"/>
        <pt x="518" y="521" on="1"/>
      </contour>
    </TTGlyph>
    <TTGlyph name="Acircumflex" xMin="5" yMin="0" xMax="1595" yMax="1920">
      <contour>
        <pt x="410" y="1670" on="1"/>
        <pt x="685" y="1920" on="1"/>
        <pt x="917" y="1920" on="1"/>
        <pt x="1187" y="1670" on="1"/>
        <pt x="1075" y="1597" on="1"/>
        <pt x="803" y="1726" on="1"/>
        <pt x="521" y="1597" on="1"/>
      </contour>
      <contour>
        <pt x="5" y="140" on="1"/>
        <pt x="138" y="180" on="1"/>
        <pt x="631" y="1553" on="1"/>
        <pt x="964" y="1553" on="1"/>
        <pt x="1443" y="178" on="1"/>
        <pt x="1595" y="138" on="1"/>
        <pt x="1595" y="0" on="1"/>
        <pt x="911" y="0" on="1"/>
        <pt x="911" y="138" on="1"/>
        <pt x="1045" y="183" on="1"/>
        <pt x="1002" y="335" on="1"/>
        <pt x="461" y="335" on="1"/>
        <pt x="416" y="187" on="1"/>
        <pt x="565" y="140" on="1"/>
        <pt x="565" y="0" on="1"/>
        <pt x="5" y="0" on="1"/>
      </contour>
      <contour>
        <pt x="948" y="521" on="1"/>
        <pt x="815" y="979" on="1"/>
        <pt x="742" y="1253" on="1"/>
        <pt x="518" y="521" on="1"/>
      </contour>
    </TTGlyph>
    <TTGlyph name="Adieresis" xMin="5" yMin="0" xMax="1595" yMax="1920">
      <contour>
        <pt x="1060" y="1619" on="1"/>
        <pt x="1025" y="1619" on="0"/>
        <pt x="960" y="1637" on="0"/>
        <pt x="909" y="1673" on="0"/>
        <pt x="879" y="1725" on="0"/>
        <pt x="879" y="1759" on="1"/>
        <pt x="879" y="1794" on="0"/>
        <pt x="915" y="1853" on="0"/>
        <pt x="974" y="1896" on="0"/>
        <pt x="1048" y="1920" on="0"/>
        <pt x="1086" y="1920" on="1"/>
        <pt x="1135" y="1920" on="0"/>
        <pt x="1203" y="1899" on="0"/>
        <pt x="1245" y="1862" on="0"/>
        <pt x="1264" y="1811" on="0"/>
        <pt x="1264" y="1782" on="1"/>
        <pt x="1264" y="1744" on="0"/>
        <pt x="1230" y="1684" on="0"/>
        <pt x="1174" y="1642" on="0"/>
        <pt x="1100" y="1619" on="0"/>
      </contour>
      <contour>
        <pt x="512" y="1618" on="1"/>
        <pt x="476" y="1618" on="0"/>
        <pt x="412" y="1636" on="0"/>
        <pt x="363" y="1671" on="0"/>
        <pt x="335" y="1723" on="0"/>
        <pt x="335" y="1756" on="1"/>
        <pt x="335" y="1792" on="0"/>
        <pt x="370" y="1852" on="0"/>
        <pt x="428" y="1896" on="0"/>
        <pt x="501" y="1920" on="0"/>
        <pt x="540" y="1920" on="1"/>
        <pt x="589" y="1920" on="0"/>
        <pt x="658" y="1898" on="0"/>
        <pt x="703" y="1861" on="0"/>
        <pt x="724" y="1810" on="0"/>
        <pt x="724" y="1780" on="1"/>
        <pt x="724" y="1743" on="0"/>
        <pt x="689" y="1683" on="0"/>
        <pt x="630" y="1641" on="0"/>
        <pt x="553" y="1618" on="0"/>
      </contour>
      <contour>
        <pt x="5" y="140" on="1"/>
        <pt x="138" y="180" on="1"/>
        <pt x="631" y="1553" on="1"/>
        <pt x="964" y="1553" on="1"/>
        <pt x="1443" y="178" on="1"/>
        <pt x="1595" y="138" on="1"/>
        <pt x="1595" y="0" on="1"/>
        <pt x="911" y="0" on="1"/>
        <pt x="911" y="138" on="1"/>
        <pt x="1045" y="183" on="1"/>
        <pt x="1002" y="335" on="1"/>
        <pt x="461" y="335" on="1"/>
        <pt x="416" y="187" on="1"/>
        <pt x="565" y="140" on="1"/>
        <pt x="565" y="0" on="1"/>
        <pt x="5" y="0" on="1"/>
      </contour>
      <contour>
        <pt x="948" y="521" on="1"/>
        <pt x="815" y="979" on="1"/>
        <pt x="742" y="1253" on="1"/>
        <pt x="518" y="521" on="1"/>
      </contour>
    </TTGlyph>
    <TTGlyph name="Agrave" xMin="5" yMin="0" xMax="1595" yMax="1920">
      <contour>
        <pt x="570" y="1920" on="1"/>
        <pt x="943" y="1700" on="1"/>
        <pt x="842" y="1593" on="1"/>
        <pt x="831" y="1592" on="0"/>
        <pt x="769" y="1600" on="0"/>
        <pt x="684" y="1616" on="0"/>
        <pt x="586" y="1639" on="0"/>
        <pt x="490" y="1670" on="0"/>
        <pt x="405" y="1707" on="0"/>
        <pt x="377" y="1728" on="1"/>
      </contour>
      <contour>
        <pt x="5" y="140" on="1"/>
        <pt x="138" y="180" on="1"/>
        <pt x="631" y="1553" on="1"/>
        <pt x="964" y="1553" on="1"/>
        <pt x="1443" y="178" on="1"/>
        <pt x="1595" y="138" on="1"/>
        <pt x="1595" y="0" on="1"/>
        <pt x="911" y="0" on="1"/>
        <pt x="911" y="138" on="1"/>
        <pt x="1045" y="183" on="1"/>
        <pt x="1002" y="335" on="1"/>
        <pt x="461" y="335" on="1"/>
        <pt x="416" y="187" on="1"/>
        <pt x="565" y="140" on="1"/>
        <pt x="565" y="0" on="1"/>
        <pt x="5" y="0" on="1"/>
      </contour>
      <contour>
        <pt x="948" y="521" on="1"/>
        <pt x="815" y="979" on="1"/>
        <pt x="742" y="1253" on="1"/>
        <pt x="518" y="521" on="1"/>
      </contour>
    </TTGlyph>
    <TTGlyph name="Aogonek" xMin="5" yMin="-514" xMax="1595" yMax="1553">
      <contour>
        <pt x="5" y="140" on="1"/>
        <pt x="138" y="180" on="1"/>
        <pt x="631" y="1553" on="1"/>
        <pt x="964" y="1553" on="1"/>
        <pt x="1443" y="178" on="1"/>
        <pt x="1595" y="138" on="1"/>
        <pt x="1595" y="0" on="1"/>
        <pt x="1357" y="0" on="1"/>
        <pt x="1301" y="-19" on="0"/>
        <pt x="1202" y="-70" on="0"/>
        <pt x="1127" y="-124" on="0"/>
        <pt x="1078" y="-176" on="0"/>
        <pt x="1071" y="-195" on="1"/>
        <pt x="1059" y="-229" on="0"/>
        <pt x="1064" y="-270" on="0"/>
        <pt x="1085" y="-291" on="0"/>
        <pt x="1118" y="-298" on="0"/>
        <pt x="1135" y="-298" on="1"/>
        <pt x="1164" y="-299" on="0"/>
        <pt x="1226" y="-290" on="0"/>
        <pt x="1287" y="-274" on="0"/>
        <pt x="1346" y="-254" on="0"/>
        <pt x="1373" y="-244" on="1"/>
        <pt x="1408" y="-378" on="1"/>
        <pt x="1309" y="-449" on="0"/>
        <pt x="1085" y="-514" on="0"/>
        <pt x="954" y="-514" on="1"/>
        <pt x="896" y="-514" on="0"/>
        <pt x="817" y="-484" on="0"/>
        <pt x="767" y="-438" on="0"/>
        <pt x="743" y="-380" on="0"/>
        <pt x="741" y="-351" on="1"/>
        <pt x="739" y="-315" on="0"/>
        <pt x="787" y="-221" on="0"/>
        <pt x="882" y="-123" on="0"/>
        <pt x="1022" y="-32" on="0"/>
        <pt x="1113" y="0" on="1"/>
        <pt x="911" y="0" on="1"/>
        <pt x="911" y="138" on="1"/>
        <pt x="1045" y="183" on="1"/>
        <pt x="1002" y="335" on="1"/>
        <pt x="461" y="335" on="1"/>
        <pt x="416" y="187" on="1"/>
        <pt x="565" y="140" on="1"/>
        <pt x="565" y="0" on="1"/>
        <pt x="5" y="0" on="1"/>
      </contour>
      <contour>
        <pt x="948" y="521" on="1"/>
        <pt x="815" y="979" on="1"/>
        <pt x="742" y="1253" on="1"/>
        <pt x="518" y="521" on="1"/>
      </contour>
    </TTGlyph>
    <TTGlyph name="Aring" xMin="5" yMin="0" xMax="1595" yMax="1920">
      <contour>
        <pt x="5" y="140" on="1"/>
        <pt x="138" y="180" on="1"/>
        <pt x="606" y="1483" on="1"/>
        <pt x="559" y="1514" on="0"/>
        <pt x="503" y="1609" on="0"/>
        <pt x="503" y="1673" on="1"/>
        <pt x="503" y="1732" on="0"/>
        <pt x="548" y="1824" on="0"/>
        <pt x="627" y="1887" on="0"/>
        <pt x="736" y="1920" on="0"/>
        <pt x="800" y="1920" on="1"/>
        <pt x="864" y="1920" on="0"/>
        <pt x="974" y="1886" on="0"/>
        <pt x="1054" y="1822" on="0"/>
        <pt x="1099" y="1730" on="0"/>
        <pt x="1099" y="1673" on="1"/>
        <pt x="1099" y="1607" on="0"/>
        <pt x="1039" y="1510" on="0"/>
        <pt x="990" y="1479" on="1"/>
        <pt x="1443" y="178" on="1"/>
        <pt x="1595" y="138" on="1"/>
        <pt x="1595" y="0" on="1"/>
        <pt x="911" y="0" on="1"/>
        <pt x="911" y="138" on="1"/>
        <pt x="1045" y="183" on="1"/>
        <pt x="1002" y="335" on="1"/>
        <pt x="461" y="335" on="1"/>
        <pt x="416" y="187" on="1"/>
        <pt x="565" y="140" on="1"/>
        <pt x="565" y="0" on="1"/>
        <pt x="5" y="0" on="1"/>
      </contour>
      <contour>
        <pt x="800" y="1555" on="1"/>
        <pt x="827" y="1555" on="0"/>
        <pt x="872" y="1573" on="0"/>
        <pt x="906" y="1604" on="0"/>
        <pt x="925" y="1648" on="0"/>
        <pt x="925" y="1674" on="1"/>
        <pt x="925" y="1698" on="0"/>
        <pt x="906" y="1742" on="0"/>
        <pt x="872" y="1775" on="0"/>
        <pt x="827" y="1794" on="0"/>
        <pt x="800" y="1794" on="1"/>
        <pt x="743" y="1794" on="0"/>
        <pt x="674" y="1726" on="0"/>
        <pt x="674" y="1674" on="1"/>
        <pt x="674" y="1622" on="0"/>
        <pt x="743" y="1555" on="0"/>
      </contour>
      <contour>
        <pt x="948" y="521" on="1"/>
        <pt x="815" y="979" on="1"/>
        <pt x="742" y="1253" on="1"/>
        <pt x="518" y="521" on="1"/>
      </contour>
    </TTGlyph>
    <TTGlyph name="Atilde" xMin="5" yMin="0" xMax="1595" yMax="1920">
      <contour>
        <pt x="372" y="1712" on="1"/>
        <pt x="388" y="1756" on="0"/>
        <pt x="463" y="1832" on="0"/>
        <pt x="553" y="1888" on="0"/>
        <pt x="645" y="1920" on="0"/>
        <pt x="680" y="1920" on="1"/>
        <pt x="735" y="1920" on="0"/>
        <pt x="816" y="1889" on="0"/>
        <pt x="883" y="1851" on="0"/>
        <pt x="941" y="1820" on="0"/>
        <pt x="973" y="1820" on="1"/>
        <pt x="1027" y="1820" on="0"/>
        <pt x="1106" y="1862" on="0"/>
        <pt x="1139" y="1891" on="1"/>
        <pt x="1228" y="1794" on="1"/>
        <pt x="1211" y="1750" on="0"/>
        <pt x="1139" y="1679" on="0"/>
        <pt x="1052" y="1629" on="0"/>
        <pt x="962" y="1603" on="0"/>
        <pt x="927" y="1603" on="1"/>
        <pt x="873" y="1603" on="0"/>
        <pt x="789" y="1635" on="0"/>
        <pt x="720" y="1674" on="0"/>
        <pt x="659" y="1706" on="0"/>
        <pt x="627" y="1706" on="1"/>
        <pt x="582" y="1706" on="0"/>
        <pt x="494" y="1663" on="0"/>
        <pt x="459" y="1634" on="1"/>
      </contour>
      <contour>
        <pt x="5" y="140" on="1"/>
        <pt x="138" y="180" on="1"/>
        <pt x="631" y="1553" on="1"/>
        <pt x="964" y="1553" on="1"/>
        <pt x="1443" y="178" on="1"/>
        <pt x="1595" y="138" on="1"/>
        <pt x="1595" y="0" on="1"/>
        <pt x="911" y="0" on="1"/>
        <pt x="911" y="138" on="1"/>
        <pt x="1045" y="183" on="1"/>
        <pt x="1002" y="335" on="1"/>
        <pt x="461" y="335" on="1"/>
        <pt x="416" y="187" on="1"/>
        <pt x="565" y="140" on="1"/>
        <pt x="565" y="0" on="1"/>
        <pt x="5" y="0" on="1"/>
      </contour>
      <contour>
        <pt x="948" y="521" on="1"/>
        <pt x="815" y="979" on="1"/>
        <pt x="742" y="1253" on="1"/>
        <pt x="518" y="521" on="1"/>
      </contour>
    </TTGlyph>
    <TTGlyph name="B" xMin="80" yMin="-11" xMax="1411" yMax="1567">
      <contour>
        <pt x="80" y="140" on="1"/>
        <pt x="235" y="183" on="1"/>
        <pt x="235" y="1367" on="1"/>
        <pt x="84" y="1389" on="1"/>
        <pt x="84" y="1553" on="1"/>
        <pt x="396" y="1553" on="1"/>
        <pt x="393" y="1555" on="0"/>
        <pt x="454" y="1558" on="0"/>
        <pt x="554" y="1561" on="0"/>
        <pt x="681" y="1565" on="0"/>
        <pt x="745" y="1567" on="1"/>
        <pt x="883" y="1571" on="0"/>
        <pt x="1093" y="1522" on="0"/>
        <pt x="1234" y="1425" on="0"/>
        <pt x="1305" y="1284" on="0"/>
        <pt x="1305" y="1197" on="1"/>
        <pt x="1305" y="1136" on="0"/>
        <pt x="1273" y="1022" on="0"/>
        <pt x="1208" y="927" on="0"/>
        <pt x="1110" y="856" on="0"/>
        <pt x="1043" y="838" on="1"/>
        <pt x="1117" y="838" on="0"/>
        <pt x="1250" y="779" on="0"/>
        <pt x="1351" y="677" on="0"/>
        <pt x="1411" y="541" on="0"/>
        <pt x="1411" y="464" on="1"/>
        <pt x="1411" y="348" on="0"/>
        <pt x="1336" y="171" on="0"/>
        <pt x="1168" y="51" on="0"/>
        <pt x="897" y="-11" on="0"/>
        <pt x="701" y="-11" on="1"/>
        <pt x="656" y="-11" on="0"/>
        <pt x="572" y="-8" on="0"/>
        <pt x="481" y="-3" on="0"/>
        <pt x="374" y="0" on="0"/>
        <pt x="306" y="0" on="1"/>
        <pt x="80" y="0" on="1"/>
      </contour>
      <contour>
        <pt x="589" y="882" on="1"/>
        <pt x="605" y="877" on="0"/>
        <pt x="665" y="874" on="0"/>
        <pt x="719" y="874" on="1"/>
        <pt x="780" y="874" on="0"/>
        <pt x="863" y="903" on="0"/>
        <pt x="918" y="951" on="0"/>
        <pt x="948" y="1014" on="0"/>
        <pt x="961" y="1080" on="0"/>
        <pt x="964" y="1145" on="0"/>
        <pt x="964" y="1172" on="1"/>
        <pt x="964" y="1220" on="0"/>
        <pt x="941" y="1308" on="0"/>
        <pt x="881" y="1375" on="0"/>
        <pt x="777" y="1414" on="0"/>
        <pt x="697" y="1414" on="1"/>
        <pt x="686" y="1414" on="0"/>
        <pt x="656" y="1412" on="0"/>
        <pt x="626" y="1409" on="0"/>
        <pt x="599" y="1403" on="0"/>
        <pt x="591" y="1399" on="1"/>
      </contour>
      <contour>
        <pt x="587" y="164" on="1"/>
        <pt x="612" y="151" on="0"/>
        <pt x="723" y="137" on="0"/>
        <pt x="792" y="137" on="1"/>
        <pt x="866" y="137" on="0"/>
        <pt x="962" y="198" on="0"/>
        <pt x="1017" y="291" on="0"/>
        <pt x="1038" y="400" on="0"/>
        <pt x="1038" y="448" on="1"/>
        <pt x="1038" y="500" on="0"/>
        <pt x="1015" y="599" on="0"/>
        <pt x="956" y="677" on="0"/>
        <pt x="856" y="724" on="0"/>
        <pt x="778" y="724" on="1"/>
        <pt x="733" y="724" on="0"/>
        <pt x="636" y="722" on="0"/>
        <pt x="587" y="712" on="1"/>
      </contour>
    </TTGlyph>
    <TTGlyph name="C" xMin="68" yMin="-28" xMax="1373" yMax="1567">
      <contour>
        <pt x="68" y="724" on="1"/>
        <pt x="68" y="853" on="0"/>
        <pt x="136" y="1079" on="0"/>
        <pt x="256" y="1266" on="0"/>
        <pt x="421" y="1413" on="0"/>
        <pt x="616" y="1514" on="0"/>
        <pt x="835" y="1567" on="0"/>
        <pt x="948" y="1567" on="1"/>
        <pt x="1024" y="1567" on="0"/>
        <pt x="1150" y="1552" on="0"/>
        <pt x="1254" y="1532" on="0"/>
        <pt x="1337" y="1510" on="0"/>
        <pt x="1372" y="1503" on="1"/>
        <pt x="1352" y="1114" on="1"/>
        <pt x="1142" y="1114" on="1"/>
        <pt x="1069" y="1319" on="1"/>
        <pt x="1059" y="1334" on="0"/>
        <pt x="1030" y="1357" on="0"/>
        <pt x="982" y="1373" on="0"/>
        <pt x="908" y="1382" on="0"/>
        <pt x="853" y="1382" on="1"/>
        <pt x="770" y="1382" on="0"/>
        <pt x="628" y="1307" on="0"/>
        <pt x="523" y="1163" on="0"/>
        <pt x="463" y="952" on="0"/>
        <pt x="463" y="816" on="1"/>
        <pt x="463" y="730" on="0"/>
        <pt x="487" y="563" on="0"/>
        <pt x="534" y="413" on="0"/>
        <pt x="603" y="287" on="0"/>
        <pt x="695" y="195" on="0"/>
        <pt x="809" y="143" on="0"/>
        <pt x="876" y="143" on="1"/>
        <pt x="939" y="143" on="0"/>
        <pt x="1025" y="156" on="0"/>
        <pt x="1080" y="178" on="0"/>
        <pt x="1110" y="207" on="0"/>
        <pt x="1117" y="223" on="1"/>
        <pt x="1199" y="424" on="1"/>
        <pt x="1373" y="424" on="1"/>
        <pt x="1373" y="67" on="1"/>
        <pt x="1335" y="65" on="0"/>
        <pt x="1249" y="35" on="0"/>
        <pt x="1129" y="1" on="0"/>
        <pt x="965" y="-28" on="0"/>
        <pt x="851" y="-28" on="1"/>
        <pt x="659" y="-28" on="0"/>
        <pt x="366" y="89" on="0"/>
        <pt x="169" y="293" on="0"/>
        <pt x="68" y="567" on="0"/>
      </contour>
    </TTGlyph>
    <TTGlyph name="Ccedilla" xMin="63" yMin="-531" xMax="1368" yMax="1567">
      <contour>
        <pt x="63" y="724" on="1"/>
        <pt x="63" y="853" on="0"/>
        <pt x="131" y="1079" on="0"/>
        <pt x="251" y="1266" on="0"/>
        <pt x="416" y="1413" on="0"/>
        <pt x="611" y="1514" on="0"/>
        <pt x="830" y="1567" on="0"/>
        <pt x="943" y="1567" on="1"/>
        <pt x="1019" y="1567" on="0"/>
        <pt x="1145" y="1552" on="0"/>
        <pt x="1249" y="1532" on="0"/>
        <pt x="1332" y="1510" on="0"/>
        <pt x="1367" y="1503" on="1"/>
        <pt x="1347" y="1114" on="1"/>
        <pt x="1137" y="1114" on="1"/>
        <pt x="1064" y="1319" on="1"/>
        <pt x="1054" y="1334" on="0"/>
        <pt x="1025" y="1357" on="0"/>
        <pt x="977" y="1373" on="0"/>
        <pt x="903" y="1382" on="0"/>
        <pt x="848" y="1382" on="1"/>
        <pt x="765" y="1382" on="0"/>
        <pt x="623" y="1307" on="0"/>
        <pt x="518" y="1163" on="0"/>
        <pt x="458" y="952" on="0"/>
        <pt x="458" y="816" on="1"/>
        <pt x="458" y="730" on="0"/>
        <pt x="482" y="563" on="0"/>
        <pt x="529" y="413" on="0"/>
        <pt x="598" y="287" on="0"/>
        <pt x="690" y="195" on="0"/>
        <pt x="804" y="143" on="0"/>
        <pt x="871" y="143" on="1"/>
        <pt x="934" y="143" on="0"/>
        <pt x="1020" y="156" on="0"/>
        <pt x="1075" y="178" on="0"/>
        <pt x="1105" y="207" on="0"/>
        <pt x="1112" y="223" on="1"/>
        <pt x="1194" y="424" on="1"/>
        <pt x="1368" y="424" on="1"/>
        <pt x="1368" y="67" on="1"/>
        <pt x="1335" y="65" on="0"/>
        <pt x="1262" y="42" on="0"/>
        <pt x="1167" y="12" on="0"/>
        <pt x="1043" y="-16" on="0"/>
        <pt x="960" y="-23" on="1"/>
        <pt x="959" y="-49" on="0"/>
        <pt x="963" y="-108" on="0"/>
        <pt x="965" y="-131" on="1"/>
        <pt x="1028" y="-137" on="0"/>
        <pt x="1111" y="-182" on="0"/>
        <pt x="1159" y="-239" on="0"/>
        <pt x="1179" y="-301" on="0"/>
        <pt x="1179" y="-324" on="1"/>
        <pt x="1179" y="-374" on="0"/>
        <pt x="1141" y="-449" on="0"/>
        <pt x="1072" y="-500" on="0"/>
        <pt x="976" y="-528" on="0"/>
        <pt x="918" y="-531" on="1"/>
        <pt x="871" y="-533" on="0"/>
        <pt x="789" y="-528" on="0"/>
        <pt x="722" y="-517" on="0"/>
        <pt x="670" y="-505" on="0"/>
        <pt x="654" y="-501" on="1"/>
        <pt x="654" y="-352" on="1"/>
        <pt x="666" y="-355" on="0"/>
        <pt x="704" y="-360" on="0"/>
        <pt x="742" y="-364" on="0"/>
        <pt x="774" y="-366" on="0"/>
        <pt x="780" y="-366" on="1"/>
        <pt x="812" y="-366" on="0"/>
        <pt x="849" y="-336" on="0"/>
        <pt x="849" y="-310" on="1"/>
        <pt x="849" y="-281" on="0"/>
        <pt x="812" y="-253" on="0"/>
        <pt x="787" y="-253" on="1"/>
        <pt x="781" y="-253" on="0"/>
        <pt x="762" y="-254" on="0"/>
        <pt x="744" y="-255" on="0"/>
        <pt x="730" y="-257" on="0"/>
        <pt x="729" y="-257" on="1"/>
        <pt x="729" y="-238" on="0"/>
        <pt x="736" y="-178" on="0"/>
        <pt x="748" y="-113" on="0"/>
        <pt x="763" y="-49" on="0"/>
        <pt x="771" y="-25" on="1"/>
        <pt x="597" y="-14" on="0"/>
        <pt x="332" y="111" on="0"/>
        <pt x="154" y="312" on="0"/>
        <pt x="63" y="575" on="0"/>
      </contour>
    </TTGlyph>
    <TTGlyph name="D" xMin="90" yMin="-10" xMax="1551" yMax="1567">
      <contour>
        <pt x="90" y="140" on="1"/>
        <pt x="235" y="180" on="1"/>
        <pt x="235" y="1368" on="1"/>
        <pt x="94" y="1389" on="1"/>
        <pt x="94" y="1553" on="1"/>
        <pt x="422" y="1553" on="1"/>
        <pt x="455" y="1553" on="0"/>
        <pt x="536" y="1557" on="0"/>
        <pt x="627" y="1563" on="0"/>
        <pt x="725" y="1567" on="0"/>
        <pt x="773" y="1567" on="1"/>
        <pt x="978" y="1567" on="0"/>
        <pt x="1273" y="1457" on="0"/>
        <pt x="1462" y="1260" on="0"/>
        <pt x="1551" y="986" on="0"/>
        <pt x="1551" y="822" on="1"/>
        <pt x="1551" y="625" on="0"/>
        <pt x="1433" y="316" on="0"/>
        <pt x="1220" y="103" on="0"/>
        <pt x="924" y="-10" on="0"/>
        <pt x="746" y="-10" on="1"/>
        <pt x="708" y="-10" on="0"/>
        <pt x="621" y="-7" on="0"/>
        <pt x="535" y="-2" on="0"/>
        <pt x="457" y="1" on="0"/>
        <pt x="428" y="1" on="1"/>
        <pt x="343" y="1" on="0"/>
        <pt x="175" y="0" on="0"/>
        <pt x="90" y="0" on="1"/>
      </contour>
      <contour>
        <pt x="593" y="179" on="1"/>
        <pt x="630" y="156" on="0"/>
        <pt x="750" y="141" on="0"/>
        <pt x="830" y="149" on="1"/>
        <pt x="905" y="156" on="0"/>
        <pt x="1031" y="248" on="0"/>
        <pt x="1124" y="406" on="0"/>
        <pt x="1176" y="620" on="0"/>
        <pt x="1176" y="748" on="1"/>
        <pt x="1176" y="1077" on="0"/>
        <pt x="963" y="1403" on="0"/>
        <pt x="749" y="1407" on="1"/>
        <pt x="727" y="1407" on="0"/>
        <pt x="681" y="1403" on="0"/>
        <pt x="639" y="1396" on="0"/>
        <pt x="604" y="1385" on="0"/>
        <pt x="593" y="1378" on="1"/>
      </contour>
    </TTGlyph>
    <TTGlyph name="Delta" xMin="209" yMin="1" xMax="1742" yMax="1553">
      <contour>
        <pt x="957" y="1553" on="1"/>
        <pt x="989" y="1553" on="1"/>
        <pt x="1742" y="27" on="1"/>
        <pt x="1726" y="1" on="1"/>
        <pt x="223" y="1" on="1"/>
        <pt x="209" y="22" on="1"/>
      </contour>
      <contour>
        <pt x="1371" y="174" on="1"/>
        <pt x="936" y="1040" on="1"/>
        <pt x="516" y="174" on="1"/>
      </contour>
    </TTGlyph>
    <TTGlyph name="E" xMin="101" yMin="0" xMax="1377" yMax="1553">
      <contour>
        <pt x="101" y="140" on="1"/>
        <pt x="248" y="179" on="1"/>
        <pt x="248" y="1367" on="1"/>
        <pt x="106" y="1389" on="1"/>
        <pt x="106" y="1553" on="1"/>
        <pt x="1241" y="1553" on="1"/>
        <pt x="1272" y="1211" on="1"/>
        <pt x="1067" y="1211" on="1"/>
        <pt x="973" y="1371" on="1"/>
        <pt x="603" y="1392" on="1"/>
        <pt x="603" y="873" on="1"/>
        <pt x="859" y="883" on="1"/>
        <pt x="913" y="1032" on="1"/>
        <pt x="1094" y="1032" on="1"/>
        <pt x="1094" y="544" on="1"/>
        <pt x="913" y="544" on="1"/>
        <pt x="859" y="703" on="1"/>
        <pt x="603" y="709" on="1"/>
        <pt x="603" y="160" on="1"/>
        <pt x="1042" y="188" on="1"/>
        <pt x="1169" y="386" on="1"/>
        <pt x="1377" y="349" on="1"/>
        <pt x="1323" y="0" on="1"/>
        <pt x="101" y="0" on="1"/>
      </contour>
    </TTGlyph>
    <TTGlyph name="Eacute" xMin="101" yMin="0" xMax="1377" yMax="1920">
      <contour>
        <pt x="589" y="1700" on="1"/>
        <pt x="982" y="1920" on="1"/>
        <pt x="1175" y="1728" on="1"/>
        <pt x="1147" y="1707" on="0"/>
        <pt x="1059" y="1670" on="0"/>
        <pt x="959" y="1639" on="0"/>
        <pt x="855" y="1616" on="0"/>
        <pt x="766" y="1600" on="0"/>
        <pt x="701" y="1592" on="0"/>
        <pt x="690" y="1593" on="1"/>
      </contour>
      <contour>
        <pt x="101" y="140" on="1"/>
        <pt x="248" y="179" on="1"/>
        <pt x="248" y="1367" on="1"/>
        <pt x="106" y="1389" on="1"/>
        <pt x="106" y="1553" on="1"/>
        <pt x="1241" y="1553" on="1"/>
        <pt x="1272" y="1211" on="1"/>
        <pt x="1067" y="1211" on="1"/>
        <pt x="973" y="1371" on="1"/>
        <pt x="603" y="1392" on="1"/>
        <pt x="603" y="873" on="1"/>
        <pt x="859" y="883" on="1"/>
        <pt x="913" y="1032" on="1"/>
        <pt x="1094" y="1032" on="1"/>
        <pt x="1094" y="544" on="1"/>
        <pt x="913" y="544" on="1"/>
        <pt x="859" y="703" on="1"/>
        <pt x="603" y="709" on="1"/>
        <pt x="603" y="160" on="1"/>
        <pt x="1042" y="188" on="1"/>
        <pt x="1169" y="386" on="1"/>
        <pt x="1377" y="349" on="1"/>
        <pt x="1323" y="0" on="1"/>
        <pt x="101" y="0" on="1"/>
      </contour>
    </TTGlyph>
    <TTGlyph name="Ecircumflex" xMin="101" yMin="0" xMax="1377" yMax="1920">
      <contour>
        <pt x="352" y="1670" on="1"/>
        <pt x="627" y="1920" on="1"/>
        <pt x="859" y="1920" on="1"/>
        <pt x="1129" y="1670" on="1"/>
        <pt x="1017" y="1597" on="1"/>
        <pt x="745" y="1726" on="1"/>
        <pt x="463" y="1597" on="1"/>
      </contour>
      <contour>
        <pt x="101" y="140" on="1"/>
        <pt x="248" y="179" on="1"/>
        <pt x="248" y="1367" on="1"/>
        <pt x="106" y="1389" on="1"/>
        <pt x="106" y="1553" on="1"/>
        <pt x="1241" y="1553" on="1"/>
        <pt x="1272" y="1211" on="1"/>
        <pt x="1067" y="1211" on="1"/>
        <pt x="973" y="1371" on="1"/>
        <pt x="603" y="1392" on="1"/>
        <pt x="603" y="873" on="1"/>
        <pt x="859" y="883" on="1"/>
        <pt x="913" y="1032" on="1"/>
        <pt x="1094" y="1032" on="1"/>
        <pt x="1094" y="544" on="1"/>
        <pt x="913" y="544" on="1"/>
        <pt x="859" y="703" on="1"/>
        <pt x="603" y="709" on="1"/>
        <pt x="603" y="160" on="1"/>
        <pt x="1042" y="188" on="1"/>
        <pt x="1169" y="386" on="1"/>
        <pt x="1377" y="349" on="1"/>
        <pt x="1323" y="0" on="1"/>
        <pt x="101" y="0" on="1"/>
      </contour>
    </TTGlyph>
    <TTGlyph name="Edieresis" xMin="101" yMin="0" xMax="1377" yMax="1920">
      <contour>
        <pt x="1002" y="1619" on="1"/>
        <pt x="967" y="1619" on="0"/>
        <pt x="902" y="1637" on="0"/>
        <pt x="851" y="1673" on="0"/>
        <pt x="821" y="1725" on="0"/>
        <pt x="821" y="1759" on="1"/>
        <pt x="821" y="1794" on="0"/>
        <pt x="857" y="1853" on="0"/>
        <pt x="916" y="1896" on="0"/>
        <pt x="990" y="1920" on="0"/>
        <pt x="1028" y="1920" on="1"/>
        <pt x="1077" y="1920" on="0"/>
        <pt x="1145" y="1899" on="0"/>
        <pt x="1187" y="1862" on="0"/>
        <pt x="1206" y="1811" on="0"/>
        <pt x="1206" y="1782" on="1"/>
        <pt x="1206" y="1744" on="0"/>
        <pt x="1172" y="1684" on="0"/>
        <pt x="1116" y="1642" on="0"/>
        <pt x="1042" y="1619" on="0"/>
      </contour>
      <contour>
        <pt x="454" y="1618" on="1"/>
        <pt x="418" y="1618" on="0"/>
        <pt x="354" y="1636" on="0"/>
        <pt x="305" y="1671" on="0"/>
        <pt x="277" y="1723" on="0"/>
        <pt x="277" y="1756" on="1"/>
        <pt x="277" y="1792" on="0"/>
        <pt x="312" y="1852" on="0"/>
        <pt x="370" y="1896" on="0"/>
        <pt x="443" y="1920" on="0"/>
        <pt x="482" y="1920" on="1"/>
        <pt x="531" y="1920" on="0"/>
        <pt x="600" y="1898" on="0"/>
        <pt x="645" y="1861" on="0"/>
        <pt x="666" y="1810" on="0"/>
        <pt x="666" y="1780" on="1"/>
        <pt x="666" y="1743" on="0"/>
        <pt x="631" y="1683" on="0"/>
        <pt x="572" y="1641" on="0"/>
        <pt x="495" y="1618" on="0"/>
      </contour>
      <contour>
        <pt x="101" y="140" on="1"/>
        <pt x="248" y="179" on="1"/>
        <pt x="248" y="1367" on="1"/>
        <pt x="106" y="1389" on="1"/>
        <pt x="106" y="1553" on="1"/>
        <pt x="1241" y="1553" on="1"/>
        <pt x="1272" y="1211" on="1"/>
        <pt x="1067" y="1211" on="1"/>
        <pt x="973" y="1371" on="1"/>
        <pt x="603" y="1392" on="1"/>
        <pt x="603" y="873" on="1"/>
        <pt x="859" y="883" on="1"/>
        <pt x="913" y="1032" on="1"/>
        <pt x="1094" y="1032" on="1"/>
        <pt x="1094" y="544" on="1"/>
        <pt x="913" y="544" on="1"/>
        <pt x="859" y="703" on="1"/>
        <pt x="603" y="709" on="1"/>
        <pt x="603" y="160" on="1"/>
        <pt x="1042" y="188" on="1"/>
        <pt x="1169" y="386" on="1"/>
        <pt x="1377" y="349" on="1"/>
        <pt x="1323" y="0" on="1"/>
        <pt x="101" y="0" on="1"/>
      </contour>
    </TTGlyph>
    <TTGlyph name="Egrave" xMin="101" yMin="0" xMax="1377" yMax="1920">
      <contour>
        <pt x="512" y="1920" on="1"/>
        <pt x="885" y="1700" on="1"/>
        <pt x="784" y="1593" on="1"/>
        <pt x="773" y="1592" on="0"/>
        <pt x="711" y="1600" on="0"/>
        <pt x="626" y="1616" on="0"/>
        <pt x="528" y="1639" on="0"/>
        <pt x="432" y="1670" on="0"/>
        <pt x="347" y="1707" on="0"/>
        <pt x="319" y="1728" on="1"/>
      </contour>
      <contour>
        <pt x="101" y="140" on="1"/>
        <pt x="248" y="179" on="1"/>
        <pt x="248" y="1367" on="1"/>
        <pt x="106" y="1389" on="1"/>
        <pt x="106" y="1553" on="1"/>
        <pt x="1241" y="1553" on="1"/>
        <pt x="1272" y="1211" on="1"/>
        <pt x="1067" y="1211" on="1"/>
        <pt x="973" y="1371" on="1"/>
        <pt x="603" y="1392" on="1"/>
        <pt x="603" y="873" on="1"/>
        <pt x="859" y="883" on="1"/>
        <pt x="913" y="1032" on="1"/>
        <pt x="1094" y="1032" on="1"/>
        <pt x="1094" y="544" on="1"/>
        <pt x="913" y="544" on="1"/>
        <pt x="859" y="703" on="1"/>
        <pt x="603" y="709" on="1"/>
        <pt x="603" y="160" on="1"/>
        <pt x="1042" y="188" on="1"/>
        <pt x="1169" y="386" on="1"/>
        <pt x="1377" y="349" on="1"/>
        <pt x="1323" y="0" on="1"/>
        <pt x="101" y="0" on="1"/>
      </contour>
    </TTGlyph>
    <TTGlyph name="Eogonek" xMin="101" yMin="-514" xMax="1377" yMax="1553">
      <contour>
        <pt x="101" y="140" on="1"/>
        <pt x="248" y="179" on="1"/>
        <pt x="248" y="1367" on="1"/>
        <pt x="106" y="1389" on="1"/>
        <pt x="106" y="1553" on="1"/>
        <pt x="1241" y="1553" on="1"/>
        <pt x="1272" y="1211" on="1"/>
        <pt x="1067" y="1211" on="1"/>
        <pt x="973" y="1371" on="1"/>
        <pt x="603" y="1392" on="1"/>
        <pt x="603" y="873" on="1"/>
        <pt x="859" y="883" on="1"/>
        <pt x="913" y="1032" on="1"/>
        <pt x="1094" y="1032" on="1"/>
        <pt x="1094" y="544" on="1"/>
        <pt x="913" y="544" on="1"/>
        <pt x="859" y="703" on="1"/>
        <pt x="603" y="709" on="1"/>
        <pt x="603" y="160" on="1"/>
        <pt x="1042" y="188" on="1"/>
        <pt x="1169" y="386" on="1"/>
        <pt x="1377" y="349" on="1"/>
        <pt x="1323" y="0" on="1"/>
        <pt x="1283" y="0" on="1"/>
        <pt x="1227" y="-19" on="0"/>
        <pt x="1128" y="-70" on="0"/>
        <pt x="1053" y="-124" on="0"/>
        <pt x="1004" y="-176" on="0"/>
        <pt x="997" y="-195" on="1"/>
        <pt x="985" y="-229" on="0"/>
        <pt x="990" y="-270" on="0"/>
        <pt x="1011" y="-291" on="0"/>
        <pt x="1044" y="-298" on="0"/>
        <pt x="1061" y="-298" on="1"/>
        <pt x="1090" y="-299" on="0"/>
        <pt x="1152" y="-290" on="0"/>
        <pt x="1213" y="-274" on="0"/>
        <pt x="1272" y="-254" on="0"/>
        <pt x="1299" y="-244" on="1"/>
        <pt x="1334" y="-378" on="1"/>
        <pt x="1235" y="-449" on="0"/>
        <pt x="1011" y="-514" on="0"/>
        <pt x="880" y="-514" on="1"/>
        <pt x="822" y="-514" on="0"/>
        <pt x="743" y="-484" on="0"/>
        <pt x="693" y="-438" on="0"/>
        <pt x="669" y="-380" on="0"/>
        <pt x="667" y="-351" on="1"/>
        <pt x="665" y="-315" on="0"/>
        <pt x="713" y="-221" on="0"/>
        <pt x="808" y="-123" on="0"/>
        <pt x="948" y="-32" on="0"/>
        <pt x="1039" y="0" on="1"/>
        <pt x="101" y="0" on="1"/>
      </contour>
    </TTGlyph>
    <TTGlyph name="Eth" xMin="49" yMin="-10" xMax="1551" yMax="1567">
      <contour>
        <pt x="90" y="140" on="1"/>
        <pt x="235" y="180" on="1"/>
        <pt x="235" y="704" on="1"/>
        <pt x="49" y="704" on="1"/>
        <pt x="49" y="911" on="1"/>
        <pt x="235" y="911" on="1"/>
        <pt x="235" y="1368" on="1"/>
        <pt x="94" y="1389" on="1"/>
        <pt x="94" y="1553" on="1"/>
        <pt x="422" y="1553" on="1"/>
        <pt x="455" y="1553" on="0"/>
        <pt x="536" y="1557" on="0"/>
        <pt x="627" y="1563" on="0"/>
        <pt x="725" y="1567" on="0"/>
        <pt x="773" y="1567" on="1"/>
        <pt x="978" y="1567" on="0"/>
        <pt x="1273" y="1457" on="0"/>
        <pt x="1462" y="1260" on="0"/>
        <pt x="1551" y="986" on="0"/>
        <pt x="1551" y="822" on="1"/>
        <pt x="1551" y="625" on="0"/>
        <pt x="1433" y="316" on="0"/>
        <pt x="1220" y="103" on="0"/>
        <pt x="924" y="-10" on="0"/>
        <pt x="746" y="-10" on="1"/>
        <pt x="708" y="-10" on="0"/>
        <pt x="621" y="-7" on="0"/>
        <pt x="535" y="-2" on="0"/>
        <pt x="457" y="1" on="0"/>
        <pt x="428" y="1" on="1"/>
        <pt x="343" y="1" on="0"/>
        <pt x="175" y="0" on="0"/>
        <pt x="90" y="0" on="1"/>
      </contour>
      <contour>
        <pt x="593" y="179" on="1"/>
        <pt x="630" y="156" on="0"/>
        <pt x="750" y="141" on="0"/>
        <pt x="830" y="149" on="1"/>
        <pt x="905" y="156" on="0"/>
        <pt x="1031" y="248" on="0"/>
        <pt x="1124" y="406" on="0"/>
        <pt x="1176" y="620" on="0"/>
        <pt x="1176" y="748" on="1"/>
        <pt x="1176" y="1077" on="0"/>
        <pt x="963" y="1403" on="0"/>
        <pt x="749" y="1407" on="1"/>
        <pt x="727" y="1407" on="0"/>
        <pt x="681" y="1403" on="0"/>
        <pt x="639" y="1396" on="0"/>
        <pt x="604" y="1385" on="0"/>
        <pt x="593" y="1378" on="1"/>
        <pt x="593" y="911" on="1"/>
        <pt x="867" y="911" on="1"/>
        <pt x="867" y="704" on="1"/>
        <pt x="593" y="704" on="1"/>
      </contour>
    </TTGlyph>
    <TTGlyph name="Euro" xMin="87" yMin="-28" xMax="1508" yMax="1567">
      <contour>
        <pt x="87" y="691" on="1"/>
        <pt x="266" y="691" on="1"/>
        <pt x="266" y="714" on="1"/>
        <pt x="266" y="756" on="0"/>
        <pt x="272" y="841" on="0"/>
        <pt x="279" y="885" on="1"/>
        <pt x="117" y="885" on="1"/>
        <pt x="117" y="1056" on="1"/>
        <pt x="319" y="1056" on="1"/>
        <pt x="353" y="1159" on="0"/>
        <pt x="472" y="1345" on="0"/>
        <pt x="651" y="1485" on="0"/>
        <pt x="892" y="1567" on="0"/>
        <pt x="1050" y="1567" on="1"/>
        <pt x="1132" y="1567" on="0"/>
        <pt x="1264" y="1537" on="0"/>
        <pt x="1373" y="1505" on="0"/>
        <pt x="1465" y="1485" on="0"/>
        <pt x="1508" y="1496" on="1"/>
        <pt x="1490" y="1118" on="1"/>
        <pt x="1332" y="1118" on="1"/>
        <pt x="1260" y="1308" on="1"/>
        <pt x="1212" y="1346" on="0"/>
        <pt x="1078" y="1385" on="0"/>
        <pt x="996" y="1385" on="1"/>
        <pt x="917" y="1385" on="0"/>
        <pt x="806" y="1340" on="0"/>
        <pt x="731" y="1254" on="0"/>
        <pt x="689" y="1132" on="0"/>
        <pt x="679" y="1056" on="1"/>
        <pt x="1122" y="1056" on="1"/>
        <pt x="1122" y="885" on="1"/>
        <pt x="666" y="885" on="1"/>
        <pt x="665" y="856" on="0"/>
        <pt x="665" y="797" on="0"/>
        <pt x="665" y="766" on="1"/>
        <pt x="665" y="746" on="0"/>
        <pt x="665" y="709" on="0"/>
        <pt x="666" y="691" on="1"/>
        <pt x="1104" y="691" on="1"/>
        <pt x="1104" y="524" on="1"/>
        <pt x="679" y="524" on="1"/>
        <pt x="691" y="438" on="0"/>
        <pt x="741" y="299" on="0"/>
        <pt x="826" y="200" on="0"/>
        <pt x="952" y="146" on="0"/>
        <pt x="1040" y="145" on="1"/>
        <pt x="1093" y="144" on="0"/>
        <pt x="1167" y="163" on="0"/>
        <pt x="1193" y="178" on="1"/>
        <pt x="1225" y="197" on="0"/>
        <pt x="1265" y="254" on="0"/>
        <pt x="1291" y="322" on="0"/>
        <pt x="1310" y="393" on="0"/>
        <pt x="1321" y="425" on="1"/>
        <pt x="1507" y="425" on="1"/>
        <pt x="1507" y="63" on="1"/>
        <pt x="1471" y="70" on="0"/>
        <pt x="1411" y="61" on="0"/>
        <pt x="1349" y="41" on="0"/>
        <pt x="1280" y="14" on="0"/>
        <pt x="1189" y="-11" on="0"/>
        <pt x="1070" y="-28" on="0"/>
        <pt x="990" y="-28" on="1"/>
        <pt x="851" y="-28" on="0"/>
        <pt x="616" y="50" on="0"/>
        <pt x="435" y="194" on="0"/>
        <pt x="312" y="398" on="0"/>
        <pt x="285" y="524" on="1"/>
        <pt x="87" y="524" on="1"/>
      </contour>
    </TTGlyph>
    <TTGlyph name="F" xMin="80" yMin="0" xMax="1258" yMax="1553">
      <contour>
        <pt x="85" y="140" on="1"/>
        <pt x="235" y="173" on="1"/>
        <pt x="235" y="1369" on="1"/>
        <pt x="80" y="1389" on="1"/>
        <pt x="80" y="1553" on="1"/>
        <pt x="1226" y="1553" on="1"/>
        <pt x="1258" y="1205" on="1"/>
        <pt x="1081" y="1203" on="1"/>
        <pt x="1010" y="1356" on="1"/>
        <pt x="590" y="1379" on="1"/>
        <pt x="590" y="855" on="1"/>
        <pt x="879" y="867" on="1"/>
        <pt x="944" y="1020" on="1"/>
        <pt x="1094" y="1020" on="1"/>
        <pt x="1094" y="509" on="1"/>
        <pt x="928" y="509" on="1"/>
        <pt x="883" y="673" on="1"/>
        <pt x="591" y="678" on="1"/>
        <pt x="591" y="187" on="1"/>
        <pt x="912" y="159" on="1"/>
        <pt x="912" y="0" on="1"/>
        <pt x="85" y="0" on="1"/>
      </contour>
    </TTGlyph>
    <TTGlyph name="G" xMin="65" yMin="-28" xMax="1509" yMax="1567">
      <contour>
        <pt x="65" y="748" on="1"/>
        <pt x="65" y="941" on="0"/>
        <pt x="189" y="1246" on="0"/>
        <pt x="410" y="1456" on="0"/>
        <pt x="713" y="1567" on="0"/>
        <pt x="893" y="1567" on="1"/>
        <pt x="993" y="1567" on="0"/>
        <pt x="1164" y="1554" on="0"/>
        <pt x="1297" y="1536" on="0"/>
        <pt x="1385" y="1517" on="0"/>
        <pt x="1402" y="1511" on="1"/>
        <pt x="1380" y="1170" on="1"/>
        <pt x="1200" y="1170" on="1"/>
        <pt x="1108" y="1349" on="1"/>
        <pt x="1104" y="1355" on="0"/>
        <pt x="1070" y="1376" on="0"/>
        <pt x="1010" y="1395" on="0"/>
        <pt x="926" y="1410" on="0"/>
        <pt x="872" y="1410" on="1"/>
        <pt x="771" y="1410" on="0"/>
        <pt x="615" y="1321" on="0"/>
        <pt x="507" y="1164" on="0"/>
        <pt x="451" y="951" on="0"/>
        <pt x="451" y="828" on="1"/>
        <pt x="451" y="738" on="0"/>
        <pt x="469" y="564" on="0"/>
        <pt x="507" y="409" on="0"/>
        <pt x="569" y="279" on="0"/>
        <pt x="656" y="184" on="0"/>
        <pt x="771" y="131" on="0"/>
        <pt x="844" y="131" on="1"/>
        <pt x="892" y="131" on="0"/>
        <pt x="982" y="153" on="0"/>
        <pt x="1053" y="189" on="0"/>
        <pt x="1099" y="234" on="0"/>
        <pt x="1102" y="258" on="1"/>
        <pt x="1102" y="515" on="1"/>
        <pt x="891" y="542" on="1"/>
        <pt x="891" y="708" on="1"/>
        <pt x="1509" y="708" on="1"/>
        <pt x="1509" y="542" on="1"/>
        <pt x="1415" y="519" on="1"/>
        <pt x="1415" y="54" on="1"/>
        <pt x="1350" y="62" on="0"/>
        <pt x="1203" y="38" on="0"/>
        <pt x="1042" y="4" on="0"/>
        <pt x="869" y="-28" on="0"/>
        <pt x="780" y="-28" on="1"/>
        <pt x="615" y="-28" on="0"/>
        <pt x="351" y="92" on="0"/>
        <pt x="165" y="302" on="0"/>
        <pt x="65" y="585" on="0"/>
      </contour>
    </TTGlyph>
    <TTGlyph name="H" xMin="59" yMin="0" xMax="1730" yMax="1553">
      <contour>
        <pt x="65" y="140" on="1"/>
        <pt x="235" y="182" on="1"/>
        <pt x="235" y="1366" on="1"/>
        <pt x="59" y="1389" on="1"/>
        <pt x="59" y="1553" on="1"/>
        <pt x="766" y="1553" on="1"/>
        <pt x="766" y="1389" on="1"/>
        <pt x="593" y="1367" on="1"/>
        <pt x="593" y="882" on="1"/>
        <pt x="1188" y="882" on="1"/>
        <pt x="1188" y="1370" on="1"/>
        <pt x="1019" y="1389" on="1"/>
        <pt x="1019" y="1553" on="1"/>
        <pt x="1720" y="1553" on="1"/>
        <pt x="1720" y="1389" on="1"/>
        <pt x="1545" y="1368" on="1"/>
        <pt x="1545" y="181" on="1"/>
        <pt x="1730" y="138" on="1"/>
        <pt x="1730" y="0" on="1"/>
        <pt x="1005" y="0" on="1"/>
        <pt x="1005" y="138" on="1"/>
        <pt x="1188" y="180" on="1"/>
        <pt x="1188" y="691" on="1"/>
        <pt x="593" y="691" on="1"/>
        <pt x="593" y="182" on="1"/>
        <pt x="777" y="140" on="1"/>
        <pt x="777" y="0" on="1"/>
        <pt x="65" y="0" on="1"/>
      </contour>
    </TTGlyph>
    <TTGlyph name="I" xMin="55" yMin="0" xMax="793" yMax="1553">
      <contour>
        <pt x="55" y="140" on="1"/>
        <pt x="243" y="181" on="1"/>
        <pt x="243" y="1365" on="1"/>
        <pt x="55" y="1389" on="1"/>
        <pt x="55" y="1553" on="1"/>
        <pt x="782" y="1553" on="1"/>
        <pt x="782" y="1389" on="1"/>
        <pt x="604" y="1364" on="1"/>
        <pt x="604" y="183" on="1"/>
        <pt x="793" y="140" on="1"/>
        <pt x="793" y="0" on="1"/>
        <pt x="55" y="0" on="1"/>
      </contour>
    </TTGlyph>
    <TTGlyph name="IJ" xMin="55" yMin="-396" xMax="1584" yMax="1553">
      <contour>
        <pt x="736" y="-295" on="1"/>
        <pt x="785" y="-276" on="0"/>
        <pt x="874" y="-230" on="0"/>
        <pt x="949" y="-170" on="0"/>
        <pt x="1009" y="-95" on="0"/>
        <pt x="1030" y="-47" on="1"/>
        <pt x="1046" y="-3" on="0"/>
        <pt x="1065" y="92" on="0"/>
        <pt x="1076" y="202" on="0"/>
        <pt x="1080" y="329" on="0"/>
        <pt x="1080" y="406" on="1"/>
        <pt x="1080" y="1367" on="1"/>
        <pt x="932" y="1389" on="1"/>
        <pt x="932" y="1553" on="1"/>
        <pt x="1584" y="1553" on="1"/>
        <pt x="1584" y="1389" on="1"/>
        <pt x="1441" y="1366" on="1"/>
        <pt x="1441" y="534" on="1"/>
        <pt x="1441" y="445" on="0"/>
        <pt x="1434" y="270" on="0"/>
        <pt x="1419" y="117" on="0"/>
        <pt x="1396" y="-5" on="0"/>
        <pt x="1381" y="-41" on="1"/>
        <pt x="1355" y="-101" on="0"/>
        <pt x="1275" y="-199" on="0"/>
        <pt x="1177" y="-277" on="0"/>
        <pt x="1067" y="-335" on="0"/>
        <pt x="957" y="-374" on="0"/>
        <pt x="851" y="-395" on="0"/>
        <pt x="806" y="-396" on="1"/>
      </contour>
      <contour>
        <pt x="55" y="140" on="1"/>
        <pt x="243" y="181" on="1"/>
        <pt x="243" y="1365" on="1"/>
        <pt x="55" y="1389" on="1"/>
        <pt x="55" y="1553" on="1"/>
        <pt x="782" y="1553" on="1"/>
        <pt x="782" y="1389" on="1"/>
        <pt x="604" y="1364" on="1"/>
        <pt x="604" y="183" on="1"/>
        <pt x="793" y="140" on="1"/>
        <pt x="793" y="0" on="1"/>
        <pt x="55" y="0" on="1"/>
      </contour>
    </TTGlyph>
    <TTGlyph name="Iacute" xMin="55" yMin="0" xMax="851" yMax="1920">
      <contour>
        <pt x="265" y="1700" on="1"/>
        <pt x="658" y="1920" on="1"/>
        <pt x="851" y="1728" on="1"/>
        <pt x="823" y="1707" on="0"/>
        <pt x="735" y="1670" on="0"/>
        <pt x="635" y="1639" on="0"/>
        <pt x="531" y="1616" on="0"/>
        <pt x="442" y="1600" on="0"/>
        <pt x="377" y="1592" on="0"/>
        <pt x="366" y="1593" on="1"/>
      </contour>
      <contour>
        <pt x="55" y="140" on="1"/>
        <pt x="243" y="181" on="1"/>
        <pt x="243" y="1365" on="1"/>
        <pt x="55" y="1389" on="1"/>
        <pt x="55" y="1553" on="1"/>
        <pt x="782" y="1553" on="1"/>
        <pt x="782" y="1389" on="1"/>
        <pt x="604" y="1364" on="1"/>
        <pt x="604" y="183" on="1"/>
        <pt x="793" y="140" on="1"/>
        <pt x="793" y="0" on="1"/>
        <pt x="55" y="0" on="1"/>
      </contour>
    </TTGlyph>
    <TTGlyph name="Icircumflex" xMin="28" yMin="0" xMax="805" yMax="1920">
      <contour>
        <pt x="28" y="1670" on="1"/>
        <pt x="303" y="1920" on="1"/>
        <pt x="535" y="1920" on="1"/>
        <pt x="805" y="1670" on="1"/>
        <pt x="693" y="1597" on="1"/>
        <pt x="421" y="1726" on="1"/>
        <pt x="139" y="1597" on="1"/>
      </contour>
      <contour>
        <pt x="55" y="140" on="1"/>
        <pt x="243" y="181" on="1"/>
        <pt x="243" y="1365" on="1"/>
        <pt x="55" y="1389" on="1"/>
        <pt x="55" y="1553" on="1"/>
        <pt x="782" y="1553" on="1"/>
        <pt x="782" y="1389" on="1"/>
        <pt x="604" y="1364" on="1"/>
        <pt x="604" y="183" on="1"/>
        <pt x="793" y="140" on="1"/>
        <pt x="793" y="0" on="1"/>
        <pt x="55" y="0" on="1"/>
      </contour>
    </TTGlyph>
    <TTGlyph name="Idieresis" xMin="-47" yMin="0" xMax="882" yMax="1920">
      <contour>
        <pt x="678" y="1619" on="1"/>
        <pt x="643" y="1619" on="0"/>
        <pt x="578" y="1637" on="0"/>
        <pt x="527" y="1673" on="0"/>
        <pt x="497" y="1725" on="0"/>
        <pt x="497" y="1759" on="1"/>
        <pt x="497" y="1794" on="0"/>
        <pt x="533" y="1853" on="0"/>
        <pt x="592" y="1896" on="0"/>
        <pt x="666" y="1920" on="0"/>
        <pt x="704" y="1920" on="1"/>
        <pt x="753" y="1920" on="0"/>
        <pt x="821" y="1899" on="0"/>
        <pt x="863" y="1862" on="0"/>
        <pt x="882" y="1811" on="0"/>
        <pt x="882" y="1782" on="1"/>
        <pt x="882" y="1744" on="0"/>
        <pt x="848" y="1684" on="0"/>
        <pt x="792" y="1642" on="0"/>
        <pt x="718" y="1619" on="0"/>
      </contour>
      <contour>
        <pt x="130" y="1618" on="1"/>
        <pt x="94" y="1618" on="0"/>
        <pt x="30" y="1636" on="0"/>
        <pt x="-19" y="1671" on="0"/>
        <pt x="-47" y="1723" on="0"/>
        <pt x="-47" y="1756" on="1"/>
        <pt x="-47" y="1792" on="0"/>
        <pt x="-12" y="1852" on="0"/>
        <pt x="46" y="1896" on="0"/>
        <pt x="119" y="1920" on="0"/>
        <pt x="158" y="1920" on="1"/>
        <pt x="207" y="1920" on="0"/>
        <pt x="276" y="1898" on="0"/>
        <pt x="321" y="1861" on="0"/>
        <pt x="342" y="1810" on="0"/>
        <pt x="342" y="1780" on="1"/>
        <pt x="342" y="1743" on="0"/>
        <pt x="307" y="1683" on="0"/>
        <pt x="248" y="1641" on="0"/>
        <pt x="171" y="1618" on="0"/>
      </contour>
      <contour>
        <pt x="55" y="140" on="1"/>
        <pt x="243" y="181" on="1"/>
        <pt x="243" y="1365" on="1"/>
        <pt x="55" y="1389" on="1"/>
        <pt x="55" y="1553" on="1"/>
        <pt x="782" y="1553" on="1"/>
        <pt x="782" y="1389" on="1"/>
        <pt x="604" y="1364" on="1"/>
        <pt x="604" y="183" on="1"/>
        <pt x="793" y="140" on="1"/>
        <pt x="793" y="0" on="1"/>
        <pt x="55" y="0" on="1"/>
      </contour>
    </TTGlyph>
    <TTGlyph name="Igrave" xMin="-5" yMin="0" xMax="793" yMax="1920">
      <contour>
        <pt x="460" y="1593" on="1"/>
        <pt x="449" y="1592" on="0"/>
        <pt x="387" y="1600" on="0"/>
        <pt x="302" y="1616" on="0"/>
        <pt x="204" y="1639" on="0"/>
        <pt x="108" y="1670" on="0"/>
        <pt x="23" y="1707" on="0"/>
        <pt x="-5" y="1728" on="1"/>
        <pt x="188" y="1920" on="1"/>
        <pt x="561" y="1700" on="1"/>
      </contour>
      <contour>
        <pt x="55" y="140" on="1"/>
        <pt x="243" y="181" on="1"/>
        <pt x="243" y="1365" on="1"/>
        <pt x="55" y="1389" on="1"/>
        <pt x="55" y="1553" on="1"/>
        <pt x="782" y="1553" on="1"/>
        <pt x="782" y="1389" on="1"/>
        <pt x="604" y="1364" on="1"/>
        <pt x="604" y="183" on="1"/>
        <pt x="793" y="140" on="1"/>
        <pt x="793" y="0" on="1"/>
        <pt x="55" y="0" on="1"/>
      </contour>
    </TTGlyph>
    <TTGlyph name="Itilde" xMin="-10" yMin="0" xMax="846" yMax="1920">
      <contour>
        <pt x="-10" y="1712" on="1"/>
        <pt x="6" y="1756" on="0"/>
        <pt x="81" y="1832" on="0"/>
        <pt x="171" y="1888" on="0"/>
        <pt x="263" y="1920" on="0"/>
        <pt x="298" y="1920" on="1"/>
        <pt x="353" y="1920" on="0"/>
        <pt x="434" y="1889" on="0"/>
        <pt x="501" y="1851" on="0"/>
        <pt x="559" y="1820" on="0"/>
        <pt x="591" y="1820" on="1"/>
        <pt x="645" y="1820" on="0"/>
        <pt x="724" y="1862" on="0"/>
        <pt x="757" y="1891" on="1"/>
        <pt x="846" y="1794" on="1"/>
        <pt x="829" y="1750" on="0"/>
        <pt x="757" y="1679" on="0"/>
        <pt x="670" y="1629" on="0"/>
        <pt x="580" y="1603" on="0"/>
        <pt x="545" y="1603" on="1"/>
        <pt x="491" y="1603" on="0"/>
        <pt x="407" y="1635" on="0"/>
        <pt x="338" y="1674" on="0"/>
        <pt x="277" y="1706" on="0"/>
        <pt x="245" y="1706" on="1"/>
        <pt x="200" y="1706" on="0"/>
        <pt x="112" y="1663" on="0"/>
        <pt x="77" y="1634" on="1"/>
      </contour>
      <contour>
        <pt x="55" y="140" on="1"/>
        <pt x="243" y="181" on="1"/>
        <pt x="243" y="1365" on="1"/>
        <pt x="55" y="1389" on="1"/>
        <pt x="55" y="1553" on="1"/>
        <pt x="782" y="1553" on="1"/>
        <pt x="782" y="1389" on="1"/>
        <pt x="604" y="1364" on="1"/>
        <pt x="604" y="183" on="1"/>
        <pt x="793" y="140" on="1"/>
        <pt x="793" y="0" on="1"/>
        <pt x="55" y="0" on="1"/>
      </contour>
    </TTGlyph>
    <TTGlyph name="J" xMin="-112" yMin="-396" xMax="736" yMax="1553">
      <contour>
        <pt x="182" y="-47" on="1"/>
        <pt x="198" y="-3" on="0"/>
        <pt x="217" y="92" on="0"/>
        <pt x="228" y="202" on="0"/>
        <pt x="232" y="329" on="0"/>
        <pt x="232" y="406" on="1"/>
        <pt x="232" y="1367" on="1"/>
        <pt x="84" y="1389" on="1"/>
        <pt x="84" y="1553" on="1"/>
        <pt x="736" y="1553" on="1"/>
        <pt x="736" y="1389" on="1"/>
        <pt x="593" y="1366" on="1"/>
        <pt x="593" y="534" on="1"/>
        <pt x="593" y="445" on="0"/>
        <pt x="586" y="270" on="0"/>
        <pt x="571" y="117" on="0"/>
        <pt x="548" y="-5" on="0"/>
        <pt x="533" y="-41" on="1"/>
        <pt x="507" y="-101" on="0"/>
        <pt x="427" y="-199" on="0"/>
        <pt x="329" y="-277" on="0"/>
        <pt x="219" y="-335" on="0"/>
        <pt x="109" y="-374" on="0"/>
        <pt x="3" y="-395" on="0"/>
        <pt x="-42" y="-396" on="1"/>
        <pt x="-112" y="-295" on="1"/>
        <pt x="-63" y="-276" on="0"/>
        <pt x="26" y="-230" on="0"/>
        <pt x="101" y="-170" on="0"/>
        <pt x="161" y="-95" on="0"/>
      </contour>
    </TTGlyph>
    <TTGlyph name="Jcircumflex" xMin="-117" yMin="-396" xMax="794" yMax="1920">
      <contour>
        <pt x="17" y="1670" on="1"/>
        <pt x="292" y="1920" on="1"/>
        <pt x="524" y="1920" on="1"/>
        <pt x="794" y="1670" on="1"/>
        <pt x="682" y="1597" on="1"/>
        <pt x="410" y="1726" on="1"/>
        <pt x="128" y="1597" on="1"/>
      </contour>
      <contour>
        <pt x="177" y="-47" on="1"/>
        <pt x="193" y="-3" on="0"/>
        <pt x="212" y="92" on="0"/>
        <pt x="223" y="202" on="0"/>
        <pt x="227" y="329" on="0"/>
        <pt x="227" y="406" on="1"/>
        <pt x="227" y="1367" on="1"/>
        <pt x="79" y="1389" on="1"/>
        <pt x="79" y="1553" on="1"/>
        <pt x="731" y="1553" on="1"/>
        <pt x="731" y="1389" on="1"/>
        <pt x="588" y="1366" on="1"/>
        <pt x="588" y="534" on="1"/>
        <pt x="588" y="445" on="0"/>
        <pt x="581" y="270" on="0"/>
        <pt x="566" y="117" on="0"/>
        <pt x="543" y="-5" on="0"/>
        <pt x="528" y="-41" on="1"/>
        <pt x="502" y="-101" on="0"/>
        <pt x="422" y="-199" on="0"/>
        <pt x="324" y="-277" on="0"/>
        <pt x="214" y="-335" on="0"/>
        <pt x="104" y="-374" on="0"/>
        <pt x="-2" y="-395" on="0"/>
        <pt x="-47" y="-396" on="1"/>
        <pt x="-117" y="-295" on="1"/>
        <pt x="-68" y="-276" on="0"/>
        <pt x="21" y="-230" on="0"/>
        <pt x="96" y="-170" on="0"/>
        <pt x="156" y="-95" on="0"/>
      </contour>
    </TTGlyph>
    <TTGlyph name="K" xMin="43" yMin="0" xMax="1545" yMax="1553">
      <contour>
        <pt x="46" y="140" on="1"/>
        <pt x="235" y="183" on="1"/>
        <pt x="235" y="1364" on="1"/>
        <pt x="43" y="1389" on="1"/>
        <pt x="43" y="1553" on="1"/>
        <pt x="767" y="1553" on="1"/>
        <pt x="767" y="1389" on="1"/>
        <pt x="589" y="1364" on="1"/>
        <pt x="589" y="797" on="1"/>
        <pt x="1049" y="1366" on="1"/>
        <pt x="890" y="1389" on="1"/>
        <pt x="887" y="1553" on="1"/>
        <pt x="1506" y="1553" on="1"/>
        <pt x="1506" y="1389" on="1"/>
        <pt x="1319" y="1363" on="1"/>
        <pt x="888" y="889" on="1"/>
        <pt x="921" y="860" on="0"/>
        <pt x="992" y="773" on="0"/>
        <pt x="1065" y="669" on="0"/>
        <pt x="1139" y="555" on="0"/>
        <pt x="1210" y="441" on="0"/>
        <pt x="1278" y="336" on="0"/>
        <pt x="1340" y="249" on="0"/>
        <pt x="1393" y="188" on="0"/>
        <pt x="1415" y="177" on="1"/>
        <pt x="1545" y="140" on="1"/>
        <pt x="1545" y="0" on="1"/>
        <pt x="1122" y="0" on="1"/>
        <pt x="1100" y="0" on="0"/>
        <pt x="1053" y="49" on="0"/>
        <pt x="1003" y="131" on="0"/>
        <pt x="952" y="238" on="0"/>
        <pt x="899" y="355" on="0"/>
        <pt x="844" y="473" on="0"/>
        <pt x="788" y="578" on="0"/>
        <pt x="731" y="661" on="0"/>
        <pt x="703" y="684" on="1"/>
        <pt x="589" y="558" on="1"/>
        <pt x="589" y="182" on="1"/>
        <pt x="790" y="140" on="1"/>
        <pt x="790" y="0" on="1"/>
        <pt x="46" y="0" on="1"/>
      </contour>
    </TTGlyph>
    <TTGlyph name="Kcommaaccent" xMin="43" yMin="-640" xMax="1545" yMax="1553">
      <contour>
        <pt x="46" y="140" on="1"/>
        <pt x="235" y="183" on="1"/>
        <pt x="235" y="1364" on="1"/>
        <pt x="43" y="1389" on="1"/>
        <pt x="43" y="1553" on="1"/>
        <pt x="767" y="1553" on="1"/>
        <pt x="767" y="1389" on="1"/>
        <pt x="589" y="1364" on="1"/>
        <pt x="589" y="797" on="1"/>
        <pt x="1049" y="1366" on="1"/>
        <pt x="890" y="1389" on="1"/>
        <pt x="887" y="1553" on="1"/>
        <pt x="1506" y="1553" on="1"/>
        <pt x="1506" y="1389" on="1"/>
        <pt x="1319" y="1363" on="1"/>
        <pt x="888" y="889" on="1"/>
        <pt x="921" y="860" on="0"/>
        <pt x="992" y="773" on="0"/>
        <pt x="1065" y="669" on="0"/>
        <pt x="1139" y="555" on="0"/>
        <pt x="1210" y="441" on="0"/>
        <pt x="1278" y="336" on="0"/>
        <pt x="1340" y="249" on="0"/>
        <pt x="1393" y="188" on="0"/>
        <pt x="1415" y="177" on="1"/>
        <pt x="1545" y="140" on="1"/>
        <pt x="1545" y="0" on="1"/>
        <pt x="1122" y="0" on="1"/>
        <pt x="1100" y="0" on="0"/>
        <pt x="1053" y="49" on="0"/>
        <pt x="1003" y="131" on="0"/>
        <pt x="952" y="238" on="0"/>
        <pt x="899" y="355" on="0"/>
        <pt x="844" y="473" on="0"/>
        <pt x="788" y="578" on="0"/>
        <pt x="731" y="661" on="0"/>
        <pt x="703" y="684" on="1"/>
        <pt x="589" y="558" on="1"/>
        <pt x="589" y="182" on="1"/>
        <pt x="790" y="140" on="1"/>
        <pt x="790" y="0" on="1"/>
        <pt x="46" y="0" on="1"/>
      </contour>
      <contour>
        <pt x="737" y="-40" on="1"/>
        <pt x="789" y="-40" on="0"/>
        <pt x="885" y="-78" on="0"/>
        <pt x="957" y="-151" on="0"/>
        <pt x="1000" y="-255" on="0"/>
        <pt x="1000" y="-321" on="1"/>
        <pt x="1000" y="-364" on="0"/>
        <pt x="974" y="-441" on="0"/>
        <pt x="931" y="-508" on="0"/>
        <pt x="876" y="-564" on="0"/>
        <pt x="820" y="-606" on="0"/>
        <pt x="766" y="-634" on="0"/>
        <pt x="746" y="-640" on="1"/>
        <pt x="618" y="-589" on="1"/>
        <pt x="618" y="-568" on="1"/>
        <pt x="630" y="-555" on="0"/>
        <pt x="663" y="-527" on="0"/>
        <pt x="693" y="-491" on="0"/>
        <pt x="714" y="-445" on="0"/>
        <pt x="714" y="-414" on="1"/>
        <pt x="714" y="-387" on="0"/>
        <pt x="694" y="-339" on="0"/>
        <pt x="660" y="-302" on="0"/>
        <pt x="614" y="-280" on="0"/>
        <pt x="589" y="-280" on="1"/>
        <pt x="589" y="-203" on="1"/>
      </contour>
    </TTGlyph>
    <TTGlyph name="L" xMin="93" yMin="0" xMax="1273" yMax="1553">
      <contour>
        <pt x="93" y="140" on="1"/>
        <pt x="235" y="178" on="1"/>
        <pt x="235" y="1347" on="1"/>
        <pt x="98" y="1368" on="1"/>
        <pt x="98" y="1553" on="1"/>
        <pt x="776" y="1553" on="1"/>
        <pt x="776" y="1368" on="1"/>
        <pt x="594" y="1346" on="1"/>
        <pt x="594" y="163" on="1"/>
        <pt x="954" y="202" on="1"/>
        <pt x="1121" y="439" on="1"/>
        <pt x="1273" y="383" on="1"/>
        <pt x="1204" y="0" on="1"/>
        <pt x="93" y="0" on="1"/>
      </contour>
    </TTGlyph>
    <TTGlyph name="Ldotaccent" xMin="93" yMin="0" xMax="1441" yMax="1553">
      <contour>
        <pt x="93" y="140" on="1"/>
        <pt x="235" y="178" on="1"/>
        <pt x="235" y="1347" on="1"/>
        <pt x="98" y="1368" on="1"/>
        <pt x="98" y="1553" on="1"/>
        <pt x="776" y="1553" on="1"/>
        <pt x="776" y="1368" on="1"/>
        <pt x="594" y="1346" on="1"/>
        <pt x="594" y="163" on="1"/>
        <pt x="954" y="202" on="1"/>
        <pt x="1121" y="439" on="1"/>
        <pt x="1273" y="383" on="1"/>
        <pt x="1204" y="0" on="1"/>
        <pt x="93" y="0" on="1"/>
      </contour>
      <contour>
        <pt x="996" y="827" on="1"/>
        <pt x="996" y="875" on="0"/>
        <pt x="1040" y="958" on="0"/>
        <pt x="1109" y="1019" on="0"/>
        <pt x="1193" y="1054" on="0"/>
        <pt x="1234" y="1054" on="1"/>
        <pt x="1287" y="1054" on="0"/>
        <pt x="1365" y="1023" on="0"/>
        <pt x="1416" y="971" on="0"/>
        <pt x="1441" y="900" on="0"/>
        <pt x="1441" y="860" on="1"/>
        <pt x="1441" y="809" on="0"/>
        <pt x="1399" y="728" on="0"/>
        <pt x="1330" y="671" on="0"/>
        <pt x="1243" y="641" on="0"/>
        <pt x="1199" y="641" on="1"/>
        <pt x="1161" y="641" on="0"/>
        <pt x="1088" y="666" on="0"/>
        <pt x="1031" y="713" on="0"/>
        <pt x="996" y="782" on="0"/>
      </contour>
    </TTGlyph>
    <TTGlyph name="Lslash" xMin="67" yMin="0" xMax="1273" yMax="1553">
      <contour>
        <pt x="93" y="140" on="1"/>
        <pt x="235" y="178" on="1"/>
        <pt x="235" y="541" on="1"/>
        <pt x="67" y="474" on="1"/>
        <pt x="68" y="541" on="0"/>
        <pt x="68" y="594" on="1"/>
        <pt x="68" y="716" on="1"/>
        <pt x="68" y="716" on="0"/>
        <pt x="92" y="727" on="0"/>
        <pt x="136" y="746" on="0"/>
        <pt x="198" y="773" on="0"/>
        <pt x="235" y="789" on="1"/>
        <pt x="235" y="1347" on="1"/>
        <pt x="98" y="1368" on="1"/>
        <pt x="98" y="1553" on="1"/>
        <pt x="776" y="1553" on="1"/>
        <pt x="776" y="1368" on="1"/>
        <pt x="594" y="1346" on="1"/>
        <pt x="594" y="944" on="1"/>
        <pt x="675" y="979" on="0"/>
        <pt x="823" y="1043" on="0"/>
        <pt x="881" y="1068" on="1"/>
        <pt x="948" y="1097" on="0"/>
        <pt x="1007" y="1122" on="1"/>
        <pt x="1007" y="850" on="1"/>
        <pt x="594" y="684" on="1"/>
        <pt x="594" y="163" on="1"/>
        <pt x="954" y="202" on="1"/>
        <pt x="1121" y="439" on="1"/>
        <pt x="1273" y="383" on="1"/>
        <pt x="1204" y="0" on="1"/>
        <pt x="93" y="0" on="1"/>
      </contour>
    </TTGlyph>
    <TTGlyph name="M" xMin="62" yMin="-18" xMax="2040" yMax="1553">
      <contour>
        <pt x="62" y="140" on="1"/>
        <pt x="234" y="182" on="1"/>
        <pt x="304" y="1343" on="1"/>
        <pt x="119" y="1366" on="1"/>
        <pt x="119" y="1553" on="1"/>
        <pt x="798" y="1553" on="1"/>
        <pt x="1039" y="757" on="1"/>
        <pt x="1072" y="555" on="1"/>
        <pt x="1114" y="757" on="1"/>
        <pt x="1340" y="1553" on="1"/>
        <pt x="1966" y="1553" on="1"/>
        <pt x="1966" y="1366" on="1"/>
        <pt x="1779" y="1344" on="1"/>
        <pt x="1883" y="181" on="1"/>
        <pt x="2040" y="138" on="1"/>
        <pt x="2040" y="0" on="1"/>
        <pt x="1377" y="0" on="1"/>
        <pt x="1377" y="138" on="1"/>
        <pt x="1542" y="183" on="1"/>
        <pt x="1486" y="949" on="1"/>
        <pt x="1482" y="1355" on="1"/>
        <pt x="1448" y="1217" on="1"/>
        <pt x="1093" y="-18" on="1"/>
        <pt x="963" y="-18" on="1"/>
        <pt x="633" y="972" on="1"/>
        <pt x="513" y="1347" on="1"/>
        <pt x="509" y="1069" on="1"/>
        <pt x="479" y="185" on="1"/>
        <pt x="663" y="140" on="1"/>
        <pt x="663" y="0" on="1"/>
        <pt x="62" y="0" on="1"/>
      </contour>
    </TTGlyph>
    <TTGlyph name="N" xMin="78" yMin="0" xMax="1648" yMax="1553">
      <contour>
        <pt x="78" y="140" on="1"/>
        <pt x="235" y="185" on="1"/>
        <pt x="235" y="1346" on="1"/>
        <pt x="85" y="1368" on="1"/>
        <pt x="85" y="1553" on="1"/>
        <pt x="594" y="1553" on="1"/>
        <pt x="1196" y="505" on="1"/>
        <pt x="1284" y="269" on="1"/>
        <pt x="1284" y="1342" on="1"/>
        <pt x="1104" y="1370" on="1"/>
        <pt x="1104" y="1553" on="1"/>
        <pt x="1648" y="1553" on="1"/>
        <pt x="1648" y="1370" on="1"/>
        <pt x="1511" y="1348" on="1"/>
        <pt x="1511" y="0" on="1"/>
        <pt x="1119" y="0" on="1"/>
        <pt x="574" y="917" on="1"/>
        <pt x="465" y="1187" on="1"/>
        <pt x="465" y="936" on="0"/>
        <pt x="466" y="437" on="0"/>
        <pt x="466" y="189" on="1"/>
        <pt x="669" y="140" on="1"/>
        <pt x="669" y="0" on="1"/>
        <pt x="78" y="0" on="1"/>
      </contour>
    </TTGlyph>
    <TTGlyph name="Nacute" xMin="63" yMin="0" xMax="1633" yMax="1920">
      <contour>
        <pt x="713" y="1700" on="1"/>
        <pt x="1106" y="1920" on="1"/>
        <pt x="1299" y="1728" on="1"/>
        <pt x="1271" y="1707" on="0"/>
        <pt x="1183" y="1670" on="0"/>
        <pt x="1083" y="1639" on="0"/>
        <pt x="979" y="1616" on="0"/>
        <pt x="890" y="1600" on="0"/>
        <pt x="825" y="1592" on="0"/>
        <pt x="814" y="1593" on="1"/>
      </contour>
      <contour>
        <pt x="63" y="140" on="1"/>
        <pt x="220" y="185" on="1"/>
        <pt x="220" y="1346" on="1"/>
        <pt x="70" y="1368" on="1"/>
        <pt x="70" y="1553" on="1"/>
        <pt x="579" y="1553" on="1"/>
        <pt x="1181" y="505" on="1"/>
        <pt x="1269" y="269" on="1"/>
        <pt x="1269" y="1342" on="1"/>
        <pt x="1089" y="1370" on="1"/>
        <pt x="1089" y="1553" on="1"/>
        <pt x="1633" y="1553" on="1"/>
        <pt x="1633" y="1370" on="1"/>
        <pt x="1496" y="1348" on="1"/>
        <pt x="1496" y="0" on="1"/>
        <pt x="1104" y="0" on="1"/>
        <pt x="559" y="917" on="1"/>
        <pt x="450" y="1187" on="1"/>
        <pt x="450" y="936" on="0"/>
        <pt x="451" y="437" on="0"/>
        <pt x="451" y="189" on="1"/>
        <pt x="654" y="140" on="1"/>
        <pt x="654" y="0" on="1"/>
        <pt x="63" y="0" on="1"/>
      </contour>
    </TTGlyph>
    <TTGlyph name="Ntilde" xMin="63" yMin="0" xMax="1633" yMax="1920">
      <contour>
        <pt x="438" y="1712" on="1"/>
        <pt x="454" y="1756" on="0"/>
        <pt x="529" y="1832" on="0"/>
        <pt x="619" y="1888" on="0"/>
        <pt x="711" y="1920" on="0"/>
        <pt x="746" y="1920" on="1"/>
        <pt x="801" y="1920" on="0"/>
        <pt x="882" y="1889" on="0"/>
        <pt x="949" y="1851" on="0"/>
        <pt x="1007" y="1820" on="0"/>
        <pt x="1039" y="1820" on="1"/>
        <pt x="1093" y="1820" on="0"/>
        <pt x="1172" y="1862" on="0"/>
        <pt x="1205" y="1891" on="1"/>
        <pt x="1294" y="1794" on="1"/>
        <pt x="1277" y="1750" on="0"/>
        <pt x="1205" y="1679" on="0"/>
        <pt x="1118" y="1629" on="0"/>
        <pt x="1028" y="1603" on="0"/>
        <pt x="993" y="1603" on="1"/>
        <pt x="939" y="1603" on="0"/>
        <pt x="855" y="1635" on="0"/>
        <pt x="786" y="1674" on="0"/>
        <pt x="725" y="1706" on="0"/>
        <pt x="693" y="1706" on="1"/>
        <pt x="648" y="1706" on="0"/>
        <pt x="560" y="1663" on="0"/>
        <pt x="525" y="1634" on="1"/>
      </contour>
      <contour>
        <pt x="63" y="140" on="1"/>
        <pt x="220" y="185" on="1"/>
        <pt x="220" y="1346" on="1"/>
        <pt x="70" y="1368" on="1"/>
        <pt x="70" y="1553" on="1"/>
        <pt x="579" y="1553" on="1"/>
        <pt x="1181" y="505" on="1"/>
        <pt x="1269" y="269" on="1"/>
        <pt x="1269" y="1342" on="1"/>
        <pt x="1089" y="1370" on="1"/>
        <pt x="1089" y="1553" on="1"/>
        <pt x="1633" y="1553" on="1"/>
        <pt x="1633" y="1370" on="1"/>
        <pt x="1496" y="1348" on="1"/>
        <pt x="1496" y="0" on="1"/>
        <pt x="1104" y="0" on="1"/>
        <pt x="559" y="917" on="1"/>
        <pt x="450" y="1187" on="1"/>
        <pt x="450" y="936" on="0"/>
        <pt x="451" y="437" on="0"/>
        <pt x="451" y="189" on="1"/>
        <pt x="654" y="140" on="1"/>
        <pt x="654" y="0" on="1"/>
        <pt x="63" y="0" on="1"/>
      </contour>
    </TTGlyph>
    <TTGlyph name="O" xMin="66" yMin="-28" xMax="1534" yMax="1567">
      <contour>
        <pt x="66" y="754" on="1"/>
        <pt x="69" y="880" on="0"/>
        <pt x="130" y="1098" on="0"/>
        <pt x="233" y="1279" on="0"/>
        <pt x="374" y="1420" on="0"/>
        <pt x="539" y="1517" on="0"/>
        <pt x="723" y="1567" on="0"/>
        <pt x="818" y="1567" on="1"/>
        <pt x="981" y="1567" on="0"/>
        <pt x="1249" y="1450" on="0"/>
        <pt x="1437" y="1242" on="0"/>
        <pt x="1537" y="958" on="0"/>
        <pt x="1534" y="790" on="1"/>
        <pt x="1530" y="601" on="0"/>
        <pt x="1415" y="298" on="0"/>
        <pt x="1218" y="86" on="0"/>
        <pt x="952" y="-28" on="0"/>
        <pt x="797" y="-28" on="1"/>
        <pt x="627" y="-28" on="0"/>
        <pt x="353" y="92" on="0"/>
        <pt x="163" y="303" on="0"/>
        <pt x="63" y="589" on="0"/>
      </contour>
      <contour>
        <pt x="810" y="132" on="1"/>
        <pt x="907" y="132" on="0"/>
        <pt x="1036" y="214" on="0"/>
        <pt x="1111" y="378" on="0"/>
        <pt x="1142" y="624" on="0"/>
        <pt x="1142" y="789" on="1"/>
        <pt x="1142" y="854" on="0"/>
        <pt x="1126" y="996" on="0"/>
        <pt x="1093" y="1132" on="0"/>
        <pt x="1040" y="1255" on="0"/>
        <pt x="966" y="1347" on="0"/>
        <pt x="870" y="1402" on="0"/>
        <pt x="809" y="1402" on="1"/>
        <pt x="710" y="1402" on="0"/>
        <pt x="575" y="1317" on="0"/>
        <pt x="494" y="1153" on="0"/>
        <pt x="459" y="912" on="0"/>
        <pt x="459" y="755" on="1"/>
        <pt x="459" y="696" on="0"/>
        <pt x="475" y="558" on="0"/>
        <pt x="510" y="420" on="0"/>
        <pt x="566" y="291" on="0"/>
        <pt x="644" y="192" on="0"/>
        <pt x="746" y="132" on="0"/>
      </contour>
    </TTGlyph>
    <TTGlyph name="OE" xMin="66" yMin="-28" xMax="2178" yMax="1567">
      <contour>
        <pt x="66" y="754" on="1"/>
        <pt x="69" y="880" on="0"/>
        <pt x="130" y="1098" on="0"/>
        <pt x="233" y="1279" on="0"/>
        <pt x="374" y="1420" on="0"/>
        <pt x="539" y="1517" on="0"/>
        <pt x="723" y="1567" on="0"/>
        <pt x="818" y="1567" on="1"/>
        <pt x="857" y="1567" on="0"/>
        <pt x="933" y="1560" on="0"/>
        <pt x="969" y="1553" on="1"/>
        <pt x="2024" y="1553" on="1"/>
        <pt x="2055" y="1211" on="1"/>
        <pt x="1880" y="1211" on="1"/>
        <pt x="1786" y="1371" on="1"/>
        <pt x="1416" y="1392" on="1"/>
        <pt x="1416" y="865" on="1"/>
        <pt x="1677" y="875" on="1"/>
        <pt x="1721" y="1021" on="1"/>
        <pt x="1882" y="1021" on="1"/>
        <pt x="1882" y="533" on="1"/>
        <pt x="1721" y="533" on="1"/>
        <pt x="1677" y="692" on="1"/>
        <pt x="1416" y="698" on="1"/>
        <pt x="1416" y="160" on="1"/>
        <pt x="1873" y="188" on="1"/>
        <pt x="2000" y="386" on="1"/>
        <pt x="2178" y="349" on="1"/>
        <pt x="2124" y="0" on="1"/>
        <pt x="1002" y="0" on="1"/>
        <pt x="953" y="-14" on="0"/>
        <pt x="851" y="-28" on="0"/>
        <pt x="797" y="-28" on="1"/>
        <pt x="627" y="-28" on="0"/>
        <pt x="353" y="92" on="0"/>
        <pt x="163" y="303" on="0"/>
        <pt x="63" y="589" on="0"/>
      </contour>
      <contour>
        <pt x="810" y="132" on="1"/>
        <pt x="901" y="132" on="0"/>
        <pt x="1022" y="201" on="0"/>
        <pt x="1061" y="271" on="1"/>
        <pt x="1061" y="1206" on="1"/>
        <pt x="1041" y="1249" on="0"/>
        <pt x="990" y="1321" on="0"/>
        <pt x="928" y="1373" on="0"/>
        <pt x="853" y="1402" on="0"/>
        <pt x="809" y="1402" on="1"/>
        <pt x="710" y="1402" on="0"/>
        <pt x="575" y="1317" on="0"/>
        <pt x="494" y="1153" on="0"/>
        <pt x="459" y="912" on="0"/>
        <pt x="459" y="755" on="1"/>
        <pt x="459" y="696" on="0"/>
        <pt x="475" y="558" on="0"/>
        <pt x="510" y="420" on="0"/>
        <pt x="566" y="291" on="0"/>
        <pt x="644" y="192" on="0"/>
        <pt x="746" y="132" on="0"/>
      </contour>
    </TTGlyph>
    <TTGlyph name="Oacute" xMin="66" yMin="-28" xMax="1534" yMax="1920">
      <contour>
        <pt x="662" y="1700" on="1"/>
        <pt x="1055" y="1920" on="1"/>
        <pt x="1248" y="1728" on="1"/>
        <pt x="1220" y="1707" on="0"/>
        <pt x="1132" y="1670" on="0"/>
        <pt x="1032" y="1639" on="0"/>
        <pt x="928" y="1616" on="0"/>
        <pt x="839" y="1600" on="0"/>
        <pt x="774" y="1592" on="0"/>
        <pt x="763" y="1593" on="1"/>
      </contour>
      <contour>
        <pt x="66" y="754" on="1"/>
        <pt x="69" y="880" on="0"/>
        <pt x="130" y="1098" on="0"/>
        <pt x="233" y="1279" on="0"/>
        <pt x="374" y="1420" on="0"/>
        <pt x="539" y="1517" on="0"/>
        <pt x="723" y="1567" on="0"/>
        <pt x="818" y="1567" on="1"/>
        <pt x="981" y="1567" on="0"/>
        <pt x="1249" y="1450" on="0"/>
        <pt x="1437" y="1242" on="0"/>
        <pt x="1537" y="958" on="0"/>
        <pt x="1534" y="790" on="1"/>
        <pt x="1530" y="601" on="0"/>
        <pt x="1415" y="298" on="0"/>
        <pt x="1218" y="86" on="0"/>
        <pt x="952" y="-28" on="0"/>
        <pt x="797" y="-28" on="1"/>
        <pt x="627" y="-28" on="0"/>
        <pt x="353" y="92" on="0"/>
        <pt x="163" y="303" on="0"/>
        <pt x="63" y="589" on="0"/>
      </contour>
      <contour>
        <pt x="810" y="132" on="1"/>
        <pt x="907" y="132" on="0"/>
        <pt x="1036" y="214" on="0"/>
        <pt x="1111" y="378" on="0"/>
        <pt x="1142" y="624" on="0"/>
        <pt x="1142" y="789" on="1"/>
        <pt x="1142" y="854" on="0"/>
        <pt x="1126" y="996" on="0"/>
        <pt x="1093" y="1132" on="0"/>
        <pt x="1040" y="1255" on="0"/>
        <pt x="966" y="1347" on="0"/>
        <pt x="870" y="1402" on="0"/>
        <pt x="809" y="1402" on="1"/>
        <pt x="710" y="1402" on="0"/>
        <pt x="575" y="1317" on="0"/>
        <pt x="494" y="1153" on="0"/>
        <pt x="459" y="912" on="0"/>
        <pt x="459" y="755" on="1"/>
        <pt x="459" y="696" on="0"/>
        <pt x="475" y="558" on="0"/>
        <pt x="510" y="420" on="0"/>
        <pt x="566" y="291" on="0"/>
        <pt x="644" y="192" on="0"/>
        <pt x="746" y="132" on="0"/>
      </contour>
    </TTGlyph>
    <TTGlyph name="Ocircumflex" xMin="66" yMin="-28" xMax="1534" yMax="1920">
      <contour>
        <pt x="425" y="1670" on="1"/>
        <pt x="700" y="1920" on="1"/>
        <pt x="932" y="1920" on="1"/>
        <pt x="1202" y="1670" on="1"/>
        <pt x="1090" y="1597" on="1"/>
        <pt x="818" y="1726" on="1"/>
        <pt x="536" y="1597" on="1"/>
      </contour>
      <contour>
        <pt x="66" y="754" on="1"/>
        <pt x="69" y="880" on="0"/>
        <pt x="130" y="1098" on="0"/>
        <pt x="233" y="1279" on="0"/>
        <pt x="374" y="1420" on="0"/>
        <pt x="539" y="1517" on="0"/>
        <pt x="723" y="1567" on="0"/>
        <pt x="818" y="1567" on="1"/>
        <pt x="981" y="1567" on="0"/>
        <pt x="1249" y="1450" on="0"/>
        <pt x="1437" y="1242" on="0"/>
        <pt x="1537" y="958" on="0"/>
        <pt x="1534" y="790" on="1"/>
        <pt x="1530" y="601" on="0"/>
        <pt x="1415" y="298" on="0"/>
        <pt x="1218" y="86" on="0"/>
        <pt x="952" y="-28" on="0"/>
        <pt x="797" y="-28" on="1"/>
        <pt x="627" y="-28" on="0"/>
        <pt x="353" y="92" on="0"/>
        <pt x="163" y="303" on="0"/>
        <pt x="63" y="589" on="0"/>
      </contour>
      <contour>
        <pt x="810" y="132" on="1"/>
        <pt x="907" y="132" on="0"/>
        <pt x="1036" y="214" on="0"/>
        <pt x="1111" y="378" on="0"/>
        <pt x="1142" y="624" on="0"/>
        <pt x="1142" y="789" on="1"/>
        <pt x="1142" y="854" on="0"/>
        <pt x="1126" y="996" on="0"/>
        <pt x="1093" y="1132" on="0"/>
        <pt x="1040" y="1255" on="0"/>
        <pt x="966" y="1347" on="0"/>
        <pt x="870" y="1402" on="0"/>
        <pt x="809" y="1402" on="1"/>
        <pt x="710" y="1402" on="0"/>
        <pt x="575" y="1317" on="0"/>
        <pt x="494" y="1153" on="0"/>
        <pt x="459" y="912" on="0"/>
        <pt x="459" y="755" on="1"/>
        <pt x="459" y="696" on="0"/>
        <pt x="475" y="558" on="0"/>
        <pt x="510" y="420" on="0"/>
        <pt x="566" y="291" on="0"/>
        <pt x="644" y="192" on="0"/>
        <pt x="746" y="132" on="0"/>
      </contour>
    </TTGlyph>
    <TTGlyph name="Odieresis" xMin="66" yMin="-28" xMax="1534" yMax="1920">
      <contour>
        <pt x="1075" y="1619" on="1"/>
        <pt x="1040" y="1619" on="0"/>
        <pt x="975" y="1637" on="0"/>
        <pt x="924" y="1673" on="0"/>
        <pt x="894" y="1725" on="0"/>
        <pt x="894" y="1759" on="1"/>
        <pt x="894" y="1794" on="0"/>
        <pt x="930" y="1853" on="0"/>
        <pt x="989" y="1896" on="0"/>
        <pt x="1063" y="1920" on="0"/>
        <pt x="1101" y="1920" on="1"/>
        <pt x="1150" y="1920" on="0"/>
        <pt x="1218" y="1899" on="0"/>
        <pt x="1260" y="1862" on="0"/>
        <pt x="1279" y="1811" on="0"/>
        <pt x="1279" y="1782" on="1"/>
        <pt x="1279" y="1744" on="0"/>
        <pt x="1245" y="1684" on="0"/>
        <pt x="1189" y="1642" on="0"/>
        <pt x="1115" y="1619" on="0"/>
      </contour>
      <contour>
        <pt x="527" y="1618" on="1"/>
        <pt x="491" y="1618" on="0"/>
        <pt x="427" y="1636" on="0"/>
        <pt x="378" y="1671" on="0"/>
        <pt x="350" y="1723" on="0"/>
        <pt x="350" y="1756" on="1"/>
        <pt x="350" y="1792" on="0"/>
        <pt x="385" y="1852" on="0"/>
        <pt x="443" y="1896" on="0"/>
        <pt x="516" y="1920" on="0"/>
        <pt x="555" y="1920" on="1"/>
        <pt x="604" y="1920" on="0"/>
        <pt x="673" y="1898" on="0"/>
        <pt x="718" y="1861" on="0"/>
        <pt x="739" y="1810" on="0"/>
        <pt x="739" y="1780" on="1"/>
        <pt x="739" y="1743" on="0"/>
        <pt x="704" y="1683" on="0"/>
        <pt x="645" y="1641" on="0"/>
        <pt x="568" y="1618" on="0"/>
      </contour>
      <contour>
        <pt x="66" y="754" on="1"/>
        <pt x="69" y="880" on="0"/>
        <pt x="130" y="1098" on="0"/>
        <pt x="233" y="1279" on="0"/>
        <pt x="374" y="1420" on="0"/>
        <pt x="539" y="1517" on="0"/>
        <pt x="723" y="1567" on="0"/>
        <pt x="818" y="1567" on="1"/>
        <pt x="981" y="1567" on="0"/>
        <pt x="1249" y="1450" on="0"/>
        <pt x="1437" y="1242" on="0"/>
        <pt x="1537" y="958" on="0"/>
        <pt x="1534" y="790" on="1"/>
        <pt x="1530" y="601" on="0"/>
        <pt x="1415" y="298" on="0"/>
        <pt x="1218" y="86" on="0"/>
        <pt x="952" y="-28" on="0"/>
        <pt x="797" y="-28" on="1"/>
        <pt x="627" y="-28" on="0"/>
        <pt x="353" y="92" on="0"/>
        <pt x="163" y="303" on="0"/>
        <pt x="63" y="589" on="0"/>
      </contour>
      <contour>
        <pt x="810" y="132" on="1"/>
        <pt x="907" y="132" on="0"/>
        <pt x="1036" y="214" on="0"/>
        <pt x="1111" y="378" on="0"/>
        <pt x="1142" y="624" on="0"/>
        <pt x="1142" y="789" on="1"/>
        <pt x="1142" y="854" on="0"/>
        <pt x="1126" y="996" on="0"/>
        <pt x="1093" y="1132" on="0"/>
        <pt x="1040" y="1255" on="0"/>
        <pt x="966" y="1347" on="0"/>
        <pt x="870" y="1402" on="0"/>
        <pt x="809" y="1402" on="1"/>
        <pt x="710" y="1402" on="0"/>
        <pt x="575" y="1317" on="0"/>
        <pt x="494" y="1153" on="0"/>
        <pt x="459" y="912" on="0"/>
        <pt x="459" y="755" on="1"/>
        <pt x="459" y="696" on="0"/>
        <pt x="475" y="558" on="0"/>
        <pt x="510" y="420" on="0"/>
        <pt x="566" y="291" on="0"/>
        <pt x="644" y="192" on="0"/>
        <pt x="746" y="132" on="0"/>
      </contour>
    </TTGlyph>
    <TTGlyph name="Ograve" xMin="66" yMin="-28" xMax="1534" yMax="1920">
      <contour>
        <pt x="585" y="1920" on="1"/>
        <pt x="958" y="1700" on="1"/>
        <pt x="857" y="1593" on="1"/>
        <pt x="846" y="1592" on="0"/>
        <pt x="784" y="1600" on="0"/>
        <pt x="699" y="1616" on="0"/>
        <pt x="601" y="1639" on="0"/>
        <pt x="505" y="1670" on="0"/>
        <pt x="420" y="1707" on="0"/>
        <pt x="392" y="1728" on="1"/>
      </contour>
      <contour>
        <pt x="66" y="754" on="1"/>
        <pt x="69" y="880" on="0"/>
        <pt x="130" y="1098" on="0"/>
        <pt x="233" y="1279" on="0"/>
        <pt x="374" y="1420" on="0"/>
        <pt x="539" y="1517" on="0"/>
        <pt x="723" y="1567" on="0"/>
        <pt x="818" y="1567" on="1"/>
        <pt x="981" y="1567" on="0"/>
        <pt x="1249" y="1450" on="0"/>
        <pt x="1437" y="1242" on="0"/>
        <pt x="1537" y="958" on="0"/>
        <pt x="1534" y="790" on="1"/>
        <pt x="1530" y="601" on="0"/>
        <pt x="1415" y="298" on="0"/>
        <pt x="1218" y="86" on="0"/>
        <pt x="952" y="-28" on="0"/>
        <pt x="797" y="-28" on="1"/>
        <pt x="627" y="-28" on="0"/>
        <pt x="353" y="92" on="0"/>
        <pt x="163" y="303" on="0"/>
        <pt x="63" y="589" on="0"/>
      </contour>
      <contour>
        <pt x="810" y="132" on="1"/>
        <pt x="907" y="132" on="0"/>
        <pt x="1036" y="214" on="0"/>
        <pt x="1111" y="378" on="0"/>
        <pt x="1142" y="624" on="0"/>
        <pt x="1142" y="789" on="1"/>
        <pt x="1142" y="854" on="0"/>
        <pt x="1126" y="996" on="0"/>
        <pt x="1093" y="1132" on="0"/>
        <pt x="1040" y="1255" on="0"/>
        <pt x="966" y="1347" on="0"/>
        <pt x="870" y="1402" on="0"/>
        <pt x="809" y="1402" on="1"/>
        <pt x="710" y="1402" on="0"/>
        <pt x="575" y="1317" on="0"/>
        <pt x="494" y="1153" on="0"/>
        <pt x="459" y="912" on="0"/>
        <pt x="459" y="755" on="1"/>
        <pt x="459" y="696" on="0"/>
        <pt x="475" y="558" on="0"/>
        <pt x="510" y="420" on="0"/>
        <pt x="566" y="291" on="0"/>
        <pt x="644" y="192" on="0"/>
        <pt x="746" y="132" on="0"/>
      </contour>
    </TTGlyph>
    <TTGlyph name="Omega" xMin="157" yMin="0" xMax="1963" yMax="1567">
      <contour>
        <pt x="157" y="534" on="1"/>
        <pt x="323" y="541" on="1"/>
        <pt x="367" y="290" on="1"/>
        <pt x="718" y="290" on="1"/>
        <pt x="639" y="332" on="0"/>
        <pt x="486" y="476" on="0"/>
        <pt x="366" y="649" on="0"/>
        <pt x="294" y="837" on="0"/>
        <pt x="296" y="924" on="1"/>
        <pt x="299" y="1037" on="0"/>
        <pt x="363" y="1221" on="0"/>
        <pt x="471" y="1364" on="0"/>
        <pt x="616" y="1468" on="0"/>
        <pt x="786" y="1535" on="0"/>
        <pt x="973" y="1567" on="0"/>
        <pt x="1068" y="1567" on="1"/>
        <pt x="1231" y="1567" on="0"/>
        <pt x="1505" y="1483" on="0"/>
        <pt x="1702" y="1322" on="0"/>
        <pt x="1808" y="1089" on="0"/>
        <pt x="1804" y="940" on="1"/>
        <pt x="1802" y="887" on="0"/>
        <pt x="1767" y="772" on="0"/>
        <pt x="1708" y="653" on="0"/>
        <pt x="1629" y="536" on="0"/>
        <pt x="1540" y="427" on="0"/>
        <pt x="1445" y="329" on="0"/>
        <pt x="1399" y="290" on="1"/>
        <pt x="1720" y="290" on="1"/>
        <pt x="1820" y="548" on="1"/>
        <pt x="1963" y="541" on="1"/>
        <pt x="1900" y="0" on="1"/>
        <pt x="1214" y="0" on="1"/>
        <pt x="1215" y="240" on="1"/>
        <pt x="1242" y="263" on="0"/>
        <pt x="1295" y="350" on="0"/>
        <pt x="1343" y="466" on="0"/>
        <pt x="1385" y="605" on="0"/>
        <pt x="1415" y="756" on="0"/>
        <pt x="1432" y="913" on="0"/>
        <pt x="1432" y="989" on="1"/>
        <pt x="1432" y="1087" on="0"/>
        <pt x="1384" y="1244" on="0"/>
        <pt x="1289" y="1355" on="0"/>
        <pt x="1150" y="1415" on="0"/>
        <pt x="1059" y="1415" on="1"/>
        <pt x="975" y="1415" on="0"/>
        <pt x="832" y="1372" on="0"/>
        <pt x="728" y="1267" on="0"/>
        <pt x="669" y="1089" on="0"/>
        <pt x="669" y="955" on="1"/>
        <pt x="669" y="889" on="0"/>
        <pt x="691" y="749" on="0"/>
        <pt x="728" y="612" on="0"/>
        <pt x="778" y="481" on="0"/>
        <pt x="834" y="367" on="0"/>
        <pt x="894" y="272" on="0"/>
        <pt x="922" y="240" on="1"/>
        <pt x="923" y="0" on="1"/>
        <pt x="895" y="77" on="1"/>
        <pt x="922" y="0" on="1"/>
        <pt x="157" y="0" on="1"/>
      </contour>
    </TTGlyph>
    <TTGlyph name="Oslash" xMin="66" yMin="-214" xMax="1534" yMax="1692">
      <contour>
        <pt x="466" y="43" on="1"/>
        <pt x="370" y="89" on="0"/>
        <pt x="219" y="232" on="0"/>
        <pt x="115" y="416" on="0"/>
        <pt x="63" y="634" on="0"/>
        <pt x="66" y="754" on="1"/>
        <pt x="69" y="880" on="0"/>
        <pt x="130" y="1098" on="0"/>
        <pt x="233" y="1279" on="0"/>
        <pt x="374" y="1420" on="0"/>
        <pt x="539" y="1517" on="0"/>
        <pt x="723" y="1567" on="0"/>
        <pt x="818" y="1567" on="1"/>
        <pt x="874" y="1567" on="0"/>
        <pt x="979" y="1553" on="0"/>
        <pt x="1028" y="1539" on="1"/>
        <pt x="1081" y="1692" on="1"/>
        <pt x="1209" y="1648" on="1"/>
        <pt x="1153" y="1490" on="1"/>
        <pt x="1244" y="1444" on="0"/>
        <pt x="1387" y="1303" on="0"/>
        <pt x="1486" y="1123" on="0"/>
        <pt x="1536" y="909" on="0"/>
        <pt x="1534" y="790" on="1"/>
        <pt x="1530" y="601" on="0"/>
        <pt x="1415" y="298" on="0"/>
        <pt x="1218" y="86" on="0"/>
        <pt x="952" y="-28" on="0"/>
        <pt x="797" y="-28" on="1"/>
        <pt x="688" y="-28" on="0"/>
        <pt x="590" y="-2" on="1"/>
        <pt x="501" y="-214" on="1"/>
        <pt x="378" y="-169" on="1"/>
      </contour>
      <contour>
        <pt x="944" y="1358" on="1"/>
        <pt x="915" y="1379" on="0"/>
        <pt x="848" y="1402" on="0"/>
        <pt x="809" y="1402" on="1"/>
        <pt x="710" y="1402" on="0"/>
        <pt x="575" y="1317" on="0"/>
        <pt x="494" y="1153" on="0"/>
        <pt x="459" y="912" on="0"/>
        <pt x="459" y="755" on="1"/>
        <pt x="459" y="702" on="0"/>
        <pt x="472" y="581" on="0"/>
        <pt x="499" y="457" on="0"/>
        <pt x="543" y="338" on="0"/>
        <pt x="573" y="288" on="1"/>
      </contour>
      <contour>
        <pt x="674" y="175" on="1"/>
        <pt x="703" y="155" on="0"/>
        <pt x="771" y="132" on="0"/>
        <pt x="810" y="132" on="1"/>
        <pt x="907" y="132" on="0"/>
        <pt x="1036" y="214" on="0"/>
        <pt x="1111" y="378" on="0"/>
        <pt x="1142" y="624" on="0"/>
        <pt x="1142" y="789" on="1"/>
        <pt x="1142" y="844" on="0"/>
        <pt x="1131" y="962" on="0"/>
        <pt x="1107" y="1079" on="0"/>
        <pt x="1070" y="1190" on="0"/>
        <pt x="1045" y="1237" on="1"/>
      </contour>
    </TTGlyph>
    <TTGlyph name="Otilde" xMin="66" yMin="-28" xMax="1534" yMax="1920">
      <contour>
        <pt x="387" y="1712" on="1"/>
        <pt x="403" y="1756" on="0"/>
        <pt x="478" y="1832" on="0"/>
        <pt x="568" y="1888" on="0"/>
        <pt x="660" y="1920" on="0"/>
        <pt x="695" y="1920" on="1"/>
        <pt x="750" y="1920" on="0"/>
        <pt x="831" y="1889" on="0"/>
        <pt x="898" y="1851" on="0"/>
        <pt x="956" y="1820" on="0"/>
        <pt x="988" y="1820" on="1"/>
        <pt x="1042" y="1820" on="0"/>
        <pt x="1121" y="1862" on="0"/>
        <pt x="1154" y="1891" on="1"/>
        <pt x="1243" y="1794" on="1"/>
        <pt x="1226" y="1750" on="0"/>
        <pt x="1154" y="1679" on="0"/>
        <pt x="1067" y="1629" on="0"/>
        <pt x="977" y="1603" on="0"/>
        <pt x="942" y="1603" on="1"/>
        <pt x="888" y="1603" on="0"/>
        <pt x="804" y="1635" on="0"/>
        <pt x="735" y="1674" on="0"/>
        <pt x="674" y="1706" on="0"/>
        <pt x="642" y="1706" on="1"/>
        <pt x="597" y="1706" on="0"/>
        <pt x="509" y="1663" on="0"/>
        <pt x="474" y="1634" on="1"/>
      </contour>
      <contour>
        <pt x="66" y="754" on="1"/>
        <pt x="69" y="880" on="0"/>
        <pt x="130" y="1098" on="0"/>
        <pt x="233" y="1279" on="0"/>
        <pt x="374" y="1420" on="0"/>
        <pt x="539" y="1517" on="0"/>
        <pt x="723" y="1567" on="0"/>
        <pt x="818" y="1567" on="1"/>
        <pt x="981" y="1567" on="0"/>
        <pt x="1249" y="1450" on="0"/>
        <pt x="1437" y="1242" on="0"/>
        <pt x="1537" y="958" on="0"/>
        <pt x="1534" y="790" on="1"/>
        <pt x="1530" y="601" on="0"/>
        <pt x="1415" y="298" on="0"/>
        <pt x="1218" y="86" on="0"/>
        <pt x="952" y="-28" on="0"/>
        <pt x="797" y="-28" on="1"/>
        <pt x="627" y="-28" on="0"/>
        <pt x="353" y="92" on="0"/>
        <pt x="163" y="303" on="0"/>
        <pt x="63" y="589" on="0"/>
      </contour>
      <contour>
        <pt x="810" y="132" on="1"/>
        <pt x="907" y="132" on="0"/>
        <pt x="1036" y="214" on="0"/>
        <pt x="1111" y="378" on="0"/>
        <pt x="1142" y="624" on="0"/>
        <pt x="1142" y="789" on="1"/>
        <pt x="1142" y="854" on="0"/>
        <pt x="1126" y="996" on="0"/>
        <pt x="1093" y="1132" on="0"/>
        <pt x="1040" y="1255" on="0"/>
        <pt x="966" y="1347" on="0"/>
        <pt x="870" y="1402" on="0"/>
        <pt x="809" y="1402" on="1"/>
        <pt x="710" y="1402" on="0"/>
        <pt x="575" y="1317" on="0"/>
        <pt x="494" y="1153" on="0"/>
        <pt x="459" y="912" on="0"/>
        <pt x="459" y="755" on="1"/>
        <pt x="459" y="696" on="0"/>
        <pt x="475" y="558" on="0"/>
        <pt x="510" y="420" on="0"/>
        <pt x="566" y="291" on="0"/>
        <pt x="644" y="192" on="0"/>
        <pt x="746" y="132" on="0"/>
      </contour>
    </TTGlyph>
    <TTGlyph name="P" xMin="60" yMin="0" xMax="1365" yMax="1567">
      <contour>
        <pt x="60" y="140" on="1"/>
        <pt x="235" y="183" on="1"/>
        <pt x="235" y="1346" on="1"/>
        <pt x="63" y="1380" on="1"/>
        <pt x="63" y="1553" on="1"/>
        <pt x="421" y="1553" on="1"/>
        <pt x="458" y="1553" on="0"/>
        <pt x="535" y="1557" on="0"/>
        <pt x="618" y="1563" on="0"/>
        <pt x="711" y="1567" on="0"/>
        <pt x="764" y="1567" on="1"/>
        <pt x="885" y="1567" on="0"/>
        <pt x="1103" y="1529" on="0"/>
        <pt x="1268" y="1428" on="0"/>
        <pt x="1365" y="1252" on="0"/>
        <pt x="1365" y="1113" on="1"/>
        <pt x="1365" y="988" on="0"/>
        <pt x="1272" y="797" on="0"/>
        <pt x="1110" y="668" on="0"/>
        <pt x="890" y="602" on="0"/>
        <pt x="763" y="602" on="1"/>
        <pt x="704" y="602" on="0"/>
        <pt x="618" y="602" on="0"/>
        <pt x="587" y="604" on="1"/>
        <pt x="587" y="182" on="1"/>
        <pt x="832" y="140" on="1"/>
        <pt x="832" y="0" on="1"/>
        <pt x="60" y="0" on="1"/>
      </contour>
      <contour>
        <pt x="587" y="783" on="1"/>
        <pt x="602" y="780" on="0"/>
        <pt x="646" y="775" on="0"/>
        <pt x="692" y="773" on="0"/>
        <pt x="738" y="772" on="0"/>
        <pt x="756" y="772" on="1"/>
        <pt x="808" y="772" on="0"/>
        <pt x="903" y="808" on="0"/>
        <pt x="973" y="892" on="0"/>
        <pt x="1015" y="1029" on="0"/>
        <pt x="1015" y="1130" on="1"/>
        <pt x="1015" y="1201" on="0"/>
        <pt x="970" y="1304" on="0"/>
        <pt x="890" y="1370" on="0"/>
        <pt x="783" y="1403" on="0"/>
        <pt x="720" y="1404" on="1"/>
        <pt x="708" y="1404" on="0"/>
        <pt x="668" y="1402" on="0"/>
        <pt x="628" y="1399" on="0"/>
        <pt x="594" y="1394" on="0"/>
        <pt x="587" y="1391" on="1"/>
      </contour>
    </TTGlyph>
    <TTGlyph name="Q" xMin="66" yMin="-391" xMax="1534" yMax="1567">
      <contour>
        <pt x="66" y="754" on="1"/>
        <pt x="69" y="880" on="0"/>
        <pt x="130" y="1098" on="0"/>
        <pt x="233" y="1279" on="0"/>
        <pt x="374" y="1420" on="0"/>
        <pt x="539" y="1517" on="0"/>
        <pt x="723" y="1567" on="0"/>
        <pt x="818" y="1567" on="1"/>
        <pt x="981" y="1567" on="0"/>
        <pt x="1249" y="1450" on="0"/>
        <pt x="1437" y="1242" on="0"/>
        <pt x="1537" y="958" on="0"/>
        <pt x="1534" y="790" on="1"/>
        <pt x="1530" y="631" on="0"/>
        <pt x="1447" y="366" on="0"/>
        <pt x="1302" y="163" on="0"/>
        <pt x="1104" y="26" on="0"/>
        <pt x="985" y="-4" on="1"/>
        <pt x="1004" y="-47" on="0"/>
        <pt x="1062" y="-98" on="0"/>
        <pt x="1130" y="-125" on="0"/>
        <pt x="1202" y="-133" on="0"/>
        <pt x="1265" y="-130" on="0"/>
        <pt x="1315" y="-123" on="0"/>
        <pt x="1328" y="-122" on="1"/>
        <pt x="1355" y="-118" on="0"/>
        <pt x="1404" y="-107" on="0"/>
        <pt x="1445" y="-95" on="0"/>
        <pt x="1475" y="-85" on="0"/>
        <pt x="1484" y="-82" on="1"/>
        <pt x="1484" y="-302" on="1"/>
        <pt x="1466" y="-319" on="0"/>
        <pt x="1413" y="-351" on="0"/>
        <pt x="1340" y="-376" on="0"/>
        <pt x="1246" y="-391" on="0"/>
        <pt x="1188" y="-391" on="1"/>
        <pt x="1135" y="-391" on="0"/>
        <pt x="1022" y="-361" on="0"/>
        <pt x="920" y="-281" on="0"/>
        <pt x="839" y="-139" on="0"/>
        <pt x="817" y="-27" on="1"/>
        <pt x="812" y="-27" on="0"/>
        <pt x="802" y="-28" on="0"/>
        <pt x="797" y="-28" on="1"/>
        <pt x="627" y="-28" on="0"/>
        <pt x="353" y="92" on="0"/>
        <pt x="163" y="303" on="0"/>
        <pt x="63" y="589" on="0"/>
      </contour>
      <contour>
        <pt x="810" y="132" on="1"/>
        <pt x="907" y="132" on="0"/>
        <pt x="1036" y="214" on="0"/>
        <pt x="1111" y="378" on="0"/>
        <pt x="1142" y="624" on="0"/>
        <pt x="1142" y="789" on="1"/>
        <pt x="1142" y="854" on="0"/>
        <pt x="1126" y="996" on="0"/>
        <pt x="1093" y="1132" on="0"/>
        <pt x="1040" y="1255" on="0"/>
        <pt x="966" y="1347" on="0"/>
        <pt x="870" y="1402" on="0"/>
        <pt x="809" y="1402" on="1"/>
        <pt x="710" y="1402" on="0"/>
        <pt x="575" y="1317" on="0"/>
        <pt x="494" y="1153" on="0"/>
        <pt x="459" y="912" on="0"/>
        <pt x="459" y="755" on="1"/>
        <pt x="459" y="696" on="0"/>
        <pt x="475" y="558" on="0"/>
        <pt x="510" y="420" on="0"/>
        <pt x="566" y="291" on="0"/>
        <pt x="644" y="192" on="0"/>
        <pt x="746" y="132" on="0"/>
      </contour>
    </TTGlyph>
    <TTGlyph name="R" xMin="61" yMin="0" xMax="1545" yMax="1567">
      <contour>
        <pt x="61" y="140" on="1"/>
        <pt x="235" y="183" on="1"/>
        <pt x="235" y="1356" on="1"/>
        <pt x="80" y="1380" on="1"/>
        <pt x="80" y="1553" on="1"/>
        <pt x="305" y="1553" on="1"/>
        <pt x="448" y="1553" on="0"/>
        <pt x="683" y="1567" on="0"/>
        <pt x="760" y="1567" on="1"/>
        <pt x="888" y="1567" on="0"/>
        <pt x="1109" y="1523" on="0"/>
        <pt x="1271" y="1425" on="0"/>
        <pt x="1364" y="1271" on="0"/>
        <pt x="1364" y="1161" on="1"/>
        <pt x="1364" y="983" on="0"/>
        <pt x="1200" y="750" on="0"/>
        <pt x="1026" y="691" on="1"/>
        <pt x="1067" y="669" on="0"/>
        <pt x="1140" y="584" on="0"/>
        <pt x="1206" y="481" on="0"/>
        <pt x="1267" y="369" on="0"/>
        <pt x="1326" y="270" on="0"/>
        <pt x="1384" y="193" on="0"/>
        <pt x="1415" y="177" on="1"/>
        <pt x="1545" y="140" on="1"/>
        <pt x="1545" y="0" on="1"/>
        <pt x="1122" y="0" on="1"/>
        <pt x="1097" y="0" on="0"/>
        <pt x="1050" y="55" on="0"/>
        <pt x="1003" y="146" on="0"/>
        <pt x="955" y="262" on="0"/>
        <pt x="907" y="383" on="0"/>
        <pt x="856" y="498" on="0"/>
        <pt x="801" y="589" on="0"/>
        <pt x="742" y="645" on="0"/>
        <pt x="710" y="645" on="1"/>
        <pt x="678" y="644" on="0"/>
        <pt x="617" y="645" on="0"/>
        <pt x="589" y="644" on="1"/>
        <pt x="589" y="178" on="1"/>
        <pt x="780" y="140" on="1"/>
        <pt x="780" y="0" on="1"/>
        <pt x="61" y="0" on="1"/>
      </contour>
      <contour>
        <pt x="589" y="809" on="1"/>
        <pt x="612" y="805" on="0"/>
        <pt x="665" y="801" on="0"/>
        <pt x="720" y="800" on="0"/>
        <pt x="774" y="803" on="0"/>
        <pt x="798" y="806" on="1"/>
        <pt x="832" y="811" on="0"/>
        <pt x="911" y="841" on="0"/>
        <pt x="977" y="912" on="0"/>
        <pt x="1021" y="1031" on="0"/>
        <pt x="1021" y="1124" on="1"/>
        <pt x="1021" y="1173" on="0"/>
        <pt x="990" y="1273" on="0"/>
        <pt x="917" y="1353" on="0"/>
        <pt x="798" y="1403" on="0"/>
        <pt x="710" y="1403" on="1"/>
        <pt x="696" y="1403" on="0"/>
        <pt x="661" y="1403" on="0"/>
        <pt x="627" y="1400" on="0"/>
        <pt x="598" y="1395" on="0"/>
        <pt x="589" y="1391" on="1"/>
      </contour>
    </TTGlyph>
    <TTGlyph name="Racute" xMin="61" yMin="0" xMax="1545" yMax="1920">
      <contour>
        <pt x="581" y="1700" on="1"/>
        <pt x="974" y="1920" on="1"/>
        <pt x="1167" y="1728" on="1"/>
        <pt x="1139" y="1707" on="0"/>
        <pt x="1051" y="1670" on="0"/>
        <pt x="951" y="1639" on="0"/>
        <pt x="847" y="1616" on="0"/>
        <pt x="758" y="1600" on="0"/>
        <pt x="693" y="1592" on="0"/>
        <pt x="682" y="1593" on="1"/>
      </contour>
      <contour>
        <pt x="61" y="140" on="1"/>
        <pt x="235" y="183" on="1"/>
        <pt x="235" y="1356" on="1"/>
        <pt x="80" y="1380" on="1"/>
        <pt x="80" y="1553" on="1"/>
        <pt x="305" y="1553" on="1"/>
        <pt x="448" y="1553" on="0"/>
        <pt x="683" y="1567" on="0"/>
        <pt x="760" y="1567" on="1"/>
        <pt x="888" y="1567" on="0"/>
        <pt x="1109" y="1523" on="0"/>
        <pt x="1271" y="1425" on="0"/>
        <pt x="1364" y="1271" on="0"/>
        <pt x="1364" y="1161" on="1"/>
        <pt x="1364" y="983" on="0"/>
        <pt x="1200" y="750" on="0"/>
        <pt x="1026" y="691" on="1"/>
        <pt x="1067" y="669" on="0"/>
        <pt x="1140" y="584" on="0"/>
        <pt x="1206" y="481" on="0"/>
        <pt x="1267" y="369" on="0"/>
        <pt x="1326" y="270" on="0"/>
        <pt x="1384" y="193" on="0"/>
        <pt x="1415" y="177" on="1"/>
        <pt x="1545" y="140" on="1"/>
        <pt x="1545" y="0" on="1"/>
        <pt x="1122" y="0" on="1"/>
        <pt x="1097" y="0" on="0"/>
        <pt x="1050" y="55" on="0"/>
        <pt x="1003" y="146" on="0"/>
        <pt x="955" y="262" on="0"/>
        <pt x="907" y="383" on="0"/>
        <pt x="856" y="498" on="0"/>
        <pt x="801" y="589" on="0"/>
        <pt x="742" y="645" on="0"/>
        <pt x="710" y="645" on="1"/>
        <pt x="678" y="644" on="0"/>
        <pt x="617" y="645" on="0"/>
        <pt x="589" y="644" on="1"/>
        <pt x="589" y="178" on="1"/>
        <pt x="780" y="140" on="1"/>
        <pt x="780" y="0" on="1"/>
        <pt x="61" y="0" on="1"/>
      </contour>
      <contour>
        <pt x="589" y="809" on="1"/>
        <pt x="612" y="805" on="0"/>
        <pt x="665" y="801" on="0"/>
        <pt x="720" y="800" on="0"/>
        <pt x="774" y="803" on="0"/>
        <pt x="798" y="806" on="1"/>
        <pt x="832" y="811" on="0"/>
        <pt x="911" y="841" on="0"/>
        <pt x="977" y="912" on="0"/>
        <pt x="1021" y="1031" on="0"/>
        <pt x="1021" y="1124" on="1"/>
        <pt x="1021" y="1173" on="0"/>
        <pt x="990" y="1273" on="0"/>
        <pt x="917" y="1353" on="0"/>
        <pt x="798" y="1403" on="0"/>
        <pt x="710" y="1403" on="1"/>
        <pt x="696" y="1403" on="0"/>
        <pt x="661" y="1403" on="0"/>
        <pt x="627" y="1400" on="0"/>
        <pt x="598" y="1395" on="0"/>
        <pt x="589" y="1391" on="1"/>
      </contour>
    </TTGlyph>
    <TTGlyph name="Rcaron" xMin="61" yMin="0" xMax="1545" yMax="1920">
      <contour>
        <pt x="334" y="1847" on="1"/>
        <pt x="446" y="1920" on="1"/>
        <pt x="728" y="1792" on="1"/>
        <pt x="1020" y="1920" on="1"/>
        <pt x="1131" y="1847" on="1"/>
        <pt x="846" y="1597" on="1"/>
        <pt x="614" y="1597" on="1"/>
      </contour>
      <contour>
        <pt x="61" y="140" on="1"/>
        <pt x="235" y="183" on="1"/>
        <pt x="235" y="1356" on="1"/>
        <pt x="80" y="1380" on="1"/>
        <pt x="80" y="1553" on="1"/>
        <pt x="305" y="1553" on="1"/>
        <pt x="448" y="1553" on="0"/>
        <pt x="683" y="1567" on="0"/>
        <pt x="760" y="1567" on="1"/>
        <pt x="888" y="1567" on="0"/>
        <pt x="1109" y="1523" on="0"/>
        <pt x="1271" y="1425" on="0"/>
        <pt x="1364" y="1271" on="0"/>
        <pt x="1364" y="1161" on="1"/>
        <pt x="1364" y="983" on="0"/>
        <pt x="1200" y="750" on="0"/>
        <pt x="1026" y="691" on="1"/>
        <pt x="1067" y="669" on="0"/>
        <pt x="1140" y="584" on="0"/>
        <pt x="1206" y="481" on="0"/>
        <pt x="1267" y="369" on="0"/>
        <pt x="1326" y="270" on="0"/>
        <pt x="1384" y="193" on="0"/>
        <pt x="1415" y="177" on="1"/>
        <pt x="1545" y="140" on="1"/>
        <pt x="1545" y="0" on="1"/>
        <pt x="1122" y="0" on="1"/>
        <pt x="1097" y="0" on="0"/>
        <pt x="1050" y="55" on="0"/>
        <pt x="1003" y="146" on="0"/>
        <pt x="955" y="262" on="0"/>
        <pt x="907" y="383" on="0"/>
        <pt x="856" y="498" on="0"/>
        <pt x="801" y="589" on="0"/>
        <pt x="742" y="645" on="0"/>
        <pt x="710" y="645" on="1"/>
        <pt x="678" y="644" on="0"/>
        <pt x="617" y="645" on="0"/>
        <pt x="589" y="644" on="1"/>
        <pt x="589" y="178" on="1"/>
        <pt x="780" y="140" on="1"/>
        <pt x="780" y="0" on="1"/>
        <pt x="61" y="0" on="1"/>
      </contour>
      <contour>
        <pt x="589" y="809" on="1"/>
        <pt x="612" y="805" on="0"/>
        <pt x="665" y="801" on="0"/>
        <pt x="720" y="800" on="0"/>
        <pt x="774" y="803" on="0"/>
        <pt x="798" y="806" on="1"/>
        <pt x="832" y="811" on="0"/>
        <pt x="911" y="841" on="0"/>
        <pt x="977" y="912" on="0"/>
        <pt x="1021" y="1031" on="0"/>
        <pt x="1021" y="1124" on="1"/>
        <pt x="1021" y="1173" on="0"/>
        <pt x="990" y="1273" on="0"/>
        <pt x="917" y="1353" on="0"/>
        <pt x="798" y="1403" on="0"/>
        <pt x="710" y="1403" on="1"/>
        <pt x="696" y="1403" on="0"/>
        <pt x="661" y="1403" on="0"/>
        <pt x="627" y="1400" on="0"/>
        <pt x="598" y="1395" on="0"/>
        <pt x="589" y="1391" on="1"/>
      </contour>
    </TTGlyph>
    <TTGlyph name="Rcommaaccent" xMin="61" yMin="-640" xMax="1545" yMax="1567">
      <contour>
        <pt x="61" y="140" on="1"/>
        <pt x="235" y="183" on="1"/>
        <pt x="235" y="1356" on="1"/>
        <pt x="80" y="1380" on="1"/>
        <pt x="80" y="1553" on="1"/>
        <pt x="305" y="1553" on="1"/>
        <pt x="448" y="1553" on="0"/>
        <pt x="683" y="1567" on="0"/>
        <pt x="760" y="1567" on="1"/>
        <pt x="888" y="1567" on="0"/>
        <pt x="1109" y="1523" on="0"/>
        <pt x="1271" y="1425" on="0"/>
        <pt x="1364" y="1271" on="0"/>
        <pt x="1364" y="1161" on="1"/>
        <pt x="1364" y="983" on="0"/>
        <pt x="1200" y="750" on="0"/>
        <pt x="1026" y="691" on="1"/>
        <pt x="1067" y="669" on="0"/>
        <pt x="1140" y="584" on="0"/>
        <pt x="1206" y="481" on="0"/>
        <pt x="1267" y="369" on="0"/>
        <pt x="1326" y="270" on="0"/>
        <pt x="1384" y="193" on="0"/>
        <pt x="1415" y="177" on="1"/>
        <pt x="1545" y="140" on="1"/>
        <pt x="1545" y="0" on="1"/>
        <pt x="1122" y="0" on="1"/>
        <pt x="1097" y="0" on="0"/>
        <pt x="1050" y="55" on="0"/>
        <pt x="1003" y="146" on="0"/>
        <pt x="955" y="262" on="0"/>
        <pt x="907" y="383" on="0"/>
        <pt x="856" y="498" on="0"/>
        <pt x="801" y="589" on="0"/>
        <pt x="742" y="645" on="0"/>
        <pt x="710" y="645" on="1"/>
        <pt x="678" y="644" on="0"/>
        <pt x="617" y="645" on="0"/>
        <pt x="589" y="644" on="1"/>
        <pt x="589" y="178" on="1"/>
        <pt x="780" y="140" on="1"/>
        <pt x="780" y="0" on="1"/>
        <pt x="61" y="0" on="1"/>
      </contour>
      <contour>
        <pt x="589" y="809" on="1"/>
        <pt x="612" y="805" on="0"/>
        <pt x="665" y="801" on="0"/>
        <pt x="720" y="800" on="0"/>
        <pt x="774" y="803" on="0"/>
        <pt x="798" y="806" on="1"/>
        <pt x="832" y="811" on="0"/>
        <pt x="911" y="841" on="0"/>
        <pt x="977" y="912" on="0"/>
        <pt x="1021" y="1031" on="0"/>
        <pt x="1021" y="1124" on="1"/>
        <pt x="1021" y="1173" on="0"/>
        <pt x="990" y="1273" on="0"/>
        <pt x="917" y="1353" on="0"/>
        <pt x="798" y="1403" on="0"/>
        <pt x="710" y="1403" on="1"/>
        <pt x="696" y="1403" on="0"/>
        <pt x="661" y="1403" on="0"/>
        <pt x="627" y="1400" on="0"/>
        <pt x="598" y="1395" on="0"/>
        <pt x="589" y="1391" on="1"/>
      </contour>
      <contour>
        <pt x="834" y="-40" on="1"/>
        <pt x="886" y="-40" on="0"/>
        <pt x="982" y="-78" on="0"/>
        <pt x="1054" y="-151" on="0"/>
        <pt x="1097" y="-255" on="0"/>
        <pt x="1097" y="-321" on="1"/>
        <pt x="1097" y="-364" on="0"/>
        <pt x="1071" y="-441" on="0"/>
        <pt x="1028" y="-508" on="0"/>
        <pt x="973" y="-564" on="0"/>
        <pt x="917" y="-606" on="0"/>
        <pt x="863" y="-634" on="0"/>
        <pt x="843" y="-640" on="1"/>
        <pt x="715" y="-589" on="1"/>
        <pt x="715" y="-568" on="1"/>
        <pt x="727" y="-555" on="0"/>
        <pt x="760" y="-527" on="0"/>
        <pt x="790" y="-491" on="0"/>
        <pt x="811" y="-445" on="0"/>
        <pt x="811" y="-414" on="1"/>
        <pt x="811" y="-387" on="0"/>
        <pt x="791" y="-339" on="0"/>
        <pt x="757" y="-302" on="0"/>
        <pt x="711" y="-280" on="0"/>
        <pt x="686" y="-280" on="1"/>
        <pt x="686" y="-203" on="1"/>
      </contour>
    </TTGlyph>
    <TTGlyph name="S" xMin="131" yMin="-28" xMax="1255" yMax="1567">
      <contour>
        <pt x="137" y="469" on="1"/>
        <pt x="287" y="469" on="1"/>
        <pt x="380" y="228" on="1"/>
        <pt x="407" y="193" on="0"/>
        <pt x="472" y="152" on="0"/>
        <pt x="545" y="131" on="0"/>
        <pt x="623" y="126" on="0"/>
        <pt x="662" y="126" on="1"/>
        <pt x="701" y="126" on="0"/>
        <pt x="785" y="147" on="0"/>
        <pt x="854" y="198" on="0"/>
        <pt x="899" y="283" on="0"/>
        <pt x="899" y="348" on="1"/>
        <pt x="899" y="399" on="0"/>
        <pt x="837" y="483" on="0"/>
        <pt x="735" y="559" on="0"/>
        <pt x="604" y="629" on="0"/>
        <pt x="535" y="667" on="1"/>
        <pt x="460" y="707" on="0"/>
        <pt x="315" y="799" on="0"/>
        <pt x="201" y="912" on="0"/>
        <pt x="131" y="1052" on="0"/>
        <pt x="131" y="1141" on="1"/>
        <pt x="131" y="1244" on="0"/>
        <pt x="223" y="1403" on="0"/>
        <pt x="373" y="1511" on="0"/>
        <pt x="566" y="1567" on="0"/>
        <pt x="668" y="1567" on="1"/>
        <pt x="750" y="1567" on="0"/>
        <pt x="910" y="1552" on="0"/>
        <pt x="1043" y="1530" on="0"/>
        <pt x="1136" y="1505" on="0"/>
        <pt x="1152" y="1495" on="1"/>
        <pt x="1152" y="1164" on="1"/>
        <pt x="988" y="1164" on="1"/>
        <pt x="894" y="1374" on="1"/>
        <pt x="889" y="1380" on="0"/>
        <pt x="852" y="1396" on="0"/>
        <pt x="798" y="1411" on="0"/>
        <pt x="734" y="1421" on="0"/>
        <pt x="703" y="1421" on="1"/>
        <pt x="663" y="1421" on="0"/>
        <pt x="580" y="1405" on="0"/>
        <pt x="513" y="1368" on="0"/>
        <pt x="470" y="1305" on="0"/>
        <pt x="469" y="1257" on="1"/>
        <pt x="469" y="1201" on="0"/>
        <pt x="516" y="1109" on="0"/>
        <pt x="596" y="1031" on="0"/>
        <pt x="702" y="963" on="0"/>
        <pt x="761" y="930" on="1"/>
        <pt x="817" y="899" on="0"/>
        <pt x="934" y="837" on="0"/>
        <pt x="1044" y="768" on="0"/>
        <pt x="1141" y="691" on="0"/>
        <pt x="1213" y="598" on="0"/>
        <pt x="1255" y="488" on="0"/>
        <pt x="1255" y="421" on="1"/>
        <pt x="1255" y="325" on="0"/>
        <pt x="1173" y="161" on="0"/>
        <pt x="1020" y="41" on="0"/>
        <pt x="799" y="-28" on="0"/>
        <pt x="660" y="-28" on="1"/>
        <pt x="590" y="-28" on="0"/>
        <pt x="438" y="-14" on="0"/>
        <pt x="296" y="10" on="0"/>
        <pt x="175" y="44" on="0"/>
        <pt x="137" y="64" on="1"/>
      </contour>
    </TTGlyph>
    <TTGlyph name="Scaron" xMin="126" yMin="-28" xMax="1250" yMax="1920">
      <contour>
        <pt x="250" y="1847" on="1"/>
        <pt x="362" y="1920" on="1"/>
        <pt x="644" y="1792" on="1"/>
        <pt x="936" y="1920" on="1"/>
        <pt x="1047" y="1847" on="1"/>
        <pt x="762" y="1597" on="1"/>
        <pt x="530" y="1597" on="1"/>
      </contour>
      <contour>
        <pt x="132" y="469" on="1"/>
        <pt x="282" y="469" on="1"/>
        <pt x="375" y="228" on="1"/>
        <pt x="402" y="193" on="0"/>
        <pt x="467" y="152" on="0"/>
        <pt x="540" y="131" on="0"/>
        <pt x="618" y="126" on="0"/>
        <pt x="657" y="126" on="1"/>
        <pt x="696" y="126" on="0"/>
        <pt x="780" y="147" on="0"/>
        <pt x="849" y="198" on="0"/>
        <pt x="894" y="283" on="0"/>
        <pt x="894" y="348" on="1"/>
        <pt x="894" y="399" on="0"/>
        <pt x="832" y="483" on="0"/>
        <pt x="730" y="559" on="0"/>
        <pt x="599" y="629" on="0"/>
        <pt x="530" y="667" on="1"/>
        <pt x="455" y="707" on="0"/>
        <pt x="310" y="799" on="0"/>
        <pt x="196" y="912" on="0"/>
        <pt x="126" y="1052" on="0"/>
        <pt x="126" y="1141" on="1"/>
        <pt x="126" y="1244" on="0"/>
        <pt x="218" y="1403" on="0"/>
        <pt x="368" y="1511" on="0"/>
        <pt x="561" y="1567" on="0"/>
        <pt x="663" y="1567" on="1"/>
        <pt x="745" y="1567" on="0"/>
        <pt x="905" y="1552" on="0"/>
        <pt x="1038" y="1530" on="0"/>
        <pt x="1131" y="1505" on="0"/>
        <pt x="1147" y="1495" on="1"/>
        <pt x="1147" y="1164" on="1"/>
        <pt x="983" y="1164" on="1"/>
        <pt x="889" y="1374" on="1"/>
        <pt x="884" y="1380" on="0"/>
        <pt x="847" y="1396" on="0"/>
        <pt x="793" y="1411" on="0"/>
        <pt x="729" y="1421" on="0"/>
        <pt x="698" y="1421" on="1"/>
        <pt x="658" y="1421" on="0"/>
        <pt x="575" y="1405" on="0"/>
        <pt x="508" y="1368" on="0"/>
        <pt x="465" y="1305" on="0"/>
        <pt x="464" y="1257" on="1"/>
        <pt x="464" y="1201" on="0"/>
        <pt x="511" y="1109" on="0"/>
        <pt x="591" y="1031" on="0"/>
        <pt x="697" y="963" on="0"/>
        <pt x="756" y="930" on="1"/>
        <pt x="812" y="899" on="0"/>
        <pt x="929" y="837" on="0"/>
        <pt x="1039" y="768" on="0"/>
        <pt x="1136" y="691" on="0"/>
        <pt x="1208" y="598" on="0"/>
        <pt x="1250" y="488" on="0"/>
        <pt x="1250" y="421" on="1"/>
        <pt x="1250" y="325" on="0"/>
        <pt x="1168" y="161" on="0"/>
        <pt x="1015" y="41" on="0"/>
        <pt x="794" y="-28" on="0"/>
        <pt x="655" y="-28" on="1"/>
        <pt x="585" y="-28" on="0"/>
        <pt x="433" y="-14" on="0"/>
        <pt x="291" y="10" on="0"/>
        <pt x="170" y="44" on="0"/>
        <pt x="132" y="64" on="1"/>
      </contour>
    </TTGlyph>
    <TTGlyph name="T" xMin="47" yMin="0" xMax="1410" yMax="1553">
      <contour>
        <pt x="341" y="140" on="1"/>
        <pt x="571" y="179" on="1"/>
        <pt x="571" y="1385" on="1"/>
        <pt x="297" y="1358" on="1"/>
        <pt x="228" y="1143" on="1"/>
        <pt x="47" y="1134" on="1"/>
        <pt x="71" y="1553" on="1"/>
        <pt x="1410" y="1553" on="1"/>
        <pt x="1408" y="1146" on="1"/>
        <pt x="1267" y="1129" on="1"/>
        <pt x="1190" y="1358" on="1"/>
        <pt x="925" y="1385" on="1"/>
        <pt x="925" y="180" on="1"/>
        <pt x="1150" y="140" on="1"/>
        <pt x="1150" y="0" on="1"/>
        <pt x="341" y="0" on="1"/>
      </contour>
    </TTGlyph>
    <TTGlyph name="Thorn" xMin="23" yMin="0" xMax="1375" yMax="1553">
      <contour>
        <pt x="71" y="140" on="1"/>
        <pt x="235" y="183" on="1"/>
        <pt x="235" y="1364" on="1"/>
        <pt x="23" y="1389" on="1"/>
        <pt x="23" y="1553" on="1"/>
        <pt x="788" y="1553" on="1"/>
        <pt x="788" y="1389" on="1"/>
        <pt x="589" y="1364" on="1"/>
        <pt x="589" y="1211" on="1"/>
        <pt x="643" y="1217" on="0"/>
        <pt x="757" y="1228" on="0"/>
        <pt x="811" y="1228" on="1"/>
        <pt x="940" y="1228" on="0"/>
        <pt x="1148" y="1185" on="0"/>
        <pt x="1295" y="1088" on="0"/>
        <pt x="1375" y="932" on="0"/>
        <pt x="1375" y="820" on="1"/>
        <pt x="1375" y="695" on="0"/>
        <pt x="1294" y="506" on="0"/>
        <pt x="1140" y="377" on="0"/>
        <pt x="919" y="312" on="0"/>
        <pt x="780" y="312" on="1"/>
        <pt x="723" y="312" on="0"/>
        <pt x="619" y="317" on="0"/>
        <pt x="589" y="319" on="1"/>
        <pt x="589" y="182" on="1"/>
        <pt x="843" y="140" on="1"/>
        <pt x="843" y="0" on="1"/>
        <pt x="71" y="0" on="1"/>
      </contour>
      <contour>
        <pt x="589" y="483" on="1"/>
        <pt x="599" y="481" on="0"/>
        <pt x="632" y="478" on="0"/>
        <pt x="672" y="477" on="0"/>
        <pt x="716" y="476" on="0"/>
        <pt x="736" y="476" on="1"/>
        <pt x="799" y="476" on="0"/>
        <pt x="898" y="523" on="0"/>
        <pt x="968" y="608" on="0"/>
        <pt x="1005" y="726" on="0"/>
        <pt x="1005" y="797" on="1"/>
        <pt x="1005" y="869" on="0"/>
        <pt x="957" y="969" on="0"/>
        <pt x="874" y="1030" on="0"/>
        <pt x="764" y="1057" on="0"/>
        <pt x="701" y="1056" on="1"/>
        <pt x="650" y="1055" on="0"/>
        <pt x="602" y="1053" on="0"/>
        <pt x="589" y="1051" on="1"/>
      </contour>
    </TTGlyph>
    <TTGlyph name="U" xMin="40" yMin="-28" xMax="1584" yMax="1553">
      <contour>
        <pt x="198" y="1365" on="1"/>
        <pt x="40" y="1389" on="1"/>
        <pt x="40" y="1553" on="1"/>
        <pt x="722" y="1553" on="1"/>
        <pt x="722" y="1389" on="1"/>
        <pt x="553" y="1366" on="1"/>
        <pt x="553" y="610" on="1"/>
        <pt x="553" y="509" on="0"/>
        <pt x="581" y="362" on="0"/>
        <pt x="631" y="260" on="0"/>
        <pt x="698" y="197" on="0"/>
        <pt x="774" y="162" on="0"/>
        <pt x="856" y="150" on="0"/>
        <pt x="897" y="150" on="1"/>
        <pt x="966" y="150" on="0"/>
        <pt x="1083" y="198" on="0"/>
        <pt x="1169" y="316" on="0"/>
        <pt x="1217" y="515" on="0"/>
        <pt x="1216" y="666" on="1"/>
        <pt x="1213" y="1363" on="1"/>
        <pt x="1045" y="1389" on="1"/>
        <pt x="1045" y="1553" on="1"/>
        <pt x="1584" y="1553" on="1"/>
        <pt x="1584" y="1389" on="1"/>
        <pt x="1440" y="1363" on="1"/>
        <pt x="1440" y="667" on="1"/>
        <pt x="1440" y="530" on="0"/>
        <pt x="1396" y="321" on="0"/>
        <pt x="1316" y="166" on="0"/>
        <pt x="1206" y="62" on="0"/>
        <pt x="1076" y="-1" on="0"/>
        <pt x="929" y="-28" on="0"/>
        <pt x="853" y="-28" on="1"/>
        <pt x="517" y="-28" on="0"/>
        <pt x="192" y="294" on="0"/>
        <pt x="194" y="625" on="1"/>
      </contour>
    </TTGlyph>
    <TTGlyph name="Uacute" xMin="35" yMin="-28" xMax="1579" yMax="1920">
      <contour>
        <pt x="713" y="1700" on="1"/>
        <pt x="1106" y="1920" on="1"/>
        <pt x="1299" y="1728" on="1"/>
        <pt x="1271" y="1707" on="0"/>
        <pt x="1183" y="1670" on="0"/>
        <pt x="1083" y="1639" on="0"/>
        <pt x="979" y="1616" on="0"/>
        <pt x="890" y="1600" on="0"/>
        <pt x="825" y="1592" on="0"/>
        <pt x="814" y="1593" on="1"/>
      </contour>
      <contour>
        <pt x="193" y="1365" on="1"/>
        <pt x="35" y="1389" on="1"/>
        <pt x="35" y="1553" on="1"/>
        <pt x="717" y="1553" on="1"/>
        <pt x="717" y="1389" on="1"/>
        <pt x="548" y="1366" on="1"/>
        <pt x="548" y="610" on="1"/>
        <pt x="548" y="509" on="0"/>
        <pt x="576" y="362" on="0"/>
        <pt x="626" y="260" on="0"/>
        <pt x="693" y="197" on="0"/>
        <pt x="769" y="162" on="0"/>
        <pt x="851" y="150" on="0"/>
        <pt x="892" y="150" on="1"/>
        <pt x="961" y="150" on="0"/>
        <pt x="1078" y="198" on="0"/>
        <pt x="1164" y="316" on="0"/>
        <pt x="1212" y="515" on="0"/>
        <pt x="1211" y="666" on="1"/>
        <pt x="1208" y="1363" on="1"/>
        <pt x="1040" y="1389" on="1"/>
        <pt x="1040" y="1553" on="1"/>
        <pt x="1579" y="1553" on="1"/>
        <pt x="1579" y="1389" on="1"/>
        <pt x="1435" y="1363" on="1"/>
        <pt x="1435" y="667" on="1"/>
        <pt x="1435" y="530" on="0"/>
        <pt x="1391" y="321" on="0"/>
        <pt x="1311" y="166" on="0"/>
        <pt x="1201" y="62" on="0"/>
        <pt x="1071" y="-1" on="0"/>
        <pt x="924" y="-28" on="0"/>
        <pt x="848" y="-28" on="1"/>
        <pt x="512" y="-28" on="0"/>
        <pt x="187" y="294" on="0"/>
        <pt x="189" y="625" on="1"/>
      </contour>
    </TTGlyph>
    <TTGlyph name="Ucircumflex" xMin="35" yMin="-28" xMax="1579" yMax="1920">
      <contour>
        <pt x="476" y="1670" on="1"/>
        <pt x="751" y="1920" on="1"/>
        <pt x="983" y="1920" on="1"/>
        <pt x="1253" y="1670" on="1"/>
        <pt x="1141" y="1597" on="1"/>
        <pt x="869" y="1726" on="1"/>
        <pt x="587" y="1597" on="1"/>
      </contour>
      <contour>
        <pt x="193" y="1365" on="1"/>
        <pt x="35" y="1389" on="1"/>
        <pt x="35" y="1553" on="1"/>
        <pt x="717" y="1553" on="1"/>
        <pt x="717" y="1389" on="1"/>
        <pt x="548" y="1366" on="1"/>
        <pt x="548" y="610" on="1"/>
        <pt x="548" y="509" on="0"/>
        <pt x="576" y="362" on="0"/>
        <pt x="626" y="260" on="0"/>
        <pt x="693" y="197" on="0"/>
        <pt x="769" y="162" on="0"/>
        <pt x="851" y="150" on="0"/>
        <pt x="892" y="150" on="1"/>
        <pt x="961" y="150" on="0"/>
        <pt x="1078" y="198" on="0"/>
        <pt x="1164" y="316" on="0"/>
        <pt x="1212" y="515" on="0"/>
        <pt x="1211" y="666" on="1"/>
        <pt x="1208" y="1363" on="1"/>
        <pt x="1040" y="1389" on="1"/>
        <pt x="1040" y="1553" on="1"/>
        <pt x="1579" y="1553" on="1"/>
        <pt x="1579" y="1389" on="1"/>
        <pt x="1435" y="1363" on="1"/>
        <pt x="1435" y="667" on="1"/>
        <pt x="1435" y="530" on="0"/>
        <pt x="1391" y="321" on="0"/>
        <pt x="1311" y="166" on="0"/>
        <pt x="1201" y="62" on="0"/>
        <pt x="1071" y="-1" on="0"/>
        <pt x="924" y="-28" on="0"/>
        <pt x="848" y="-28" on="1"/>
        <pt x="512" y="-28" on="0"/>
        <pt x="187" y="294" on="0"/>
        <pt x="189" y="625" on="1"/>
      </contour>
    </TTGlyph>
    <TTGlyph name="Udieresis" xMin="35" yMin="-28" xMax="1579" yMax="1920">
      <contour>
        <pt x="1126" y="1619" on="1"/>
        <pt x="1091" y="1619" on="0"/>
        <pt x="1026" y="1637" on="0"/>
        <pt x="975" y="1673" on="0"/>
        <pt x="945" y="1725" on="0"/>
        <pt x="945" y="1759" on="1"/>
        <pt x="945" y="1794" on="0"/>
        <pt x="981" y="1853" on="0"/>
        <pt x="1040" y="1896" on="0"/>
        <pt x="1114" y="1920" on="0"/>
        <pt x="1152" y="1920" on="1"/>
        <pt x="1201" y="1920" on="0"/>
        <pt x="1269" y="1899" on="0"/>
        <pt x="1311" y="1862" on="0"/>
        <pt x="1330" y="1811" on="0"/>
        <pt x="1330" y="1782" on="1"/>
        <pt x="1330" y="1744" on="0"/>
        <pt x="1296" y="1684" on="0"/>
        <pt x="1240" y="1642" on="0"/>
        <pt x="1166" y="1619" on="0"/>
      </contour>
      <contour>
        <pt x="578" y="1618" on="1"/>
        <pt x="542" y="1618" on="0"/>
        <pt x="478" y="1636" on="0"/>
        <pt x="429" y="1671" on="0"/>
        <pt x="401" y="1723" on="0"/>
        <pt x="401" y="1756" on="1"/>
        <pt x="401" y="1792" on="0"/>
        <pt x="436" y="1852" on="0"/>
        <pt x="494" y="1896" on="0"/>
        <pt x="567" y="1920" on="0"/>
        <pt x="606" y="1920" on="1"/>
        <pt x="655" y="1920" on="0"/>
        <pt x="724" y="1898" on="0"/>
        <pt x="769" y="1861" on="0"/>
        <pt x="790" y="1810" on="0"/>
        <pt x="790" y="1780" on="1"/>
        <pt x="790" y="1743" on="0"/>
        <pt x="755" y="1683" on="0"/>
        <pt x="696" y="1641" on="0"/>
        <pt x="619" y="1618" on="0"/>
      </contour>
      <contour>
        <pt x="193" y="1365" on="1"/>
        <pt x="35" y="1389" on="1"/>
        <pt x="35" y="1553" on="1"/>
        <pt x="717" y="1553" on="1"/>
        <pt x="717" y="1389" on="1"/>
        <pt x="548" y="1366" on="1"/>
        <pt x="548" y="610" on="1"/>
        <pt x="548" y="509" on="0"/>
        <pt x="576" y="362" on="0"/>
        <pt x="626" y="260" on="0"/>
        <pt x="693" y="197" on="0"/>
        <pt x="769" y="162" on="0"/>
        <pt x="851" y="150" on="0"/>
        <pt x="892" y="150" on="1"/>
        <pt x="961" y="150" on="0"/>
        <pt x="1078" y="198" on="0"/>
        <pt x="1164" y="316" on="0"/>
        <pt x="1212" y="515" on="0"/>
        <pt x="1211" y="666" on="1"/>
        <pt x="1208" y="1363" on="1"/>
        <pt x="1040" y="1389" on="1"/>
        <pt x="1040" y="1553" on="1"/>
        <pt x="1579" y="1553" on="1"/>
        <pt x="1579" y="1389" on="1"/>
        <pt x="1435" y="1363" on="1"/>
        <pt x="1435" y="667" on="1"/>
        <pt x="1435" y="530" on="0"/>
        <pt x="1391" y="321" on="0"/>
        <pt x="1311" y="166" on="0"/>
        <pt x="1201" y="62" on="0"/>
        <pt x="1071" y="-1" on="0"/>
        <pt x="924" y="-28" on="0"/>
        <pt x="848" y="-28" on="1"/>
        <pt x="512" y="-28" on="0"/>
        <pt x="187" y="294" on="0"/>
        <pt x="189" y="625" on="1"/>
      </contour>
    </TTGlyph>
    <TTGlyph name="Ugrave" xMin="35" yMin="-28" xMax="1579" yMax="1920">
      <contour>
        <pt x="636" y="1920" on="1"/>
        <pt x="1009" y="1700" on="1"/>
        <pt x="908" y="1593" on="1"/>
        <pt x="897" y="1592" on="0"/>
        <pt x="835" y="1600" on="0"/>
        <pt x="750" y="1616" on="0"/>
        <pt x="652" y="1639" on="0"/>
        <pt x="556" y="1670" on="0"/>
        <pt x="471" y="1707" on="0"/>
        <pt x="443" y="1728" on="1"/>
      </contour>
      <contour>
        <pt x="193" y="1365" on="1"/>
        <pt x="35" y="1389" on="1"/>
        <pt x="35" y="1553" on="1"/>
        <pt x="717" y="1553" on="1"/>
        <pt x="717" y="1389" on="1"/>
        <pt x="548" y="1366" on="1"/>
        <pt x="548" y="610" on="1"/>
        <pt x="548" y="509" on="0"/>
        <pt x="576" y="362" on="0"/>
        <pt x="626" y="260" on="0"/>
        <pt x="693" y="197" on="0"/>
        <pt x="769" y="162" on="0"/>
        <pt x="851" y="150" on="0"/>
        <pt x="892" y="150" on="1"/>
        <pt x="961" y="150" on="0"/>
        <pt x="1078" y="198" on="0"/>
        <pt x="1164" y="316" on="0"/>
        <pt x="1212" y="515" on="0"/>
        <pt x="1211" y="666" on="1"/>
        <pt x="1208" y="1363" on="1"/>
        <pt x="1040" y="1389" on="1"/>
        <pt x="1040" y="1553" on="1"/>
        <pt x="1579" y="1553" on="1"/>
        <pt x="1579" y="1389" on="1"/>
        <pt x="1435" y="1363" on="1"/>
        <pt x="1435" y="667" on="1"/>
        <pt x="1435" y="530" on="0"/>
        <pt x="1391" y="321" on="0"/>
        <pt x="1311" y="166" on="0"/>
        <pt x="1201" y="62" on="0"/>
        <pt x="1071" y="-1" on="0"/>
        <pt x="924" y="-28" on="0"/>
        <pt x="848" y="-28" on="1"/>
        <pt x="512" y="-28" on="0"/>
        <pt x="187" y="294" on="0"/>
        <pt x="189" y="625" on="1"/>
      </contour>
    </TTGlyph>
    <TTGlyph name="V" xMin="13" yMin="-15" xMax="1480" yMax="1553">
      <contour>
        <pt x="131" y="1370" on="1"/>
        <pt x="13" y="1389" on="1"/>
        <pt x="13" y="1553" on="1"/>
        <pt x="680" y="1553" on="1"/>
        <pt x="680" y="1392" on="1"/>
        <pt x="517" y="1367" on="1"/>
        <pt x="733" y="613" on="1"/>
        <pt x="797" y="344" on="1"/>
        <pt x="858" y="607" on="1"/>
        <pt x="1062" y="1366" on="1"/>
        <pt x="908" y="1389" on="1"/>
        <pt x="908" y="1552" on="1"/>
        <pt x="1480" y="1552" on="1"/>
        <pt x="1480" y="1389" on="1"/>
        <pt x="1359" y="1370" on="1"/>
        <pt x="907" y="-15" on="1"/>
        <pt x="633" y="-15" on="1"/>
      </contour>
    </TTGlyph>
    <TTGlyph name="W" xMin="15" yMin="-16" xMax="2266" yMax="1553">
      <contour>
        <pt x="139" y="1369" on="1"/>
        <pt x="15" y="1388" on="1"/>
        <pt x="15" y="1553" on="1"/>
        <pt x="640" y="1553" on="1"/>
        <pt x="640" y="1390" on="1"/>
        <pt x="521" y="1369" on="1"/>
        <pt x="755" y="444" on="1"/>
        <pt x="763" y="401" on="0"/>
        <pt x="780" y="318" on="0"/>
        <pt x="789" y="276" on="1"/>
        <pt x="822" y="444" on="1"/>
        <pt x="1012" y="1210" on="1"/>
        <pt x="972" y="1369" on="1"/>
        <pt x="842" y="1388" on="1"/>
        <pt x="842" y="1553" on="1"/>
        <pt x="1488" y="1553" on="1"/>
        <pt x="1488" y="1390" on="1"/>
        <pt x="1326" y="1367" on="1"/>
        <pt x="1530" y="444" on="1"/>
        <pt x="1566" y="272" on="1"/>
        <pt x="1608" y="444" on="1"/>
        <pt x="1831" y="1368" on="1"/>
        <pt x="1681" y="1388" on="1"/>
        <pt x="1681" y="1553" on="1"/>
        <pt x="2266" y="1553" on="1"/>
        <pt x="2266" y="1388" on="1"/>
        <pt x="2115" y="1369" on="1"/>
        <pt x="1699" y="-16" on="1"/>
        <pt x="1358" y="-16" on="1"/>
        <pt x="1129" y="791" on="1"/>
        <pt x="907" y="-15" on="1"/>
        <pt x="587" y="-15" on="1"/>
      </contour>
    </TTGlyph>
    <TTGlyph name="X" xMin="24" yMin="0" xMax="1530" yMax="1553">
      <contour>
        <pt x="24" y="138" on="1"/>
        <pt x="200" y="182" on="1"/>
        <pt x="611" y="748" on="1"/>
        <pt x="185" y="1365" on="1"/>
        <pt x="24" y="1389" on="1"/>
        <pt x="24" y="1553" on="1"/>
        <pt x="731" y="1553" on="1"/>
        <pt x="731" y="1392" on="1"/>
        <pt x="585" y="1369" on="1"/>
        <pt x="799" y="975" on="1"/>
        <pt x="1042" y="1369" on="1"/>
        <pt x="906" y="1389" on="1"/>
        <pt x="906" y="1553" on="1"/>
        <pt x="1529" y="1553" on="1"/>
        <pt x="1529" y="1389" on="1"/>
        <pt x="1337" y="1367" on="1"/>
        <pt x="916" y="819" on="1"/>
        <pt x="1365" y="184" on="1"/>
        <pt x="1530" y="138" on="1"/>
        <pt x="1530" y="0" on="1"/>
        <pt x="827" y="0" on="1"/>
        <pt x="827" y="137" on="1"/>
        <pt x="970" y="177" on="1"/>
        <pt x="739" y="576" on="1"/>
        <pt x="505" y="183" on="1"/>
        <pt x="693" y="138" on="1"/>
        <pt x="693" y="0" on="1"/>
        <pt x="24" y="0" on="1"/>
      </contour>
    </TTGlyph>
    <TTGlyph name="Y" xMin="13" yMin="0" xMax="1467" yMax="1553">
      <contour>
        <pt x="349" y="140" on="1"/>
        <pt x="589" y="185" on="1"/>
        <pt x="589" y="511" on="1"/>
        <pt x="123" y="1370" on="1"/>
        <pt x="13" y="1389" on="1"/>
        <pt x="13" y="1553" on="1"/>
        <pt x="643" y="1553" on="1"/>
        <pt x="643" y="1392" on="1"/>
        <pt x="537" y="1372" on="1"/>
        <pt x="789" y="841" on="1"/>
        <pt x="818" y="747" on="1"/>
        <pt x="851" y="850" on="1"/>
        <pt x="1064" y="1364" on="1"/>
        <pt x="905" y="1389" on="1"/>
        <pt x="905" y="1431" on="0"/>
        <pt x="904" y="1511" on="0"/>
        <pt x="904" y="1553" on="1"/>
        <pt x="1467" y="1553" on="1"/>
        <pt x="1467" y="1389" on="1"/>
        <pt x="1335" y="1352" on="1"/>
        <pt x="945" y="543" on="1"/>
        <pt x="945" y="188" on="1"/>
        <pt x="1214" y="140" on="1"/>
        <pt x="1214" y="0" on="1"/>
        <pt x="349" y="0" on="1"/>
      </contour>
    </TTGlyph>
    <TTGlyph name="Yacute" xMin="8" yMin="0" xMax="1462" yMax="1920">
      <contour>
        <pt x="611" y="1700" on="1"/>
        <pt x="1004" y="1920" on="1"/>
        <pt x="1197" y="1728" on="1"/>
        <pt x="1169" y="1707" on="0"/>
        <pt x="1081" y="1670" on="0"/>
        <pt x="981" y="1639" on="0"/>
        <pt x="877" y="1616" on="0"/>
        <pt x="788" y="1600" on="0"/>
        <pt x="723" y="1592" on="0"/>
        <pt x="712" y="1593" on="1"/>
      </contour>
      <contour>
        <pt x="344" y="140" on="1"/>
        <pt x="584" y="185" on="1"/>
        <pt x="584" y="511" on="1"/>
        <pt x="118" y="1370" on="1"/>
        <pt x="8" y="1389" on="1"/>
        <pt x="8" y="1553" on="1"/>
        <pt x="638" y="1553" on="1"/>
        <pt x="638" y="1392" on="1"/>
        <pt x="532" y="1372" on="1"/>
        <pt x="784" y="841" on="1"/>
        <pt x="813" y="747" on="1"/>
        <pt x="846" y="850" on="1"/>
        <pt x="1059" y="1364" on="1"/>
        <pt x="900" y="1389" on="1"/>
        <pt x="900" y="1431" on="0"/>
        <pt x="899" y="1511" on="0"/>
        <pt x="899" y="1553" on="1"/>
        <pt x="1462" y="1553" on="1"/>
        <pt x="1462" y="1389" on="1"/>
        <pt x="1330" y="1352" on="1"/>
        <pt x="940" y="543" on="1"/>
        <pt x="940" y="188" on="1"/>
        <pt x="1209" y="140" on="1"/>
        <pt x="1209" y="0" on="1"/>
        <pt x="344" y="0" on="1"/>
      </contour>
    </TTGlyph>
    <TTGlyph name="Ydieresis" xMin="8" yMin="0" xMax="1462" yMax="1920">
      <contour>
        <pt x="1024" y="1619" on="1"/>
        <pt x="989" y="1619" on="0"/>
        <pt x="924" y="1637" on="0"/>
        <pt x="873" y="1673" on="0"/>
        <pt x="843" y="1725" on="0"/>
        <pt x="843" y="1759" on="1"/>
        <pt x="843" y="1794" on="0"/>
        <pt x="879" y="1853" on="0"/>
        <pt x="938" y="1896" on="0"/>
        <pt x="1012" y="1920" on="0"/>
        <pt x="1050" y="1920" on="1"/>
        <pt x="1099" y="1920" on="0"/>
        <pt x="1167" y="1899" on="0"/>
        <pt x="1209" y="1862" on="0"/>
        <pt x="1228" y="1811" on="0"/>
        <pt x="1228" y="1782" on="1"/>
        <pt x="1228" y="1744" on="0"/>
        <pt x="1194" y="1684" on="0"/>
        <pt x="1138" y="1642" on="0"/>
        <pt x="1064" y="1619" on="0"/>
      </contour>
      <contour>
        <pt x="476" y="1618" on="1"/>
        <pt x="440" y="1618" on="0"/>
        <pt x="376" y="1636" on="0"/>
        <pt x="327" y="1671" on="0"/>
        <pt x="299" y="1723" on="0"/>
        <pt x="299" y="1756" on="1"/>
        <pt x="299" y="1792" on="0"/>
        <pt x="334" y="1852" on="0"/>
        <pt x="392" y="1896" on="0"/>
        <pt x="465" y="1920" on="0"/>
        <pt x="504" y="1920" on="1"/>
        <pt x="553" y="1920" on="0"/>
        <pt x="622" y="1898" on="0"/>
        <pt x="667" y="1861" on="0"/>
        <pt x="688" y="1810" on="0"/>
        <pt x="688" y="1780" on="1"/>
        <pt x="688" y="1743" on="0"/>
        <pt x="653" y="1683" on="0"/>
        <pt x="594" y="1641" on="0"/>
        <pt x="517" y="1618" on="0"/>
      </contour>
      <contour>
        <pt x="344" y="140" on="1"/>
        <pt x="584" y="185" on="1"/>
        <pt x="584" y="511" on="1"/>
        <pt x="118" y="1370" on="1"/>
        <pt x="8" y="1389" on="1"/>
        <pt x="8" y="1553" on="1"/>
        <pt x="638" y="1553" on="1"/>
        <pt x="638" y="1392" on="1"/>
        <pt x="532" y="1372" on="1"/>
        <pt x="784" y="841" on="1"/>
        <pt x="813" y="747" on="1"/>
        <pt x="846" y="850" on="1"/>
        <pt x="1059" y="1364" on="1"/>
        <pt x="900" y="1389" on="1"/>
        <pt x="900" y="1431" on="0"/>
        <pt x="899" y="1511" on="0"/>
        <pt x="899" y="1553" on="1"/>
        <pt x="1462" y="1553" on="1"/>
        <pt x="1462" y="1389" on="1"/>
        <pt x="1330" y="1352" on="1"/>
        <pt x="940" y="543" on="1"/>
        <pt x="940" y="188" on="1"/>
        <pt x="1209" y="140" on="1"/>
        <pt x="1209" y="0" on="1"/>
        <pt x="344" y="0" on="1"/>
      </contour>
    </TTGlyph>
    <TTGlyph name="Z" xMin="52" yMin="0" xMax="1374" yMax="1553">
      <contour>
        <pt x="52" y="139" on="1"/>
        <pt x="791" y="1211" on="1"/>
        <pt x="957" y="1393" on="1"/>
        <pt x="383" y="1346" on="1"/>
        <pt x="255" y="1101" on="1"/>
        <pt x="102" y="1131" on="1"/>
        <pt x="145" y="1553" on="1"/>
        <pt x="1295" y="1553" on="1"/>
        <pt x="1341" y="1400" on="1"/>
        <pt x="614" y="330" on="1"/>
        <pt x="469" y="164" on="1"/>
        <pt x="1026" y="210" on="1"/>
        <pt x="1225" y="477" on="1"/>
        <pt x="1374" y="436" on="1"/>
        <pt x="1264" y="0" on="1"/>
        <pt x="93" y="0" on="1"/>
      </contour>
    </TTGlyph>
    <TTGlyph name="Zacute" xMin="47" yMin="0" xMax="1369" yMax="1920">
      <contour>
        <pt x="550" y="1700" on="1"/>
        <pt x="943" y="1920" on="1"/>
        <pt x="1136" y="1728" on="1"/>
        <pt x="1108" y="1707" on="0"/>
        <pt x="1020" y="1670" on="0"/>
        <pt x="920" y="1639" on="0"/>
        <pt x="816" y="1616" on="0"/>
        <pt x="727" y="1600" on="0"/>
        <pt x="662" y="1592" on="0"/>
        <pt x="651" y="1593" on="1"/>
      </contour>
      <contour>
        <pt x="47" y="139" on="1"/>
        <pt x="786" y="1211" on="1"/>
        <pt x="952" y="1393" on="1"/>
        <pt x="378" y="1346" on="1"/>
        <pt x="250" y="1101" on="1"/>
        <pt x="97" y="1131" on="1"/>
        <pt x="140" y="1553" on="1"/>
        <pt x="1290" y="1553" on="1"/>
        <pt x="1336" y="1400" on="1"/>
        <pt x="609" y="330" on="1"/>
        <pt x="464" y="164" on="1"/>
        <pt x="1021" y="210" on="1"/>
        <pt x="1220" y="477" on="1"/>
        <pt x="1369" y="436" on="1"/>
        <pt x="1259" y="0" on="1"/>
        <pt x="88" y="0" on="1"/>
      </contour>
    </TTGlyph>
    <TTGlyph name="Zcaron" xMin="47" yMin="0" xMax="1369" yMax="1920">
      <contour>
        <pt x="303" y="1847" on="1"/>
        <pt x="415" y="1920" on="1"/>
        <pt x="697" y="1792" on="1"/>
        <pt x="989" y="1920" on="1"/>
        <pt x="1100" y="1847" on="1"/>
        <pt x="815" y="1597" on="1"/>
        <pt x="583" y="1597" on="1"/>
      </contour>
      <contour>
        <pt x="47" y="139" on="1"/>
        <pt x="786" y="1211" on="1"/>
        <pt x="952" y="1393" on="1"/>
        <pt x="378" y="1346" on="1"/>
        <pt x="250" y="1101" on="1"/>
        <pt x="97" y="1131" on="1"/>
        <pt x="140" y="1553" on="1"/>
        <pt x="1290" y="1553" on="1"/>
        <pt x="1336" y="1400" on="1"/>
        <pt x="609" y="330" on="1"/>
        <pt x="464" y="164" on="1"/>
        <pt x="1021" y="210" on="1"/>
        <pt x="1220" y="477" on="1"/>
        <pt x="1369" y="436" on="1"/>
        <pt x="1259" y="0" on="1"/>
        <pt x="88" y="0" on="1"/>
      </contour>
    </TTGlyph>
    <TTGlyph name="Zdotaccent" xMin="47" yMin="0" xMax="1369" yMax="1920">
      <contour>
        <pt x="682" y="1619" on="1"/>
        <pt x="647" y="1619" on="0"/>
        <pt x="582" y="1637" on="0"/>
        <pt x="531" y="1673" on="0"/>
        <pt x="501" y="1725" on="0"/>
        <pt x="501" y="1759" on="1"/>
        <pt x="501" y="1794" on="0"/>
        <pt x="537" y="1853" on="0"/>
        <pt x="596" y="1896" on="0"/>
        <pt x="670" y="1920" on="0"/>
        <pt x="708" y="1920" on="1"/>
        <pt x="757" y="1920" on="0"/>
        <pt x="825" y="1899" on="0"/>
        <pt x="867" y="1862" on="0"/>
        <pt x="886" y="1811" on="0"/>
        <pt x="886" y="1782" on="1"/>
        <pt x="886" y="1744" on="0"/>
        <pt x="852" y="1684" on="0"/>
        <pt x="796" y="1642" on="0"/>
        <pt x="722" y="1619" on="0"/>
      </contour>
      <contour>
        <pt x="47" y="139" on="1"/>
        <pt x="786" y="1211" on="1"/>
        <pt x="952" y="1393" on="1"/>
        <pt x="378" y="1346" on="1"/>
        <pt x="250" y="1101" on="1"/>
        <pt x="97" y="1131" on="1"/>
        <pt x="140" y="1553" on="1"/>
        <pt x="1290" y="1553" on="1"/>
        <pt x="1336" y="1400" on="1"/>
        <pt x="609" y="330" on="1"/>
        <pt x="464" y="164" on="1"/>
        <pt x="1021" y="210" on="1"/>
        <pt x="1220" y="477" on="1"/>
        <pt x="1369" y="436" on="1"/>
        <pt x="1259" y="0" on="1"/>
        <pt x="88" y="0" on="1"/>
      </contour>
    </TTGlyph>
    <TTGlyph name="a" xMin="63" yMin="-28" xMax="1209" yMax="1151">
      <contour>
        <pt x="71" y="394" on="1"/>
        <pt x="85" y="452" on="0"/>
        <pt x="165" y="544" on="0"/>
        <pt x="277" y="612" on="0"/>
        <pt x="411" y="659" on="0"/>
        <pt x="547" y="689" on="0"/>
        <pt x="674" y="702" on="0"/>
        <pt x="724" y="702" on="1"/>
        <pt x="724" y="782" on="0"/>
        <pt x="696" y="882" on="0"/>
        <pt x="641" y="939" on="0"/>
        <pt x="562" y="960" on="0"/>
        <pt x="511" y="960" on="1"/>
        <pt x="446" y="960" on="0"/>
        <pt x="335" y="939" on="0"/>
        <pt x="248" y="911" on="0"/>
        <pt x="191" y="882" on="0"/>
        <pt x="180" y="874" on="1"/>
        <pt x="112" y="1028" on="1"/>
        <pt x="128" y="1041" on="0"/>
        <pt x="210" y="1083" on="0"/>
        <pt x="339" y="1123" on="0"/>
        <pt x="512" y="1151" on="0"/>
        <pt x="618" y="1151" on="1"/>
        <pt x="719" y="1151" on="0"/>
        <pt x="888" y="1114" on="0"/>
        <pt x="1010" y="1021" on="0"/>
        <pt x="1078" y="862" on="0"/>
        <pt x="1078" y="740" on="1"/>
        <pt x="1078" y="136" on="1"/>
        <pt x="1209" y="136" on="1"/>
        <pt x="1209" y="29" on="1"/>
        <pt x="1183" y="11" on="0"/>
        <pt x="1118" y="-11" on="0"/>
        <pt x="1048" y="-23" on="0"/>
        <pt x="979" y="-28" on="0"/>
        <pt x="950" y="-28" on="1"/>
        <pt x="931" y="-28" on="0"/>
        <pt x="871" y="-20" on="0"/>
        <pt x="814" y="5" on="0"/>
        <pt x="772" y="50" on="0"/>
        <pt x="770" y="86" on="1"/>
        <pt x="718" y="37" on="0"/>
        <pt x="576" y="-28" on="0"/>
        <pt x="480" y="-28" on="1"/>
        <pt x="349" y="-28" on="0"/>
        <pt x="174" y="43" on="0"/>
        <pt x="76" y="160" on="0"/>
        <pt x="51" y="313" on="0"/>
      </contour>
      <contour>
        <pt x="417" y="335" on="1"/>
        <pt x="417" y="238" on="0"/>
        <pt x="527" y="152" on="0"/>
        <pt x="633" y="167" on="1"/>
        <pt x="660" y="171" on="0"/>
        <pt x="704" y="192" on="0"/>
        <pt x="723" y="206" on="1"/>
        <pt x="723" y="292" on="0"/>
        <pt x="724" y="463" on="0"/>
        <pt x="724" y="549" on="1"/>
        <pt x="693" y="549" on="0"/>
        <pt x="623" y="542" on="0"/>
        <pt x="555" y="524" on="0"/>
        <pt x="493" y="492" on="0"/>
        <pt x="445" y="445" on="0"/>
        <pt x="417" y="379" on="0"/>
      </contour>
    </TTGlyph>
    <TTGlyph name="aacute" xMin="63" yMin="-28" xMax="1209" yMax="1851">
      <contour>
        <pt x="447" y="1425" on="1"/>
        <pt x="762" y="1851" on="1"/>
        <pt x="1017" y="1656" on="1"/>
        <pt x="981" y="1599" on="0"/>
        <pt x="869" y="1500" on="0"/>
        <pt x="738" y="1419" on="0"/>
        <pt x="599" y="1356" on="0"/>
        <pt x="535" y="1336" on="1"/>
      </contour>
      <contour>
        <pt x="71" y="394" on="1"/>
        <pt x="85" y="452" on="0"/>
        <pt x="165" y="544" on="0"/>
        <pt x="277" y="612" on="0"/>
        <pt x="411" y="659" on="0"/>
        <pt x="547" y="689" on="0"/>
        <pt x="674" y="702" on="0"/>
        <pt x="724" y="702" on="1"/>
        <pt x="724" y="782" on="0"/>
        <pt x="696" y="882" on="0"/>
        <pt x="641" y="939" on="0"/>
        <pt x="562" y="960" on="0"/>
        <pt x="511" y="960" on="1"/>
        <pt x="446" y="960" on="0"/>
        <pt x="335" y="939" on="0"/>
        <pt x="248" y="911" on="0"/>
        <pt x="191" y="882" on="0"/>
        <pt x="180" y="874" on="1"/>
        <pt x="112" y="1028" on="1"/>
        <pt x="128" y="1041" on="0"/>
        <pt x="210" y="1083" on="0"/>
        <pt x="339" y="1123" on="0"/>
        <pt x="512" y="1151" on="0"/>
        <pt x="618" y="1151" on="1"/>
        <pt x="719" y="1151" on="0"/>
        <pt x="888" y="1114" on="0"/>
        <pt x="1010" y="1021" on="0"/>
        <pt x="1078" y="862" on="0"/>
        <pt x="1078" y="740" on="1"/>
        <pt x="1078" y="136" on="1"/>
        <pt x="1209" y="136" on="1"/>
        <pt x="1209" y="29" on="1"/>
        <pt x="1183" y="11" on="0"/>
        <pt x="1118" y="-11" on="0"/>
        <pt x="1048" y="-23" on="0"/>
        <pt x="979" y="-28" on="0"/>
        <pt x="950" y="-28" on="1"/>
        <pt x="931" y="-28" on="0"/>
        <pt x="871" y="-20" on="0"/>
        <pt x="814" y="5" on="0"/>
        <pt x="772" y="50" on="0"/>
        <pt x="770" y="86" on="1"/>
        <pt x="718" y="37" on="0"/>
        <pt x="576" y="-28" on="0"/>
        <pt x="480" y="-28" on="1"/>
        <pt x="349" y="-28" on="0"/>
        <pt x="174" y="43" on="0"/>
        <pt x="76" y="160" on="0"/>
        <pt x="51" y="313" on="0"/>
      </contour>
      <contour>
        <pt x="417" y="335" on="1"/>
        <pt x="417" y="238" on="0"/>
        <pt x="527" y="152" on="0"/>
        <pt x="633" y="167" on="1"/>
        <pt x="660" y="171" on="0"/>
        <pt x="704" y="192" on="0"/>
        <pt x="723" y="206" on="1"/>
        <pt x="723" y="292" on="0"/>
        <pt x="724" y="463" on="0"/>
        <pt x="724" y="549" on="1"/>
        <pt x="693" y="549" on="0"/>
        <pt x="623" y="542" on="0"/>
        <pt x="555" y="524" on="0"/>
        <pt x="493" y="492" on="0"/>
        <pt x="445" y="445" on="0"/>
        <pt x="417" y="379" on="0"/>
      </contour>
    </TTGlyph>
    <TTGlyph name="acircumflex" xMin="63" yMin="-28" xMax="1209" yMax="1775">
      <contour>
        <pt x="187" y="1409" on="1"/>
        <pt x="458" y="1775" on="1"/>
        <pt x="711" y="1775" on="1"/>
        <pt x="988" y="1410" on="1"/>
        <pt x="843" y="1336" on="1"/>
        <pt x="584" y="1542" on="1"/>
        <pt x="318" y="1335" on="1"/>
      </contour>
      <contour>
        <pt x="71" y="394" on="1"/>
        <pt x="85" y="452" on="0"/>
        <pt x="165" y="544" on="0"/>
        <pt x="277" y="612" on="0"/>
        <pt x="411" y="659" on="0"/>
        <pt x="547" y="689" on="0"/>
        <pt x="674" y="702" on="0"/>
        <pt x="724" y="702" on="1"/>
        <pt x="724" y="782" on="0"/>
        <pt x="696" y="882" on="0"/>
        <pt x="641" y="939" on="0"/>
        <pt x="562" y="960" on="0"/>
        <pt x="511" y="960" on="1"/>
        <pt x="446" y="960" on="0"/>
        <pt x="335" y="939" on="0"/>
        <pt x="248" y="911" on="0"/>
        <pt x="191" y="882" on="0"/>
        <pt x="180" y="874" on="1"/>
        <pt x="112" y="1028" on="1"/>
        <pt x="128" y="1041" on="0"/>
        <pt x="210" y="1083" on="0"/>
        <pt x="339" y="1123" on="0"/>
        <pt x="512" y="1151" on="0"/>
        <pt x="618" y="1151" on="1"/>
        <pt x="719" y="1151" on="0"/>
        <pt x="888" y="1114" on="0"/>
        <pt x="1010" y="1021" on="0"/>
        <pt x="1078" y="862" on="0"/>
        <pt x="1078" y="740" on="1"/>
        <pt x="1078" y="136" on="1"/>
        <pt x="1209" y="136" on="1"/>
        <pt x="1209" y="29" on="1"/>
        <pt x="1183" y="11" on="0"/>
        <pt x="1118" y="-11" on="0"/>
        <pt x="1048" y="-23" on="0"/>
        <pt x="979" y="-28" on="0"/>
        <pt x="950" y="-28" on="1"/>
        <pt x="931" y="-28" on="0"/>
        <pt x="871" y="-20" on="0"/>
        <pt x="814" y="5" on="0"/>
        <pt x="772" y="50" on="0"/>
        <pt x="770" y="86" on="1"/>
        <pt x="718" y="37" on="0"/>
        <pt x="576" y="-28" on="0"/>
        <pt x="480" y="-28" on="1"/>
        <pt x="349" y="-28" on="0"/>
        <pt x="174" y="43" on="0"/>
        <pt x="76" y="160" on="0"/>
        <pt x="51" y="313" on="0"/>
      </contour>
      <contour>
        <pt x="417" y="335" on="1"/>
        <pt x="417" y="238" on="0"/>
        <pt x="527" y="152" on="0"/>
        <pt x="633" y="167" on="1"/>
        <pt x="660" y="171" on="0"/>
        <pt x="704" y="192" on="0"/>
        <pt x="723" y="206" on="1"/>
        <pt x="723" y="292" on="0"/>
        <pt x="724" y="463" on="0"/>
        <pt x="724" y="549" on="1"/>
        <pt x="693" y="549" on="0"/>
        <pt x="623" y="542" on="0"/>
        <pt x="555" y="524" on="0"/>
        <pt x="493" y="492" on="0"/>
        <pt x="445" y="445" on="0"/>
        <pt x="417" y="379" on="0"/>
      </contour>
    </TTGlyph>
    <TTGlyph name="acute" xMin="366" yMin="1336" xMax="936" yMax="1851">
      <contour>
        <pt x="366" y="1425" on="1"/>
        <pt x="681" y="1851" on="1"/>
        <pt x="936" y="1656" on="1"/>
        <pt x="900" y="1599" on="0"/>
        <pt x="788" y="1500" on="0"/>
        <pt x="657" y="1419" on="0"/>
        <pt x="518" y="1356" on="0"/>
        <pt x="454" y="1336" on="1"/>
      </contour>
    </TTGlyph>
    <TTGlyph name="acute.cap" xMin="211" yMin="1593" xMax="797" yMax="1920">
      <contour>
        <pt x="211" y="1700" on="1"/>
        <pt x="604" y="1920" on="1"/>
        <pt x="797" y="1728" on="1"/>
        <pt x="769" y="1707" on="0"/>
        <pt x="681" y="1670" on="0"/>
        <pt x="581" y="1639" on="0"/>
        <pt x="477" y="1616" on="0"/>
        <pt x="388" y="1600" on="0"/>
        <pt x="323" y="1592" on="0"/>
        <pt x="312" y="1593" on="1"/>
      </contour>
    </TTGlyph>
    <TTGlyph name="adieresis" xMin="63" yMin="-28" xMax="1209" yMax="1650">
      <contour>
        <pt x="834" y="1349" on="1"/>
        <pt x="799" y="1349" on="0"/>
        <pt x="734" y="1367" on="0"/>
        <pt x="683" y="1403" on="0"/>
        <pt x="653" y="1455" on="0"/>
        <pt x="653" y="1489" on="1"/>
        <pt x="653" y="1524" on="0"/>
        <pt x="689" y="1583" on="0"/>
        <pt x="748" y="1626" on="0"/>
        <pt x="822" y="1650" on="0"/>
        <pt x="860" y="1650" on="1"/>
        <pt x="909" y="1650" on="0"/>
        <pt x="977" y="1629" on="0"/>
        <pt x="1019" y="1592" on="0"/>
        <pt x="1038" y="1541" on="0"/>
        <pt x="1038" y="1512" on="1"/>
        <pt x="1038" y="1474" on="0"/>
        <pt x="1004" y="1414" on="0"/>
        <pt x="948" y="1372" on="0"/>
        <pt x="874" y="1349" on="0"/>
      </contour>
      <contour>
        <pt x="306" y="1348" on="1"/>
        <pt x="270" y="1348" on="0"/>
        <pt x="206" y="1366" on="0"/>
        <pt x="157" y="1401" on="0"/>
        <pt x="129" y="1453" on="0"/>
        <pt x="129" y="1486" on="1"/>
        <pt x="129" y="1522" on="0"/>
        <pt x="164" y="1582" on="0"/>
        <pt x="222" y="1626" on="0"/>
        <pt x="295" y="1650" on="0"/>
        <pt x="334" y="1650" on="1"/>
        <pt x="383" y="1650" on="0"/>
        <pt x="452" y="1628" on="0"/>
        <pt x="497" y="1591" on="0"/>
        <pt x="518" y="1540" on="0"/>
        <pt x="518" y="1510" on="1"/>
        <pt x="518" y="1473" on="0"/>
        <pt x="483" y="1413" on="0"/>
        <pt x="424" y="1371" on="0"/>
        <pt x="347" y="1348" on="0"/>
      </contour>
      <contour>
        <pt x="71" y="394" on="1"/>
        <pt x="85" y="452" on="0"/>
        <pt x="165" y="544" on="0"/>
        <pt x="277" y="612" on="0"/>
        <pt x="411" y="659" on="0"/>
        <pt x="547" y="689" on="0"/>
        <pt x="674" y="702" on="0"/>
        <pt x="724" y="702" on="1"/>
        <pt x="724" y="782" on="0"/>
        <pt x="696" y="882" on="0"/>
        <pt x="641" y="939" on="0"/>
        <pt x="562" y="960" on="0"/>
        <pt x="511" y="960" on="1"/>
        <pt x="446" y="960" on="0"/>
        <pt x="335" y="939" on="0"/>
        <pt x="248" y="911" on="0"/>
        <pt x="191" y="882" on="0"/>
        <pt x="180" y="874" on="1"/>
        <pt x="112" y="1028" on="1"/>
        <pt x="128" y="1041" on="0"/>
        <pt x="210" y="1083" on="0"/>
        <pt x="339" y="1123" on="0"/>
        <pt x="512" y="1151" on="0"/>
        <pt x="618" y="1151" on="1"/>
        <pt x="719" y="1151" on="0"/>
        <pt x="888" y="1114" on="0"/>
        <pt x="1010" y="1021" on="0"/>
        <pt x="1078" y="862" on="0"/>
        <pt x="1078" y="740" on="1"/>
        <pt x="1078" y="136" on="1"/>
        <pt x="1209" y="136" on="1"/>
        <pt x="1209" y="29" on="1"/>
        <pt x="1183" y="11" on="0"/>
        <pt x="1118" y="-11" on="0"/>
        <pt x="1048" y="-23" on="0"/>
        <pt x="979" y="-28" on="0"/>
        <pt x="950" y="-28" on="1"/>
        <pt x="931" y="-28" on="0"/>
        <pt x="871" y="-20" on="0"/>
        <pt x="814" y="5" on="0"/>
        <pt x="772" y="50" on="0"/>
        <pt x="770" y="86" on="1"/>
        <pt x="718" y="37" on="0"/>
        <pt x="576" y="-28" on="0"/>
        <pt x="480" y="-28" on="1"/>
        <pt x="349" y="-28" on="0"/>
        <pt x="174" y="43" on="0"/>
        <pt x="76" y="160" on="0"/>
        <pt x="51" y="313" on="0"/>
      </contour>
      <contour>
        <pt x="417" y="335" on="1"/>
        <pt x="417" y="238" on="0"/>
        <pt x="527" y="152" on="0"/>
        <pt x="633" y="167" on="1"/>
        <pt x="660" y="171" on="0"/>
        <pt x="704" y="192" on="0"/>
        <pt x="723" y="206" on="1"/>
        <pt x="723" y="292" on="0"/>
        <pt x="724" y="463" on="0"/>
        <pt x="724" y="549" on="1"/>
        <pt x="693" y="549" on="0"/>
        <pt x="623" y="542" on="0"/>
        <pt x="555" y="524" on="0"/>
        <pt x="493" y="492" on="0"/>
        <pt x="445" y="445" on="0"/>
        <pt x="417" y="379" on="0"/>
      </contour>
    </TTGlyph>
    <TTGlyph name="ae" xMin="63" yMin="-28" xMax="1807" yMax="1151">
      <contour>
        <pt x="71" y="394" on="1"/>
        <pt x="85" y="452" on="0"/>
        <pt x="165" y="544" on="0"/>
        <pt x="277" y="612" on="0"/>
        <pt x="411" y="659" on="0"/>
        <pt x="547" y="689" on="0"/>
        <pt x="674" y="702" on="0"/>
        <pt x="724" y="702" on="1"/>
        <pt x="724" y="737" on="0"/>
        <pt x="721" y="766" on="1"/>
        <pt x="715" y="825" on="0"/>
        <pt x="682" y="899" on="0"/>
        <pt x="629" y="940" on="0"/>
        <pt x="556" y="955" on="0"/>
        <pt x="511" y="955" on="1"/>
        <pt x="446" y="955" on="0"/>
        <pt x="335" y="934" on="0"/>
        <pt x="248" y="906" on="0"/>
        <pt x="191" y="877" on="0"/>
        <pt x="180" y="869" on="1"/>
        <pt x="112" y="1028" on="1"/>
        <pt x="128" y="1041" on="0"/>
        <pt x="210" y="1083" on="0"/>
        <pt x="339" y="1123" on="0"/>
        <pt x="512" y="1151" on="0"/>
        <pt x="618" y="1151" on="1"/>
        <pt x="730" y="1151" on="0"/>
        <pt x="913" y="1105" on="0"/>
        <pt x="975" y="1045" on="1"/>
        <pt x="1048" y="1096" on="0"/>
        <pt x="1231" y="1151" on="0"/>
        <pt x="1341" y="1151" on="1"/>
        <pt x="1462" y="1151" on="0"/>
        <pt x="1636" y="1089" on="0"/>
        <pt x="1748" y="978" on="0"/>
        <pt x="1804" y="824" on="0"/>
        <pt x="1807" y="733" on="1"/>
        <pt x="1809" y="670" on="0"/>
        <pt x="1799" y="572" on="0"/>
        <pt x="1793" y="530" on="1"/>
        <pt x="1086" y="530" on="1"/>
        <pt x="1100" y="353" on="0"/>
        <pt x="1261" y="173" on="0"/>
        <pt x="1413" y="173" on="1"/>
        <pt x="1486" y="173" on="0"/>
        <pt x="1661" y="208" on="0"/>
        <pt x="1742" y="244" on="1"/>
        <pt x="1795" y="115" on="1"/>
        <pt x="1757" y="83" on="0"/>
        <pt x="1645" y="29" on="0"/>
        <pt x="1513" y="-9" on="0"/>
        <pt x="1367" y="-30" on="0"/>
        <pt x="1294" y="-28" on="1"/>
        <pt x="1027" y="-22" on="0"/>
        <pt x="882" y="111" on="1"/>
        <pt x="852" y="81" on="0"/>
        <pt x="774" y="31" on="0"/>
        <pt x="675" y="-7" on="0"/>
        <pt x="553" y="-28" on="0"/>
        <pt x="480" y="-28" on="1"/>
        <pt x="349" y="-28" on="0"/>
        <pt x="174" y="43" on="0"/>
        <pt x="76" y="160" on="0"/>
        <pt x="51" y="313" on="0"/>
      </contour>
      <contour>
        <pt x="1463" y="691" on="1"/>
        <pt x="1465" y="723" on="0"/>
        <pt x="1471" y="795" on="0"/>
        <pt x="1468" y="866" on="0"/>
        <pt x="1454" y="931" on="0"/>
        <pt x="1418" y="981" on="0"/>
        <pt x="1356" y="1011" on="0"/>
        <pt x="1309" y="1011" on="1"/>
        <pt x="1251" y="1011" on="0"/>
        <pt x="1205" y="976" on="1"/>
        <pt x="1155" y="938" on="0"/>
        <pt x="1093" y="793" on="0"/>
        <pt x="1085" y="691" on="1"/>
      </contour>
      <contour>
        <pt x="417" y="335" on="1"/>
        <pt x="417" y="238" on="0"/>
        <pt x="527" y="152" on="0"/>
        <pt x="633" y="167" on="1"/>
        <pt x="664" y="172" on="0"/>
        <pt x="707" y="187" on="0"/>
        <pt x="723" y="196" on="1"/>
        <pt x="723" y="285" on="0"/>
        <pt x="724" y="460" on="0"/>
        <pt x="724" y="549" on="1"/>
        <pt x="693" y="549" on="0"/>
        <pt x="623" y="542" on="0"/>
        <pt x="555" y="524" on="0"/>
        <pt x="493" y="492" on="0"/>
        <pt x="445" y="445" on="0"/>
        <pt x="417" y="379" on="0"/>
      </contour>
    </TTGlyph>
    <TTGlyph name="agrave" xMin="63" yMin="-28" xMax="1209" yMax="1852">
      <contour>
        <pt x="704" y="1337" on="1"/>
        <pt x="644" y="1335" on="0"/>
        <pt x="506" y="1394" on="0"/>
        <pt x="375" y="1487" on="0"/>
        <pt x="260" y="1602" on="0"/>
        <pt x="222" y="1657" on="1"/>
        <pt x="477" y="1852" on="1"/>
        <pt x="792" y="1426" on="1"/>
      </contour>
      <contour>
        <pt x="71" y="394" on="1"/>
        <pt x="85" y="452" on="0"/>
        <pt x="165" y="544" on="0"/>
        <pt x="277" y="612" on="0"/>
        <pt x="411" y="659" on="0"/>
        <pt x="547" y="689" on="0"/>
        <pt x="674" y="702" on="0"/>
        <pt x="724" y="702" on="1"/>
        <pt x="724" y="782" on="0"/>
        <pt x="696" y="882" on="0"/>
        <pt x="641" y="939" on="0"/>
        <pt x="562" y="960" on="0"/>
        <pt x="511" y="960" on="1"/>
        <pt x="446" y="960" on="0"/>
        <pt x="335" y="939" on="0"/>
        <pt x="248" y="911" on="0"/>
        <pt x="191" y="882" on="0"/>
        <pt x="180" y="874" on="1"/>
        <pt x="112" y="1028" on="1"/>
        <pt x="128" y="1041" on="0"/>
        <pt x="210" y="1083" on="0"/>
        <pt x="339" y="1123" on="0"/>
        <pt x="512" y="1151" on="0"/>
        <pt x="618" y="1151" on="1"/>
        <pt x="719" y="1151" on="0"/>
        <pt x="888" y="1114" on="0"/>
        <pt x="1010" y="1021" on="0"/>
        <pt x="1078" y="862" on="0"/>
        <pt x="1078" y="740" on="1"/>
        <pt x="1078" y="136" on="1"/>
        <pt x="1209" y="136" on="1"/>
        <pt x="1209" y="29" on="1"/>
        <pt x="1183" y="11" on="0"/>
        <pt x="1118" y="-11" on="0"/>
        <pt x="1048" y="-23" on="0"/>
        <pt x="979" y="-28" on="0"/>
        <pt x="950" y="-28" on="1"/>
        <pt x="931" y="-28" on="0"/>
        <pt x="871" y="-20" on="0"/>
        <pt x="814" y="5" on="0"/>
        <pt x="772" y="50" on="0"/>
        <pt x="770" y="86" on="1"/>
        <pt x="718" y="37" on="0"/>
        <pt x="576" y="-28" on="0"/>
        <pt x="480" y="-28" on="1"/>
        <pt x="349" y="-28" on="0"/>
        <pt x="174" y="43" on="0"/>
        <pt x="76" y="160" on="0"/>
        <pt x="51" y="313" on="0"/>
      </contour>
      <contour>
        <pt x="417" y="335" on="1"/>
        <pt x="417" y="238" on="0"/>
        <pt x="527" y="152" on="0"/>
        <pt x="633" y="167" on="1"/>
        <pt x="660" y="171" on="0"/>
        <pt x="704" y="192" on="0"/>
        <pt x="723" y="206" on="1"/>
        <pt x="723" y="292" on="0"/>
        <pt x="724" y="463" on="0"/>
        <pt x="724" y="549" on="1"/>
        <pt x="693" y="549" on="0"/>
        <pt x="623" y="542" on="0"/>
        <pt x="555" y="524" on="0"/>
        <pt x="493" y="492" on="0"/>
        <pt x="445" y="445" on="0"/>
        <pt x="417" y="379" on="0"/>
      </contour>
    </TTGlyph>
    <TTGlyph name="ampersand" xMin="82" yMin="-28" xMax="1520" yMax="1552">
      <contour>
        <pt x="82" y="386" on="1"/>
        <pt x="82" y="464" on="0"/>
        <pt x="137" y="580" on="0"/>
        <pt x="230" y="668" on="0"/>
        <pt x="352" y="734" on="0"/>
        <pt x="420" y="761" on="1"/>
        <pt x="386" y="805" on="0"/>
        <pt x="321" y="896" on="0"/>
        <pt x="270" y="993" on="0"/>
        <pt x="240" y="1098" on="0"/>
        <pt x="242" y="1155" on="1"/>
        <pt x="245" y="1255" on="0"/>
        <pt x="332" y="1405" on="0"/>
        <pt x="468" y="1503" on="0"/>
        <pt x="635" y="1552" on="0"/>
        <pt x="717" y="1552" on="1"/>
        <pt x="811" y="1552" on="0"/>
        <pt x="976" y="1504" on="0"/>
        <pt x="1098" y="1415" on="0"/>
        <pt x="1168" y="1290" on="0"/>
        <pt x="1168" y="1212" on="1"/>
        <pt x="1168" y="1144" on="0"/>
        <pt x="1117" y="1014" on="0"/>
        <pt x="1024" y="899" on="0"/>
        <pt x="893" y="801" on="0"/>
        <pt x="812" y="765" on="1"/>
        <pt x="848" y="718" on="0"/>
        <pt x="936" y="612" on="0"/>
        <pt x="1026" y="507" on="0"/>
        <pt x="1111" y="413" on="0"/>
        <pt x="1144" y="379" on="1"/>
        <pt x="1155" y="366" on="1"/>
        <pt x="1161" y="401" on="0"/>
        <pt x="1162" y="473" on="0"/>
        <pt x="1162" y="507" on="1"/>
        <pt x="1162" y="603" on="0"/>
        <pt x="1135" y="716" on="0"/>
        <pt x="1124" y="738" on="1"/>
        <pt x="1437" y="738" on="1"/>
        <pt x="1441" y="735" on="0"/>
        <pt x="1454" y="717" on="0"/>
        <pt x="1466" y="676" on="0"/>
        <pt x="1475" y="611" on="0"/>
        <pt x="1475" y="562" on="1"/>
        <pt x="1475" y="475" on="0"/>
        <pt x="1403" y="289" on="0"/>
        <pt x="1336" y="214" on="1"/>
        <pt x="1434" y="153" on="0"/>
        <pt x="1520" y="153" on="1"/>
        <pt x="1520" y="13" on="1"/>
        <pt x="1483" y="-7" on="0"/>
        <pt x="1365" y="-21" on="0"/>
        <pt x="1300" y="-16" on="1"/>
        <pt x="1274" y="-14" on="0"/>
        <pt x="1222" y="-7" on="0"/>
        <pt x="1169" y="6" on="0"/>
        <pt x="1112" y="26" on="0"/>
        <pt x="1081" y="42" on="1"/>
        <pt x="1015" y="10" on="0"/>
        <pt x="849" y="-28" on="0"/>
        <pt x="736" y="-28" on="1"/>
        <pt x="577" y="-28" on="0"/>
        <pt x="332" y="27" on="0"/>
        <pt x="167" y="133" on="0"/>
        <pt x="82" y="287" on="0"/>
      </contour>
      <contour>
        <pt x="720" y="889" on="1"/>
        <pt x="763" y="918" on="0"/>
        <pt x="818" y="988" on="0"/>
        <pt x="848" y="1073" on="0"/>
        <pt x="859" y="1172" on="0"/>
        <pt x="859" y="1229" on="1"/>
        <pt x="859" y="1261" on="0"/>
        <pt x="843" y="1327" on="0"/>
        <pt x="808" y="1381" on="0"/>
        <pt x="752" y="1415" on="0"/>
        <pt x="711" y="1415" on="1"/>
        <pt x="688" y="1415" on="0"/>
        <pt x="641" y="1401" on="0"/>
        <pt x="600" y="1367" on="0"/>
        <pt x="569" y="1309" on="0"/>
        <pt x="562" y="1264" on="1"/>
        <pt x="552" y="1201" on="0"/>
        <pt x="581" y="1089" on="0"/>
        <pt x="633" y="995" on="0"/>
        <pt x="696" y="917" on="0"/>
      </contour>
      <contour>
        <pt x="427" y="438" on="1"/>
        <pt x="427" y="350" on="0"/>
        <pt x="484" y="233" on="0"/>
        <pt x="578" y="164" on="0"/>
        <pt x="697" y="135" on="0"/>
        <pt x="759" y="135" on="1"/>
        <pt x="807" y="135" on="0"/>
        <pt x="890" y="140" on="0"/>
        <pt x="925" y="147" on="1"/>
        <pt x="879" y="188" on="0"/>
        <pt x="776" y="300" on="0"/>
        <pt x="671" y="425" on="0"/>
        <pt x="570" y="555" on="0"/>
        <pt x="527" y="614" on="1"/>
        <pt x="487" y="582" on="0"/>
        <pt x="427" y="490" on="0"/>
      </contour>
    </TTGlyph>
    <TTGlyph name="aogonek" xMin="63" yMin="-517" xMax="1209" yMax="1151">
      <contour>
        <pt x="71" y="394" on="1"/>
        <pt x="85" y="452" on="0"/>
        <pt x="165" y="544" on="0"/>
        <pt x="277" y="612" on="0"/>
        <pt x="411" y="659" on="0"/>
        <pt x="547" y="689" on="0"/>
        <pt x="674" y="702" on="0"/>
        <pt x="724" y="702" on="1"/>
        <pt x="724" y="782" on="0"/>
        <pt x="696" y="882" on="0"/>
        <pt x="641" y="939" on="0"/>
        <pt x="562" y="960" on="0"/>
        <pt x="511" y="960" on="1"/>
        <pt x="446" y="960" on="0"/>
        <pt x="335" y="939" on="0"/>
        <pt x="248" y="911" on="0"/>
        <pt x="191" y="882" on="0"/>
        <pt x="180" y="874" on="1"/>
        <pt x="112" y="1028" on="1"/>
        <pt x="128" y="1041" on="0"/>
        <pt x="210" y="1083" on="0"/>
        <pt x="339" y="1123" on="0"/>
        <pt x="512" y="1151" on="0"/>
        <pt x="618" y="1151" on="1"/>
        <pt x="719" y="1151" on="0"/>
        <pt x="888" y="1114" on="0"/>
        <pt x="1010" y="1021" on="0"/>
        <pt x="1078" y="862" on="0"/>
        <pt x="1078" y="740" on="1"/>
        <pt x="1078" y="136" on="1"/>
        <pt x="1209" y="136" on="1"/>
        <pt x="1209" y="29" on="1"/>
        <pt x="1192" y="18" on="0"/>
        <pt x="1171" y="8" on="1"/>
        <pt x="1132" y="-18" on="0"/>
        <pt x="1056" y="-75" on="0"/>
        <pt x="998" y="-138" on="0"/>
        <pt x="965" y="-208" on="0"/>
        <pt x="970" y="-248" on="1"/>
        <pt x="973" y="-277" on="0"/>
        <pt x="1013" y="-308" on="0"/>
        <pt x="1076" y="-319" on="0"/>
        <pt x="1158" y="-313" on="0"/>
        <pt x="1203" y="-304" on="1"/>
        <pt x="1203" y="-451" on="1"/>
        <pt x="1165" y="-479" on="0"/>
        <pt x="1062" y="-512" on="0"/>
        <pt x="951" y="-521" on="0"/>
        <pt x="842" y="-506" on="0"/>
        <pt x="753" y="-464" on="0"/>
        <pt x="695" y="-395" on="0"/>
        <pt x="691" y="-345" on="1"/>
        <pt x="686" y="-285" on="0"/>
        <pt x="723" y="-187" on="0"/>
        <pt x="786" y="-107" on="0"/>
        <pt x="864" y="-46" on="0"/>
        <pt x="899" y="-23" on="1"/>
        <pt x="878" y="-20" on="0"/>
        <pt x="834" y="-5" on="0"/>
        <pt x="796" y="21" on="0"/>
        <pt x="771" y="59" on="0"/>
        <pt x="770" y="86" on="1"/>
        <pt x="718" y="37" on="0"/>
        <pt x="576" y="-28" on="0"/>
        <pt x="480" y="-28" on="1"/>
        <pt x="349" y="-28" on="0"/>
        <pt x="174" y="43" on="0"/>
        <pt x="76" y="160" on="0"/>
        <pt x="51" y="313" on="0"/>
      </contour>
      <contour>
        <pt x="417" y="335" on="1"/>
        <pt x="417" y="238" on="0"/>
        <pt x="527" y="152" on="0"/>
        <pt x="633" y="167" on="1"/>
        <pt x="660" y="171" on="0"/>
        <pt x="704" y="192" on="0"/>
        <pt x="723" y="206" on="1"/>
        <pt x="723" y="292" on="0"/>
        <pt x="724" y="463" on="0"/>
        <pt x="724" y="549" on="1"/>
        <pt x="693" y="549" on="0"/>
        <pt x="623" y="542" on="0"/>
        <pt x="555" y="524" on="0"/>
        <pt x="493" y="492" on="0"/>
        <pt x="445" y="445" on="0"/>
        <pt x="417" y="379" on="0"/>
      </contour>
    </TTGlyph>
    <TTGlyph name="approxequal" xMin="183" yMin="296" xMax="1208" yMax="1296">
      <contour>
        <pt x="183" y="1051" on="1"/>
        <pt x="186" y="1070" on="0"/>
        <pt x="217" y="1121" on="0"/>
        <pt x="266" y="1176" on="0"/>
        <pt x="331" y="1228" on="0"/>
        <pt x="405" y="1270" on="0"/>
        <pt x="486" y="1296" on="0"/>
        <pt x="528" y="1296" on="1"/>
        <pt x="571" y="1296" on="0"/>
        <pt x="639" y="1275" on="0"/>
        <pt x="696" y="1244" on="0"/>
        <pt x="746" y="1208" on="0"/>
        <pt x="798" y="1177" on="0"/>
        <pt x="855" y="1156" on="0"/>
        <pt x="891" y="1156" on="1"/>
        <pt x="926" y="1156" on="0"/>
        <pt x="992" y="1177" on="0"/>
        <pt x="1049" y="1208" on="0"/>
        <pt x="1094" y="1243" on="0"/>
        <pt x="1109" y="1256" on="1"/>
        <pt x="1208" y="1130" on="1"/>
        <pt x="1203" y="1098" on="0"/>
        <pt x="1144" y="1013" on="0"/>
        <pt x="1051" y="936" on="0"/>
        <pt x="931" y="883" on="0"/>
        <pt x="866" y="883" on="1"/>
        <pt x="823" y="883" on="0"/>
        <pt x="757" y="904" on="0"/>
        <pt x="701" y="936" on="0"/>
        <pt x="651" y="972" on="0"/>
        <pt x="598" y="1004" on="0"/>
        <pt x="537" y="1025" on="0"/>
        <pt x="497" y="1025" on="1"/>
        <pt x="462" y="1025" on="0"/>
        <pt x="397" y="1004" on="0"/>
        <pt x="341" y="973" on="0"/>
        <pt x="296" y="938" on="0"/>
        <pt x="281" y="925" on="1"/>
      </contour>
      <contour>
        <pt x="183" y="464" on="1"/>
        <pt x="186" y="483" on="0"/>
        <pt x="217" y="534" on="0"/>
        <pt x="266" y="589" on="0"/>
        <pt x="331" y="641" on="0"/>
        <pt x="405" y="683" on="0"/>
        <pt x="486" y="709" on="0"/>
        <pt x="528" y="709" on="1"/>
        <pt x="571" y="709" on="0"/>
        <pt x="639" y="688" on="0"/>
        <pt x="696" y="657" on="0"/>
        <pt x="746" y="621" on="0"/>
        <pt x="798" y="590" on="0"/>
        <pt x="855" y="569" on="0"/>
        <pt x="891" y="569" on="1"/>
        <pt x="926" y="569" on="0"/>
        <pt x="992" y="590" on="0"/>
        <pt x="1049" y="621" on="0"/>
        <pt x="1094" y="656" on="0"/>
        <pt x="1109" y="669" on="1"/>
        <pt x="1208" y="543" on="1"/>
        <pt x="1203" y="511" on="0"/>
        <pt x="1144" y="426" on="0"/>
        <pt x="1051" y="349" on="0"/>
        <pt x="931" y="296" on="0"/>
        <pt x="866" y="296" on="1"/>
        <pt x="823" y="296" on="0"/>
        <pt x="757" y="317" on="0"/>
        <pt x="701" y="349" on="0"/>
        <pt x="651" y="385" on="0"/>
        <pt x="598" y="417" on="0"/>
        <pt x="537" y="438" on="0"/>
        <pt x="497" y="438" on="1"/>
        <pt x="462" y="438" on="0"/>
        <pt x="397" y="417" on="0"/>
        <pt x="341" y="386" on="0"/>
        <pt x="296" y="351" on="0"/>
        <pt x="281" y="338" on="1"/>
      </contour>
    </TTGlyph>
    <TTGlyph name="aring" xMin="63" yMin="-28" xMax="1209" yMax="1835">
      <contour>
        <pt x="584" y="1285" on="1"/>
        <pt x="524" y="1285" on="0"/>
        <pt x="417" y="1328" on="0"/>
        <pt x="337" y="1403" on="0"/>
        <pt x="291" y="1503" on="0"/>
        <pt x="291" y="1560" on="1"/>
        <pt x="291" y="1617" on="0"/>
        <pt x="337" y="1717" on="0"/>
        <pt x="417" y="1792" on="0"/>
        <pt x="524" y="1835" on="0"/>
        <pt x="584" y="1835" on="1"/>
        <pt x="645" y="1835" on="0"/>
        <pt x="753" y="1790" on="0"/>
        <pt x="833" y="1714" on="0"/>
        <pt x="879" y="1615" on="0"/>
        <pt x="879" y="1560" on="1"/>
        <pt x="879" y="1503" on="0"/>
        <pt x="833" y="1403" on="0"/>
        <pt x="753" y="1328" on="0"/>
        <pt x="645" y="1285" on="0"/>
      </contour>
      <contour>
        <pt x="584" y="1427" on="1"/>
        <pt x="612" y="1427" on="0"/>
        <pt x="660" y="1447" on="0"/>
        <pt x="696" y="1482" on="0"/>
        <pt x="716" y="1531" on="0"/>
        <pt x="716" y="1560" on="1"/>
        <pt x="716" y="1587" on="0"/>
        <pt x="696" y="1636" on="0"/>
        <pt x="660" y="1673" on="0"/>
        <pt x="612" y="1694" on="0"/>
        <pt x="584" y="1694" on="1"/>
        <pt x="554" y="1694" on="0"/>
        <pt x="505" y="1674" on="0"/>
        <pt x="470" y="1638" on="0"/>
        <pt x="451" y="1589" on="0"/>
        <pt x="451" y="1560" on="1"/>
        <pt x="451" y="1531" on="0"/>
        <pt x="470" y="1482" on="0"/>
        <pt x="505" y="1447" on="0"/>
        <pt x="554" y="1427" on="0"/>
      </contour>
      <contour>
        <pt x="71" y="394" on="1"/>
        <pt x="85" y="452" on="0"/>
        <pt x="165" y="544" on="0"/>
        <pt x="277" y="612" on="0"/>
        <pt x="411" y="659" on="0"/>
        <pt x="547" y="689" on="0"/>
        <pt x="674" y="702" on="0"/>
        <pt x="724" y="702" on="1"/>
        <pt x="724" y="782" on="0"/>
        <pt x="696" y="882" on="0"/>
        <pt x="641" y="939" on="0"/>
        <pt x="562" y="960" on="0"/>
        <pt x="511" y="960" on="1"/>
        <pt x="446" y="960" on="0"/>
        <pt x="335" y="939" on="0"/>
        <pt x="248" y="911" on="0"/>
        <pt x="191" y="882" on="0"/>
        <pt x="180" y="874" on="1"/>
        <pt x="112" y="1028" on="1"/>
        <pt x="128" y="1041" on="0"/>
        <pt x="210" y="1083" on="0"/>
        <pt x="339" y="1123" on="0"/>
        <pt x="512" y="1151" on="0"/>
        <pt x="618" y="1151" on="1"/>
        <pt x="719" y="1151" on="0"/>
        <pt x="888" y="1114" on="0"/>
        <pt x="1010" y="1021" on="0"/>
        <pt x="1078" y="862" on="0"/>
        <pt x="1078" y="740" on="1"/>
        <pt x="1078" y="136" on="1"/>
        <pt x="1209" y="136" on="1"/>
        <pt x="1209" y="29" on="1"/>
        <pt x="1183" y="11" on="0"/>
        <pt x="1118" y="-11" on="0"/>
        <pt x="1048" y="-23" on="0"/>
        <pt x="979" y="-28" on="0"/>
        <pt x="950" y="-28" on="1"/>
        <pt x="931" y="-28" on="0"/>
        <pt x="871" y="-20" on="0"/>
        <pt x="814" y="5" on="0"/>
        <pt x="772" y="50" on="0"/>
        <pt x="770" y="86" on="1"/>
        <pt x="718" y="37" on="0"/>
        <pt x="576" y="-28" on="0"/>
        <pt x="480" y="-28" on="1"/>
        <pt x="349" y="-28" on="0"/>
        <pt x="174" y="43" on="0"/>
        <pt x="76" y="160" on="0"/>
        <pt x="51" y="313" on="0"/>
      </contour>
      <contour>
        <pt x="417" y="335" on="1"/>
        <pt x="417" y="238" on="0"/>
        <pt x="527" y="152" on="0"/>
        <pt x="633" y="167" on="1"/>
        <pt x="660" y="171" on="0"/>
        <pt x="704" y="192" on="0"/>
        <pt x="723" y="206" on="1"/>
        <pt x="723" y="292" on="0"/>
        <pt x="724" y="463" on="0"/>
        <pt x="724" y="549" on="1"/>
        <pt x="693" y="549" on="0"/>
        <pt x="623" y="542" on="0"/>
        <pt x="555" y="524" on="0"/>
        <pt x="493" y="492" on="0"/>
        <pt x="445" y="445" on="0"/>
        <pt x="417" y="379" on="0"/>
      </contour>
    </TTGlyph>
    <TTGlyph name="asciicircum" xMin="183" yMin="563" xMax="1318" yMax="1531">
      <contour>
        <pt x="585" y="1531" on="1"/>
        <pt x="926" y="1531" on="1"/>
        <pt x="1318" y="564" on="1"/>
        <pt x="1238" y="564" on="0"/>
        <pt x="1079" y="563" on="0"/>
        <pt x="999" y="563" on="1"/>
        <pt x="735" y="1220" on="1"/>
        <pt x="459" y="563" on="1"/>
        <pt x="390" y="563" on="0"/>
        <pt x="252" y="564" on="0"/>
        <pt x="183" y="564" on="1"/>
      </contour>
    </TTGlyph>
    <TTGlyph name="asciitilde" xMin="146" yMin="684" xMax="1171" yMax="1097">
      <contour>
        <pt x="146" y="852" on="1"/>
        <pt x="149" y="871" on="0"/>
        <pt x="180" y="922" on="0"/>
        <pt x="229" y="977" on="0"/>
        <pt x="294" y="1029" on="0"/>
        <pt x="368" y="1071" on="0"/>
        <pt x="449" y="1097" on="0"/>
        <pt x="491" y="1097" on="1"/>
        <pt x="534" y="1097" on="0"/>
        <pt x="602" y="1076" on="0"/>
        <pt x="659" y="1045" on="0"/>
        <pt x="709" y="1009" on="0"/>
        <pt x="761" y="978" on="0"/>
        <pt x="818" y="957" on="0"/>
        <pt x="854" y="957" on="1"/>
        <pt x="889" y="957" on="0"/>
        <pt x="955" y="978" on="0"/>
        <pt x="1012" y="1009" on="0"/>
        <pt x="1057" y="1044" on="0"/>
        <pt x="1072" y="1057" on="1"/>
        <pt x="1171" y="931" on="1"/>
        <pt x="1166" y="899" on="0"/>
        <pt x="1107" y="814" on="0"/>
        <pt x="1014" y="737" on="0"/>
        <pt x="894" y="684" on="0"/>
        <pt x="829" y="684" on="1"/>
        <pt x="786" y="684" on="0"/>
        <pt x="720" y="705" on="0"/>
        <pt x="664" y="737" on="0"/>
        <pt x="614" y="773" on="0"/>
        <pt x="561" y="805" on="0"/>
        <pt x="500" y="826" on="0"/>
        <pt x="460" y="826" on="1"/>
        <pt x="425" y="826" on="0"/>
        <pt x="360" y="805" on="0"/>
        <pt x="304" y="774" on="0"/>
        <pt x="259" y="739" on="0"/>
        <pt x="244" y="726" on="1"/>
      </contour>
    </TTGlyph>
    <TTGlyph name="asterisk" xMin="70" yMin="755" xMax="1170" yMax="1799">
      <contour>
        <pt x="493" y="1068" on="1"/>
        <pt x="553" y="1193" on="1"/>
        <pt x="463" y="1081" on="1"/>
        <pt x="224" y="881" on="1"/>
        <pt x="73" y="1084" on="1"/>
        <pt x="383" y="1252" on="1"/>
        <pt x="511" y="1274" on="1"/>
        <pt x="386" y="1290" on="1"/>
        <pt x="70" y="1434" on="1"/>
        <pt x="220" y="1660" on="1"/>
        <pt x="463" y="1460" on="1"/>
        <pt x="553" y="1357" on="1"/>
        <pt x="493" y="1490" on="1"/>
        <pt x="472" y="1799" on="1"/>
        <pt x="750" y="1798" on="1"/>
        <pt x="729" y="1490" on="1"/>
        <pt x="658" y="1357" on="1"/>
        <pt x="753" y="1473" on="1"/>
        <pt x="996" y="1657" on="1"/>
        <pt x="1170" y="1432" on="1"/>
        <pt x="827" y="1292" on="1"/>
        <pt x="699" y="1274" on="1"/>
        <pt x="828" y="1250" on="1"/>
        <pt x="1165" y="1082" on="1"/>
        <pt x="991" y="884" on="1"/>
        <pt x="753" y="1081" on="1"/>
        <pt x="661" y="1193" on="1"/>
        <pt x="721" y="1068" on="1"/>
        <pt x="750" y="755" on="1"/>
        <pt x="472" y="755" on="1"/>
      </contour>
    </TTGlyph>
    <TTGlyph name="at" xMin="140" yMin="-378" xMax="2156" yMax="1462">
      <contour>
        <pt x="140" y="381" on="1"/>
        <pt x="140" y="549" on="0"/>
        <pt x="239" y="840" on="0"/>
        <pt x="409" y="1080" on="0"/>
        <pt x="637" y="1267" on="0"/>
        <pt x="893" y="1395" on="0"/>
        <pt x="1165" y="1462" on="0"/>
        <pt x="1294" y="1462" on="1"/>
        <pt x="1455" y="1462" on="0"/>
        <pt x="1708" y="1410" on="0"/>
        <pt x="1899" y="1319" on="0"/>
        <pt x="2034" y="1195" on="0"/>
        <pt x="2118" y="1052" on="0"/>
        <pt x="2156" y="896" on="0"/>
        <pt x="2156" y="818" on="1"/>
        <pt x="2156" y="707" on="0"/>
        <pt x="2108" y="508" on="0"/>
        <pt x="2023" y="338" on="0"/>
        <pt x="1906" y="200" on="0"/>
        <pt x="1766" y="101" on="0"/>
        <pt x="1610" y="42" on="0"/>
        <pt x="1528" y="37" on="1"/>
        <pt x="1472" y="34" on="0"/>
        <pt x="1402" y="63" on="0"/>
        <pt x="1363" y="120" on="0"/>
        <pt x="1349" y="199" on="0"/>
        <pt x="1349" y="246" on="1"/>
        <pt x="1349" y="263" on="0"/>
        <pt x="1357" y="348" on="0"/>
        <pt x="1363" y="398" on="1"/>
        <pt x="1334" y="332" on="0"/>
        <pt x="1253" y="202" on="0"/>
        <pt x="1155" y="96" on="0"/>
        <pt x="1040" y="28" on="0"/>
        <pt x="976" y="25" on="1"/>
        <pt x="917" y="22" on="0"/>
        <pt x="797" y="72" on="0"/>
        <pt x="699" y="167" on="0"/>
        <pt x="637" y="302" on="0"/>
        <pt x="637" y="385" on="1"/>
        <pt x="637" y="485" on="0"/>
        <pt x="678" y="659" on="0"/>
        <pt x="749" y="806" on="0"/>
        <pt x="844" y="923" on="0"/>
        <pt x="951" y="1006" on="0"/>
        <pt x="1065" y="1054" on="0"/>
        <pt x="1119" y="1058" on="1"/>
        <pt x="1165" y="1061" on="0"/>
        <pt x="1238" y="1057" on="0"/>
        <pt x="1303" y="1043" on="0"/>
        <pt x="1363" y="1022" on="0"/>
        <pt x="1396" y="1009" on="1"/>
        <pt x="1407" y="1035" on="0"/>
        <pt x="1437" y="1067" on="0"/>
        <pt x="1458" y="1062" on="1"/>
        <pt x="1521" y="1046" on="0"/>
        <pt x="1633" y="1006" on="0"/>
        <pt x="1696" y="988" on="1"/>
        <pt x="1678" y="875" on="0"/>
        <pt x="1633" y="635" on="0"/>
        <pt x="1620" y="492" on="1"/>
        <pt x="1613" y="414" on="0"/>
        <pt x="1613" y="308" on="0"/>
        <pt x="1621" y="243" on="0"/>
        <pt x="1632" y="215" on="0"/>
        <pt x="1637" y="215" on="1"/>
        <pt x="1662" y="215" on="0"/>
        <pt x="1721" y="259" on="0"/>
        <pt x="1779" y="335" on="0"/>
        <pt x="1833" y="435" on="0"/>
        <pt x="1874" y="549" on="0"/>
        <pt x="1898" y="671" on="0"/>
        <pt x="1898" y="730" on="1"/>
        <pt x="1898" y="842" on="0"/>
        <pt x="1846" y="1014" on="0"/>
        <pt x="1753" y="1141" on="0"/>
        <pt x="1624" y="1228" on="0"/>
        <pt x="1470" y="1280" on="0"/>
        <pt x="1295" y="1303" on="0"/>
        <pt x="1203" y="1303" on="1"/>
        <pt x="1121" y="1303" on="0"/>
        <pt x="942" y="1252" on="0"/>
        <pt x="772" y="1154" on="0"/>
        <pt x="618" y="1012" on="0"/>
        <pt x="502" y="832" on="0"/>
        <pt x="434" y="615" on="0"/>
        <pt x="434" y="491" on="1"/>
        <pt x="434" y="354" on="0"/>
        <pt x="489" y="143" on="0"/>
        <pt x="587" y="-14" on="0"/>
        <pt x="721" y="-121" on="0"/>
        <pt x="880" y="-187" on="0"/>
        <pt x="1057" y="-215" on="0"/>
        <pt x="1149" y="-215" on="1"/>
        <pt x="1202" y="-215" on="0"/>
        <pt x="1327" y="-199" on="0"/>
        <pt x="1442" y="-175" on="0"/>
        <pt x="1536" y="-147" on="0"/>
        <pt x="1557" y="-134" on="1"/>
        <pt x="1622" y="-262" on="1"/>
        <pt x="1548" y="-315" on="0"/>
        <pt x="1285" y="-378" on="0"/>
        <pt x="1111" y="-378" on="1"/>
        <pt x="890" y="-378" on="0"/>
        <pt x="532" y="-275" on="0"/>
        <pt x="278" y="-80" on="0"/>
        <pt x="140" y="202" on="0"/>
      </contour>
      <contour>
        <pt x="927" y="502" on="1"/>
        <pt x="927" y="454" on="0"/>
        <pt x="938" y="362" on="0"/>
        <pt x="961" y="291" on="0"/>
        <pt x="998" y="247" on="0"/>
        <pt x="1025" y="247" on="1"/>
        <pt x="1040" y="247" on="0"/>
        <pt x="1091" y="295" on="0"/>
        <pt x="1152" y="377" on="0"/>
        <pt x="1217" y="489" on="0"/>
        <pt x="1274" y="617" on="0"/>
        <pt x="1319" y="755" on="0"/>
        <pt x="1329" y="823" on="1"/>
        <pt x="1318" y="830" on="0"/>
        <pt x="1274" y="844" on="0"/>
        <pt x="1225" y="855" on="0"/>
        <pt x="1177" y="862" on="0"/>
        <pt x="1162" y="862" on="1"/>
        <pt x="1116" y="862" on="0"/>
        <pt x="1031" y="821" on="0"/>
        <pt x="966" y="734" on="0"/>
        <pt x="927" y="598" on="0"/>
      </contour>
    </TTGlyph>
    <TTGlyph name="atilde" xMin="63" yMin="-28" xMax="1209" yMax="1675">
      <contour>
        <pt x="155" y="1467" on="1"/>
        <pt x="171" y="1511" on="0"/>
        <pt x="246" y="1587" on="0"/>
        <pt x="336" y="1643" on="0"/>
        <pt x="428" y="1675" on="0"/>
        <pt x="463" y="1675" on="1"/>
        <pt x="518" y="1675" on="0"/>
        <pt x="599" y="1644" on="0"/>
        <pt x="666" y="1606" on="0"/>
        <pt x="724" y="1575" on="0"/>
        <pt x="756" y="1575" on="1"/>
        <pt x="809" y="1575" on="0"/>
        <pt x="889" y="1620" on="0"/>
        <pt x="922" y="1646" on="1"/>
        <pt x="1011" y="1549" on="1"/>
        <pt x="994" y="1505" on="0"/>
        <pt x="922" y="1428" on="0"/>
        <pt x="835" y="1371" on="0"/>
        <pt x="745" y="1338" on="0"/>
        <pt x="710" y="1338" on="1"/>
        <pt x="656" y="1338" on="0"/>
        <pt x="572" y="1370" on="0"/>
        <pt x="503" y="1409" on="0"/>
        <pt x="442" y="1441" on="0"/>
        <pt x="410" y="1441" on="1"/>
        <pt x="388" y="1441" on="0"/>
        <pt x="343" y="1428" on="0"/>
        <pt x="300" y="1407" on="0"/>
        <pt x="260" y="1382" on="0"/>
        <pt x="242" y="1369" on="1"/>
      </contour>
      <contour>
        <pt x="71" y="394" on="1"/>
        <pt x="85" y="452" on="0"/>
        <pt x="165" y="544" on="0"/>
        <pt x="277" y="612" on="0"/>
        <pt x="411" y="659" on="0"/>
        <pt x="547" y="689" on="0"/>
        <pt x="674" y="702" on="0"/>
        <pt x="724" y="702" on="1"/>
        <pt x="724" y="782" on="0"/>
        <pt x="696" y="882" on="0"/>
        <pt x="641" y="939" on="0"/>
        <pt x="562" y="960" on="0"/>
        <pt x="511" y="960" on="1"/>
        <pt x="446" y="960" on="0"/>
        <pt x="335" y="939" on="0"/>
        <pt x="248" y="911" on="0"/>
        <pt x="191" y="882" on="0"/>
        <pt x="180" y="874" on="1"/>
        <pt x="112" y="1028" on="1"/>
        <pt x="128" y="1041" on="0"/>
        <pt x="210" y="1083" on="0"/>
        <pt x="339" y="1123" on="0"/>
        <pt x="512" y="1151" on="0"/>
        <pt x="618" y="1151" on="1"/>
        <pt x="719" y="1151" on="0"/>
        <pt x="888" y="1114" on="0"/>
        <pt x="1010" y="1021" on="0"/>
        <pt x="1078" y="862" on="0"/>
        <pt x="1078" y="740" on="1"/>
        <pt x="1078" y="136" on="1"/>
        <pt x="1209" y="136" on="1"/>
        <pt x="1209" y="29" on="1"/>
        <pt x="1183" y="11" on="0"/>
        <pt x="1118" y="-11" on="0"/>
        <pt x="1048" y="-23" on="0"/>
        <pt x="979" y="-28" on="0"/>
        <pt x="950" y="-28" on="1"/>
        <pt x="931" y="-28" on="0"/>
        <pt x="871" y="-20" on="0"/>
        <pt x="814" y="5" on="0"/>
        <pt x="772" y="50" on="0"/>
        <pt x="770" y="86" on="1"/>
        <pt x="718" y="37" on="0"/>
        <pt x="576" y="-28" on="0"/>
        <pt x="480" y="-28" on="1"/>
        <pt x="349" y="-28" on="0"/>
        <pt x="174" y="43" on="0"/>
        <pt x="76" y="160" on="0"/>
        <pt x="51" y="313" on="0"/>
      </contour>
      <contour>
        <pt x="417" y="335" on="1"/>
        <pt x="417" y="238" on="0"/>
        <pt x="527" y="152" on="0"/>
        <pt x="633" y="167" on="1"/>
        <pt x="660" y="171" on="0"/>
        <pt x="704" y="192" on="0"/>
        <pt x="723" y="206" on="1"/>
        <pt x="723" y="292" on="0"/>
        <pt x="724" y="463" on="0"/>
        <pt x="724" y="549" on="1"/>
        <pt x="693" y="549" on="0"/>
        <pt x="623" y="542" on="0"/>
        <pt x="555" y="524" on="0"/>
        <pt x="493" y="492" on="0"/>
        <pt x="445" y="445" on="0"/>
        <pt x="417" y="379" on="0"/>
      </contour>
    </TTGlyph>
    <TTGlyph name="b" xMin="24" yMin="-28" xMax="1254" yMax="1629">
      <contour>
        <pt x="149" y="1384" on="1"/>
        <pt x="24" y="1441" on="1"/>
        <pt x="24" y="1581" on="1"/>
        <pt x="446" y="1629" on="1"/>
        <pt x="503" y="1612" on="1"/>
        <pt x="503" y="1088" on="1"/>
        <pt x="552" y="1115" on="0"/>
        <pt x="684" y="1151" on="0"/>
        <pt x="766" y="1151" on="1"/>
        <pt x="859" y="1151" on="0"/>
        <pt x="1034" y="1093" on="0"/>
        <pt x="1171" y="963" on="0"/>
        <pt x="1254" y="755" on="0"/>
        <pt x="1254" y="605" on="1"/>
        <pt x="1254" y="483" on="0"/>
        <pt x="1165" y="254" on="0"/>
        <pt x="1000" y="78" on="0"/>
        <pt x="767" y="-28" on="0"/>
        <pt x="623" y="-28" on="1"/>
        <pt x="544" y="-28" on="0"/>
        <pt x="384" y="-10" on="0"/>
        <pt x="251" y="16" on="0"/>
        <pt x="160" y="45" on="0"/>
        <pt x="149" y="56" on="1"/>
      </contour>
      <contour>
        <pt x="503" y="201" on="1"/>
        <pt x="510" y="188" on="0"/>
        <pt x="533" y="159" on="0"/>
        <pt x="571" y="134" on="0"/>
        <pt x="623" y="117" on="0"/>
        <pt x="659" y="117" on="1"/>
        <pt x="701" y="117" on="0"/>
        <pt x="783" y="156" on="0"/>
        <pt x="849" y="257" on="0"/>
        <pt x="893" y="432" on="0"/>
        <pt x="897" y="567" on="1"/>
        <pt x="900" y="674" on="0"/>
        <pt x="853" y="828" on="0"/>
        <pt x="774" y="928" on="0"/>
        <pt x="676" y="976" on="0"/>
        <pt x="629" y="976" on="1"/>
        <pt x="588" y="976" on="0"/>
        <pt x="526" y="965" on="0"/>
        <pt x="503" y="957" on="1"/>
      </contour>
    </TTGlyph>
    <TTGlyph name="backslash" xMin="30" yMin="-363" xMax="797" yMax="1599">
      <contour>
        <pt x="30" y="1599" on="1"/>
        <pt x="283" y="1599" on="1"/>
        <pt x="797" y="-363" on="1"/>
        <pt x="545" y="-363" on="1"/>
      </contour>
    </TTGlyph>
    <TTGlyph name="bar" xMin="367" yMin="-186" xMax="721" yMax="1780">
      <contour>
        <pt x="367" y="1780" on="1"/>
        <pt x="721" y="1780" on="1"/>
        <pt x="721" y="-186" on="1"/>
        <pt x="367" y="-186" on="1"/>
      </contour>
    </TTGlyph>
    <TTGlyph name="braceleft" xMin="82" yMin="-259" xMax="881" yMax="1807">
      <contour>
        <pt x="259" y="559" on="1"/>
        <pt x="259" y="583" on="0"/>
        <pt x="230" y="623" on="0"/>
        <pt x="181" y="652" on="0"/>
        <pt x="117" y="670" on="0"/>
        <pt x="82" y="673" on="1"/>
        <pt x="82" y="894" on="1"/>
        <pt x="120" y="898" on="0"/>
        <pt x="185" y="912" on="0"/>
        <pt x="232" y="935" on="0"/>
        <pt x="259" y="971" on="0"/>
        <pt x="259" y="999" on="1"/>
        <pt x="259" y="1558" on="1"/>
        <pt x="259" y="1632" on="0"/>
        <pt x="302" y="1728" on="0"/>
        <pt x="377" y="1785" on="0"/>
        <pt x="477" y="1807" on="0"/>
        <pt x="535" y="1807" on="1"/>
        <pt x="576" y="1807" on="0"/>
        <pt x="670" y="1791" on="0"/>
        <pt x="763" y="1768" on="0"/>
        <pt x="849" y="1742" on="0"/>
        <pt x="881" y="1733" on="1"/>
        <pt x="881" y="1701" on="0"/>
        <pt x="880" y="1639" on="0"/>
        <pt x="880" y="1607" on="1"/>
        <pt x="573" y="1607" on="1"/>
        <pt x="573" y="971" on="1"/>
        <pt x="573" y="935" on="0"/>
        <pt x="551" y="885" on="0"/>
        <pt x="531" y="865" on="1"/>
        <pt x="502" y="837" on="0"/>
        <pt x="413" y="799" on="0"/>
        <pt x="359" y="776" on="1"/>
        <pt x="410" y="756" on="0"/>
        <pt x="496" y="717" on="0"/>
        <pt x="525" y="689" on="1"/>
        <pt x="548" y="668" on="0"/>
        <pt x="573" y="613" on="0"/>
        <pt x="573" y="575" on="1"/>
        <pt x="573" y="-59" on="1"/>
        <pt x="880" y="-59" on="1"/>
        <pt x="880" y="-91" on="0"/>
        <pt x="881" y="-155" on="0"/>
        <pt x="881" y="-187" on="1"/>
        <pt x="849" y="-196" on="0"/>
        <pt x="769" y="-221" on="0"/>
        <pt x="683" y="-243" on="0"/>
        <pt x="595" y="-259" on="0"/>
        <pt x="554" y="-259" on="1"/>
        <pt x="496" y="-259" on="0"/>
        <pt x="390" y="-239" on="0"/>
        <pt x="308" y="-180" on="0"/>
        <pt x="259" y="-75" on="0"/>
        <pt x="259" y="10" on="1"/>
      </contour>
    </TTGlyph>
    <TTGlyph name="braceright" xMin="246" yMin="-259" xMax="1045" yMax="1807">
      <contour>
        <pt x="554" y="-59" on="1"/>
        <pt x="554" y="575" on="1"/>
        <pt x="554" y="613" on="0"/>
        <pt x="579" y="668" on="0"/>
        <pt x="602" y="689" on="1"/>
        <pt x="631" y="717" on="0"/>
        <pt x="716" y="756" on="0"/>
        <pt x="767" y="776" on="1"/>
        <pt x="714" y="799" on="0"/>
        <pt x="625" y="837" on="0"/>
        <pt x="596" y="865" on="1"/>
        <pt x="576" y="885" on="0"/>
        <pt x="554" y="935" on="0"/>
        <pt x="554" y="971" on="1"/>
        <pt x="554" y="1607" on="1"/>
        <pt x="247" y="1607" on="1"/>
        <pt x="247" y="1639" on="0"/>
        <pt x="246" y="1701" on="0"/>
        <pt x="246" y="1733" on="1"/>
        <pt x="278" y="1742" on="0"/>
        <pt x="364" y="1768" on="0"/>
        <pt x="457" y="1791" on="0"/>
        <pt x="551" y="1807" on="0"/>
        <pt x="592" y="1807" on="1"/>
        <pt x="650" y="1807" on="0"/>
        <pt x="750" y="1785" on="0"/>
        <pt x="825" y="1728" on="0"/>
        <pt x="868" y="1632" on="0"/>
        <pt x="868" y="1558" on="1"/>
        <pt x="868" y="999" on="1"/>
        <pt x="868" y="971" on="0"/>
        <pt x="895" y="935" on="0"/>
        <pt x="942" y="912" on="0"/>
        <pt x="1007" y="898" on="0"/>
        <pt x="1045" y="894" on="1"/>
        <pt x="1045" y="673" on="1"/>
        <pt x="1010" y="670" on="0"/>
        <pt x="946" y="652" on="0"/>
        <pt x="897" y="623" on="0"/>
        <pt x="868" y="583" on="0"/>
        <pt x="868" y="559" on="1"/>
        <pt x="868" y="10" on="1"/>
        <pt x="868" y="-75" on="0"/>
        <pt x="819" y="-180" on="0"/>
        <pt x="737" y="-239" on="0"/>
        <pt x="631" y="-259" on="0"/>
        <pt x="573" y="-259" on="1"/>
        <pt x="532" y="-259" on="0"/>
        <pt x="444" y="-243" on="0"/>
        <pt x="358" y="-221" on="0"/>
        <pt x="278" y="-196" on="0"/>
        <pt x="246" y="-187" on="1"/>
        <pt x="246" y="-155" on="0"/>
        <pt x="247" y="-91" on="0"/>
        <pt x="247" y="-59" on="1"/>
      </contour>
    </TTGlyph>
    <TTGlyph name="bracketleft" xMin="259" yMin="-230" xMax="885" yMax="1804">
      <contour>
        <pt x="259" y="1512" on="1"/>
        <pt x="259" y="1601" on="0"/>
        <pt x="300" y="1715" on="0"/>
        <pt x="379" y="1780" on="0"/>
        <pt x="496" y="1804" on="0"/>
        <pt x="572" y="1804" on="1"/>
        <pt x="607" y="1804" on="0"/>
        <pt x="686" y="1790" on="0"/>
        <pt x="767" y="1768" on="0"/>
        <pt x="846" y="1740" on="0"/>
        <pt x="882" y="1727" on="1"/>
        <pt x="882" y="1696" on="0"/>
        <pt x="881" y="1634" on="0"/>
        <pt x="881" y="1603" on="1"/>
        <pt x="573" y="1603" on="1"/>
        <pt x="573" y="-29" on="1"/>
        <pt x="881" y="-33" on="1"/>
        <pt x="885" y="-158" on="1"/>
        <pt x="860" y="-172" on="0"/>
        <pt x="782" y="-198" on="0"/>
        <pt x="695" y="-218" on="0"/>
        <pt x="607" y="-230" on="0"/>
        <pt x="573" y="-230" on="1"/>
        <pt x="496" y="-230" on="0"/>
        <pt x="379" y="-207" on="0"/>
        <pt x="299" y="-135" on="0"/>
        <pt x="259" y="-1" on="0"/>
        <pt x="259" y="111" on="1"/>
      </contour>
    </TTGlyph>
    <TTGlyph name="bracketright" xMin="227" yMin="-230" xMax="853" yMax="1804">
      <contour>
        <pt x="539" y="-29" on="1"/>
        <pt x="539" y="1603" on="1"/>
        <pt x="231" y="1603" on="1"/>
        <pt x="231" y="1634" on="0"/>
        <pt x="230" y="1696" on="0"/>
        <pt x="230" y="1727" on="1"/>
        <pt x="266" y="1740" on="0"/>
        <pt x="345" y="1768" on="0"/>
        <pt x="426" y="1790" on="0"/>
        <pt x="505" y="1804" on="0"/>
        <pt x="540" y="1804" on="1"/>
        <pt x="616" y="1804" on="0"/>
        <pt x="733" y="1780" on="0"/>
        <pt x="812" y="1715" on="0"/>
        <pt x="853" y="1601" on="0"/>
        <pt x="853" y="1512" on="1"/>
        <pt x="853" y="111" on="1"/>
        <pt x="853" y="-1" on="0"/>
        <pt x="813" y="-135" on="0"/>
        <pt x="733" y="-207" on="0"/>
        <pt x="616" y="-230" on="0"/>
        <pt x="539" y="-230" on="1"/>
        <pt x="504" y="-230" on="0"/>
        <pt x="417" y="-218" on="0"/>
        <pt x="330" y="-198" on="0"/>
        <pt x="252" y="-172" on="0"/>
        <pt x="227" y="-158" on="1"/>
        <pt x="231" y="-33" on="1"/>
      </contour>
    </TTGlyph>
    <TTGlyph name="breve" xMin="344" yMin="1344" xMax="1092" yMax="1694">
      <contour>
        <pt x="718" y="1344" on="1"/>
        <pt x="624" y="1344" on="0"/>
        <pt x="484" y="1407" on="0"/>
        <pt x="391" y="1508" on="0"/>
        <pt x="344" y="1632" on="0"/>
        <pt x="344" y="1693" on="1"/>
        <pt x="555" y="1693" on="1"/>
        <pt x="558" y="1681" on="0"/>
        <pt x="573" y="1632" on="0"/>
        <pt x="609" y="1582" on="0"/>
        <pt x="671" y="1545" on="0"/>
        <pt x="719" y="1545" on="1"/>
        <pt x="765" y="1545" on="0"/>
        <pt x="826" y="1582" on="0"/>
        <pt x="864" y="1632" on="0"/>
        <pt x="882" y="1682" on="0"/>
        <pt x="885" y="1694" on="1"/>
        <pt x="1092" y="1694" on="1"/>
        <pt x="1092" y="1633" on="0"/>
        <pt x="1042" y="1508" on="0"/>
        <pt x="947" y="1408" on="0"/>
        <pt x="808" y="1344" on="0"/>
      </contour>
    </TTGlyph>
    <TTGlyph name="breve.cap" xMin="-10" yMin="1580" xMax="738" yMax="1920">
      <contour>
        <pt x="364" y="1580" on="1"/>
        <pt x="270" y="1580" on="0"/>
        <pt x="130" y="1640" on="0"/>
        <pt x="37" y="1737" on="0"/>
        <pt x="-10" y="1859" on="0"/>
        <pt x="-10" y="1920" on="1"/>
        <pt x="201" y="1920" on="1"/>
        <pt x="204" y="1908" on="0"/>
        <pt x="219" y="1862" on="0"/>
        <pt x="255" y="1815" on="0"/>
        <pt x="317" y="1781" on="0"/>
        <pt x="365" y="1781" on="1"/>
        <pt x="411" y="1781" on="0"/>
        <pt x="472" y="1815" on="0"/>
        <pt x="510" y="1861" on="0"/>
        <pt x="528" y="1908" on="0"/>
        <pt x="531" y="1920" on="1"/>
        <pt x="738" y="1920" on="1"/>
        <pt x="738" y="1859" on="0"/>
        <pt x="688" y="1737" on="0"/>
        <pt x="593" y="1640" on="0"/>
        <pt x="454" y="1580" on="0"/>
      </contour>
    </TTGlyph>
    <TTGlyph name="brokenbar" xMin="367" yMin="-185" xMax="721" yMax="1780">
      <contour>
        <pt x="367" y="1780" on="1"/>
        <pt x="721" y="1780" on="1"/>
        <pt x="721" y="907" on="1"/>
        <pt x="367" y="907" on="1"/>
      </contour>
      <contour>
        <pt x="367" y="688" on="1"/>
        <pt x="721" y="688" on="1"/>
        <pt x="721" y="-185" on="1"/>
        <pt x="367" y="-185" on="1"/>
      </contour>
    </TTGlyph>
</ttFont>
